font.ufo
<glyph name="dollar" format="2">
	<unicode hex="0024"/>
	<advance width="535"/>
	<outline>
		<contour>
			<point x="164" y="-115" type="line"/>
			<point x="214" y="-115" type="line"/>
			<point x="301" y="316" type="line"/>
			<point x="252" y="316" type="line"/>
		</contour>
		<contour>
			<point x="209" y="-14" type="curve" smooth="yes"/>
			<point x="374" y="-14"/>
			<point x="471" y="61"/>
			<point x="471" y="189" type="curve" smooth="yes"/>
			<point x="471" y="278"/>
			<point x="417" y="323"/>
			<point x="328" y="374" type="curve" smooth="yes"/>
			<point x="301" y="391" type="line" smooth="yes"/>
			<point x="253" y="419"/>
			<point x="220" y="442"/>
			<point x="220" y="494" type="curve" smooth="yes"/>
			<point x="220" y="569"/>
			<point x="272" y="601"/>
			<point x="339" y="601" type="curve" smooth="yes"/>
			<point x="380" y="601"/>
			<point x="417" y="595"/>
			<point x="458" y="568" type="curve"/>
			<point x="401" y="614" type="line"/>
			<point x="405" y="535" type="line" smooth="yes"/>
			<point x="408" y="475"/>
			<point x="435" y="462"/>
			<point x="464" y="462" type="curve" smooth="yes"/>
			<point x="494" y="462"/>
			<point x="512" y="479"/>
			<point x="519" y="516" type="curve"/>
			<point x="512" y="604"/>
			<point x="441" y="646"/>
			<point x="341" y="646" type="curve" smooth="yes"/>
			<point x="182" y="646"/>
			<point x="96" y="564"/>
			<point x="96" y="449" type="curve" smooth="yes"/>
			<point x="96" y="363"/>
			<point x="148" y="316"/>
			<point x="223" y="269" type="curve" smooth="yes"/>
			<point x="250" y="253" type="line" smooth="yes"/>
			<point x="303" y="220"/>
			<point x="341" y="199"/>
			<point x="341" y="144" type="curve" smooth="yes"/>
			<point x="341" y="72"/>
			<point x="289" y="28"/>
			<point x="215" y="28" type="curve" smooth="yes"/>
			<point x="165" y="28"/>
			<point x="132" y="40"/>
			<point x="91" y="66" type="curve"/>
			<point x="146" y="21" type="line"/>
			<point x="141" y="108" type="line" smooth="yes"/>
			<point x="139" y="166"/>
			<point x="116" y="181"/>
			<point x="85" y="181" type="curve" smooth="yes"/>
			<point x="61" y="181"/>
			<point x="37" y="165"/>
			<point x="28" y="136" type="curve"/>
			<point x="30" y="35"/>
			<point x="98" y="-14"/>
		</contour>
		<contour>
			<point x="257" y="316" type="line"/>
			<point x="307" y="316" type="line"/>
			<point x="393" y="736" type="line"/>
			<point x="343" y="736" type="line"/>
		</contour>
	</outline>
</glyph>
<glyph name="ampersand" format="2">
	<unicode hex="0026"/>
	<advance width="716"/>
	<outline>
		<contour>
			<point x="310" y="-16" type="curve" smooth="yes"/>
			<point x="484" y="-16"/>
			<point x="579" y="76"/>
			<point x="579" y="190" type="curve" smooth="yes"/>
			<point x="579" y="252"/>
			<point x="542" y="307"/>
			<point x="463" y="314" type="curve"/>
			<point x="480" y="281" type="line"/>
			<point x="606" y="299"/>
			<point x="694" y="358"/>
			<point x="746" y="474" type="curve"/>
			<point x="647" y="520" type="line"/>
			<point x="609" y="407"/>
			<point x="543" y="340"/>
			<point x="432" y="324" type="curve"/>
			<point x="423" y="275" type="line"/>
			<point x="488" y="268"/>
			<point x="509" y="237"/>
			<point x="509" y="199" type="curve" smooth="yes"/>
			<point x="509" y="143"/>
			<point x="458" y="95"/>
			<point x="348" y="95" type="curve" smooth="yes"/>
			<point x="247" y="95"/>
			<point x="176" y="146"/>
			<point x="176" y="246" type="curve" smooth="yes"/>
			<point x="176" y="319"/>
			<point x="220" y="386"/>
			<point x="318" y="413" type="curve"/>
			<point x="294" y="437"/>
			<point x="282" y="474"/>
			<point x="282" y="508" type="curve" smooth="yes"/>
			<point x="282" y="586"/>
			<point x="332" y="637"/>
			<point x="416" y="637" type="curve" smooth="yes"/>
			<point x="434" y="637"/>
			<point x="452" y="634"/>
			<point x="470" y="631" type="curve"/>
			<point x="404" y="655" type="line"/>
			<point x="431" y="589" type="line" smooth="yes"/>
			<point x="449" y="544"/>
			<point x="475" y="529"/>
			<point x="501" y="529" type="curve" smooth="yes"/>
			<point x="534" y="529"/>
			<point x="552" y="549"/>
			<point x="554" y="577" type="curve"/>
			<point x="542" y="634"/>
			<point x="492" y="675"/>
			<point x="392" y="675" type="curve" smooth="yes"/>
			<point x="260" y="675"/>
			<point x="179" y="589"/>
			<point x="179" y="492" type="curve" smooth="yes"/>
			<point x="179" y="409"/>
			<point x="242" y="337"/>
			<point x="352" y="337" type="curve" smooth="yes"/>
			<point x="398" y="337"/>
			<point x="419" y="358"/>
			<point x="419" y="386" type="curve" smooth="yes"/>
			<point x="419" y="423"/>
			<point x="385" y="441"/>
			<point x="320" y="441" type="curve" smooth="yes"/>
			<point x="149" y="441"/>
			<point x="39" y="324"/>
			<point x="39" y="200" type="curve" smooth="yes"/>
			<point x="39" y="77"/>
			<point x="130" y="-16"/>
		</contour>
	</outline>
</glyph>
<glyph name="quotesingle" format="2">
	<unicode hex="0027"/>
	<advance width="259"/>
	<outline>
		<contour>
			<point x="208" y="726" type="curve" smooth="yes"/>
			<point x="169" y="726"/>
			<point x="143" y="704"/>
			<point x="134" y="652" type="curve" smooth="yes"/>
			<point x="127" y="608"/>
			<point x="128" y="529"/>
			<point x="129" y="483" type="curve" smooth="yes"/>
			<point x="132" y="395" type="line"/>
			<point x="172" y="395" type="line"/>
			<point x="228" y="534"/>
			<point x="265" y="619"/>
			<point x="265" y="666" type="curve" smooth="yes"/>
			<point x="265" y="703"/>
			<point x="244" y="726"/>
		</contour>
	</outline>
</glyph>
<glyph name="parenleft" format="2">
	<unicode hex="0028"/>
	<advance width="382"/>
	<outline>
		<contour>
			<point x="224" y="-183" type="curve"/>
			<point x="263" y="-154" type="line"/>
			<point x="209" y="-60"/>
			<point x="178" y="43"/>
			<point x="178" y="163" type="curve" smooth="yes"/>
			<point x="178" y="351"/>
			<point x="252" y="538"/>
			<point x="420" y="679" type="curve"/>
			<point x="393" y="715" type="line"/>
			<point x="184" y="589"/>
			<point x="66" y="395"/>
			<point x="66" y="184" type="curve" smooth="yes"/>
			<point x="66" y="31"/>
			<point x="133" y="-90"/>
		</contour>
	</outline>
</glyph>
<glyph name="asterisk" format="2">
	<unicode hex="002A"/>
	<advance width="457"/>
	<outline>
		<contour>
			<point x="210" y="686" type="curve" smooth="yes"/>
			<point x="210" y="664"/>
			<point x="228" y="624"/>
			<point x="287" y="512" type="curve"/>
			<point x="295" y="512" type="line"/>
			<point x="307" y="628"/>
			<point x="312" y="667"/>
			<point x="308" y="688" type="curve" smooth="yes"/>
			<point x="305" y="718"/>
			<point x="288" y="736"/>
			<point x="259" y="736" type="curve" smooth="yes"/>
			<point x="225" y="736"/>
			<point x="210" y="711"/>
		</contour>
		<contour>
			<point x="81" y="551" type="curve" smooth="yes"/>
			<point x="81" y="495"/>
			<point x="142" y="492"/>
			<point x="301" y="525" type="curve"/>
			<point x="303" y="532" type="line"/>
			<point x="190" y="584"/>
			<point x="155" y="600"/>
			<point x="129" y="600" type="curve" smooth="yes"/>
			<point x="104" y="600"/>
			<point x="81" y="581"/>
		</contour>
		<contour>
			<point x="169" y="383" type="curve" smooth="yes"/>
			<point x="169" y="357"/>
			<point x="192" y="338"/>
			<point x="218" y="338" type="curve" smooth="yes"/>
			<point x="259" y="338"/>
			<point x="277" y="387"/>
			<point x="298" y="543" type="curve"/>
			<point x="291" y="546" type="line"/>
			<point x="197" y="444"/>
			<point x="169" y="413"/>
		</contour>
		<contour>
			<point x="273" y="540" type="line"/>
			<point x="344" y="410"/>
			<point x="370" y="370"/>
			<point x="406" y="371" type="curve" smooth="yes"/>
			<point x="434" y="371"/>
			<point x="453" y="399"/>
			<point x="452" y="421" type="curve" smooth="yes"/>
			<point x="451" y="455"/>
			<point x="415" y="479"/>
			<point x="277" y="543" type="curve"/>
		</contour>
		<contour>
			<point x="428" y="655" type="curve" smooth="yes"/>
			<point x="402" y="655"/>
			<point x="368" y="626"/>
			<point x="272" y="523" type="curve"/>
			<point x="274" y="518" type="line"/>
			<point x="423" y="546"/>
			<point x="477" y="565"/>
			<point x="477" y="603" type="curve" smooth="yes"/>
			<point x="477" y="638"/>
			<point x="454" y="655"/>
		</contour>
	</outline>
</glyph>
<glyph name="plus" format="2">
	<unicode hex="002B"/>
	<advance width="534"/>
	<outline>
		<contour>
			<point x="234" y="85" type="line"/>
			<point x="308" y="85" type="line"/>
			<point x="308" y="555" type="line"/>
			<point x="234" y="555" type="line"/>
		</contour>
		<contour>
			<point x="496" y="287" type="line"/>
			<point x="496" y="358" type="line"/>
			<point x="45" y="358" type="line"/>
			<point x="45" y="287" type="line"/>
		</contour>
	</outline>
</glyph>
<glyph name="comma" format="2">
	<unicode hex="002C"/>
	<advance width="295"/>
	<outline>
		<contour>
			<point x="15" y="-161" type="line"/>
			<point x="122" y="-115"/>
			<point x="190" y="-43"/>
			<point x="190" y="80" type="curve" smooth="yes"/>
			<point x="190" y="96"/>
			<point x="187" y="108"/>
			<point x="183" y="123" type="curve"/>
			<point x="165" y="141"/>
			<point x="146" y="149"/>
			<point x="118" y="149" type="curve" smooth="yes"/>
			<point x="68" y="149"/>
			<point x="31" y="112"/>
			<point x="31" y="64" type="curve" smooth="yes"/>
			<point x="31" y="32"/>
			<point x="50" y="7"/>
			<point x="83" y="-9" type="curve" smooth="yes"/>
			<point x="130" y="-32" type="line"/>
			<point x="119" y="1" type="line"/>
			<point x="93" y="-61"/>
			<point x="60" y="-89"/>
			<point x="-4" y="-123" type="curve"/>
		</contour>
	</outline>
</glyph>
<glyph name="hyphen" format="2">
	<unicode hex="002D"/>
	<unicode hex="00AD"/>
	<unicode hex="2010"/>
	<advance width="335"/>
	<outline>
		<contour>
			<point x="37" y="225" type="line"/>
			<point x="290" y="225" type="line"/>
			<point x="290" y="301" type="line"/>
			<point x="37" y="301" type="line"/>
		</contour>
	</outline>
</glyph>
<glyph name="period" format="2">
	<unicode hex="002E"/>
	<advance width="296"/>
	<outline>
		<contour>
			<point x="106" y="-14" type="curve" smooth="yes"/>
			<point x="155" y="-14"/>
			<point x="198" y="25"/>
			<point x="198" y="77" type="curve" smooth="yes"/>
			<point x="198" y="117"/>
			<point x="167" y="152"/>
			<point x="121" y="152" type="curve" smooth="yes"/>
			<point x="72" y="152"/>
			<point x="28" y="112"/>
			<point x="28" y="61" type="curve" smooth="yes"/>
			<point x="28" y="21"/>
			<point x="60" y="-14"/>
		</contour>
	</outline>
</glyph>
<glyph name="slash" format="2">
	<unicode hex="002F"/>
	<advance width="374"/>
	<outline>
		<contour>
			<point x="-90" y="-160" type="line"/>
			<point x="6" y="-160" type="line"/>
			<point x="445" y="709" type="line"/>
			<point x="349" y="709" type="line"/>
		</contour>
	</outline>
</glyph>
<glyph name="one" format="2">
	<unicode hex="0031"/>
	<advance width="536"/>
	<outline>
		<contour>
			<point x="150" y="0" type="line"/>
			<point x="291" y="0" type="line"/>
			<point x="301" y="63"/>
			<point x="316" y="140"/>
			<point x="330" y="208" type="curve" smooth="yes"/>
			<point x="385" y="475" type="line"/>
			<point x="421" y="634" type="line"/>
			<point x="410" y="644" type="line"/>
			<point x="160" y="583" type="line"/>
			<point x="152" y="545" type="line"/>
			<point x="292" y="553" type="line"/>
			<point x="268" y="581" type="line"/>
		</contour>
		<contour>
			<point x="35" y="0" type="line"/>
			<point x="412" y="0" type="line"/>
			<point x="420" y="40" type="line"/>
			<point x="269" y="59" type="line"/>
			<point x="198" y="59" type="line"/>
			<point x="43" y="40" type="line"/>
		</contour>
	</outline>
</glyph>
<glyph name="less" format="2">
	<unicode hex="003C"/>
	<advance width="534"/>
	<outline>
		<contour>
			<point x="53" y="295" type="line"/>
			<point x="448" y="83" type="line"/>
			<point x="483" y="152" type="line"/>
			<point x="101" y="348" type="line"/>
			<point x="101" y="300" type="line"/>
			<point x="483" y="494" type="line"/>
			<point x="448" y="563" type="line"/>
			<point x="53" y="352" type="line"/>
		</contour>
	</outline>
</glyph>
<glyph name="question" format="2">
	<unicode hex="003F"/>
	<advance width="451"/>
	<outline>
		<contour>
			<point x="107" y="196" type="curve"/>
			<point x="148" y="190" type="line"/>
			<point x="154" y="232"/>
			<point x="161" y="251"/>
			<point x="179" y="269" type="curve" smooth="yes"/>
			<point x="202" y="290"/>
			<point x="242" y="313"/>
			<point x="339" y="363" type="curve" smooth="yes"/>
			<point x="428" y="409"/>
			<point x="468" y="463"/>
			<point x="468" y="540" type="curve" smooth="yes"/>
			<point x="468" y="631"/>
			<point x="384" y="675"/>
			<point x="285" y="675" type="curve" smooth="yes"/>
			<point x="185" y="675"/>
			<point x="119" y="629"/>
			<point x="103" y="563" type="curve"/>
			<point x="105" y="531"/>
			<point x="128" y="509"/>
			<point x="157" y="509" type="curve" smooth="yes"/>
			<point x="191" y="509"/>
			<point x="218" y="524"/>
			<point x="231" y="566" type="curve" smooth="yes"/>
			<point x="257" y="649" type="line"/>
			<point x="200" y="623" type="line"/>
			<point x="221" y="630"/>
			<point x="245" y="634"/>
			<point x="272" y="634" type="curve" smooth="yes"/>
			<point x="334" y="634"/>
			<point x="363" y="608"/>
			<point x="363" y="566" type="curve" smooth="yes"/>
			<point x="363" y="527"/>
			<point x="337" y="499"/>
			<point x="257" y="457" type="curve" smooth="yes"/>
			<point x="182" y="417"/>
			<point x="154" y="396"/>
			<point x="132" y="364" type="curve" smooth="yes"/>
			<point x="104" y="322"/>
			<point x="102" y="280"/>
		</contour>
		<contour>
			<point x="39" y="54" type="curve" smooth="yes"/>
			<point x="39" y="17"/>
			<point x="67" y="-14"/>
			<point x="108" y="-14" type="curve" smooth="yes"/>
			<point x="152" y="-14"/>
			<point x="191" y="22"/>
			<point x="191" y="67" type="curve" smooth="yes"/>
			<point x="191" y="105"/>
			<point x="163" y="137"/>
			<point x="122" y="137" type="curve" smooth="yes"/>
			<point x="79" y="137"/>
			<point x="39" y="100"/>
		</contour>
	</outline>
</glyph>
<glyph name="at" format="2">
	<unicode hex="0040"/>
	<advance width="856"/>
	<outline>
		<contour>
			<point x="308" y="39" type="curve" smooth="yes"/>
			<point x="371" y="39"/>
			<point x="437" y="95"/>
			<point x="490" y="160" type="curve"/>
			<point x="502" y="160" type="line"/>
			<point x="485" y="194" type="line"/>
			<point x="444" y="146"/>
			<point x="414" y="125"/>
			<point x="386" y="125" type="curve" smooth="yes"/>
			<point x="355" y="125"/>
			<point x="339" y="149"/>
			<point x="339" y="202" type="curve" smooth="yes"/>
			<point x="339" y="315"/>
			<point x="405" y="432"/>
			<point x="471" y="432" type="curve" smooth="yes"/>
			<point x="498" y="432"/>
			<point x="520" y="420"/>
			<point x="539" y="402" type="curve"/>
			<point x="602" y="443" type="line"/>
			<point x="575" y="476"/>
			<point x="546" y="494"/>
			<point x="506" y="494" type="curve" smooth="yes"/>
			<point x="379" y="494"/>
			<point x="213" y="321"/>
			<point x="213" y="157" type="curve" smooth="yes"/>
			<point x="213" y="72"/>
			<point x="259" y="39"/>
		</contour>
		<contour>
			<point x="568" y="39" type="curve" smooth="yes"/>
			<point x="682" y="39"/>
			<point x="829" y="161"/>
			<point x="829" y="356" type="curve" smooth="yes"/>
			<point x="829" y="519"/>
			<point x="725" y="654"/>
			<point x="514" y="654" type="curve" smooth="yes"/>
			<point x="218" y="654"/>
			<point x="35" y="417"/>
			<point x="35" y="170" type="curve" smooth="yes"/>
			<point x="35" y="-18"/>
			<point x="155" y="-153"/>
			<point x="366" y="-153" type="curve" smooth="yes"/>
			<point x="437" y="-153"/>
			<point x="504" y="-136"/>
			<point x="564" y="-109" type="curve"/>
			<point x="553" y="-71" type="line"/>
			<point x="497" y="-90"/>
			<point x="446" y="-99"/>
			<point x="388" y="-99" type="curve" smooth="yes"/>
			<point x="216" y="-99"/>
			<point x="107" y="2"/>
			<point x="107" y="182" type="curve" smooth="yes"/>
			<point x="107" y="405"/>
			<point x="260" y="610"/>
			<point x="506" y="610" type="curve" smooth="yes"/>
			<point x="672" y="610"/>
			<point x="763" y="514"/>
			<point x="763" y="355" type="curve" smooth="yes"/>
			<point x="763" y="197"/>
			<point x="670" y="107"/>
			<point x="619" y="107" type="curve" smooth="yes"/>
			<point x="586" y="107"/>
			<point x="575" y="126"/>
			<point x="587" y="180" type="curve" smooth="yes"/>
			<point x="655" y="486" type="line"/>
			<point x="642" y="497" type="line"/>
			<point x="521" y="438" type="line"/>
			<point x="461" y="163" type="line" smooth="yes"/>
			<point x="446" y="93"/>
			<point x="486" y="39"/>
		</contour>
	</outline>
</glyph>
<glyph name="A" format="2">
	<unicode hex="0041"/>
	<advance width="661"/>
	<outline>
		<contour>
			<point x="-43" y="0" type="line"/>
			<point x="166" y="0" type="line"/>
			<point x="175" y="44" type="line"/>
			<point x="86" y="58" type="line"/>
			<point x="61" y="58" type="line"/>
			<point x="-34" y="44" type="line"/>
		</contour>
		<contour>
			<point x="17" y="0" type="line"/>
			<point x="68" y="0" type="line"/>
			<point x="336" y="534" type="line"/>
			<point x="341" y="543" type="line"/>
			<point x="327" y="543" type="line"/>
			<point x="401" y="0" type="line"/>
			<point x="546" y="0" type="line"/>
			<point x="445" y="658" type="line"/>
			<point x="357" y="658" type="line"/>
		</contour>
		<contour>
			<point x="159" y="204" type="line"/>
			<point x="441" y="204" type="line"/>
			<point x="437" y="252" type="line"/>
			<point x="175" y="252" type="line"/>
		</contour>
		<contour>
			<point x="305" y="0" type="line"/>
			<point x="602" y="0" type="line"/>
			<point x="611" y="44" type="line"/>
			<point x="492" y="59" type="line"/>
			<point x="449" y="59" type="line"/>
			<point x="314" y="44" type="line"/>
		</contour>
	</outline>
	<anchor name="aboveUC" x="398" y="677"/>
	<anchor name="belowLC" x="239" y="-20"/>
	<anchor name="ogonek" x="487" y="0"/>
</glyph>
<glyph name="B" format="2">
	<unicode hex="0042"/>
	<advance width="612"/>
	<outline>
		<contour>
			<point x="-18" y="0" type="line"/>
			<point x="139" y="0" type="line"/>
			<point x="149" y="60" type="line"/>
			<point x="121" y="60" type="line"/>
			<point x="-9" y="45" type="line"/>
		</contour>
		<contour>
			<point x="56" y="0" type="line"/>
			<point x="205" y="0" type="line"/>
			<point x="221" y="103"/>
			<point x="239" y="207"/>
			<point x="259" y="311" type="curve" smooth="yes"/>
			<point x="325" y="657" type="line"/>
			<point x="175" y="657" type="line"/>
			<point x="159" y="554"/>
			<point x="141" y="450"/>
			<point x="122" y="347" type="curve" smooth="yes"/>
		</contour>
		<contour>
			<point x="94" y="612" type="line"/>
			<point x="220" y="597" type="line"/>
			<point x="249" y="597" type="line"/>
			<point x="259" y="657" type="line"/>
			<point x="103" y="657" type="line"/>
		</contour>
		<contour>
			<point x="128" y="0" type="line"/>
			<point x="273" y="0" type="line" smooth="yes"/>
			<point x="499" y="0"/>
			<point x="567" y="99"/>
			<point x="567" y="186" type="curve" smooth="yes"/>
			<point x="567" y="277"/>
			<point x="492" y="345"/>
			<point x="350" y="351" type="curve"/>
			<point x="340" y="340" type="line"/>
			<point x="502" y="347"/>
			<point x="580" y="423"/>
			<point x="580" y="512" type="curve" smooth="yes"/>
			<point x="580" y="588"/>
			<point x="526" y="657"/>
			<point x="365" y="657" type="curve" smooth="yes"/>
			<point x="250" y="657" type="line"/>
			<point x="241" y="609" type="line"/>
			<point x="338" y="609" type="line" smooth="yes"/>
			<point x="407" y="609"/>
			<point x="439" y="571"/>
			<point x="439" y="510" type="curve" smooth="yes"/>
			<point x="439" y="417"/>
			<point x="386" y="367"/>
			<point x="297" y="367" type="curve" smooth="yes"/>
			<point x="196" y="367" type="line"/>
			<point x="188" y="321" type="line"/>
			<point x="304" y="321" type="line" smooth="yes"/>
			<point x="378" y="321"/>
			<point x="422" y="278"/>
			<point x="422" y="204" type="curve" smooth="yes"/>
			<point x="422" y="106"/>
			<point x="360" y="48"/>
			<point x="257" y="48" type="curve" smooth="yes"/>
			<point x="138" y="48" type="line"/>
		</contour>
	</outline>
	<anchor name="aboveUC" x="349" y="677"/>
	<anchor name="belowLC" x="260" y="-20"/>
</glyph>
<glyph name="C" format="2">
	<unicode hex="0043"/>
	<advance width="588"/>
	<outline>
		<contour>
			<point x="321" y="-18" type="curve" smooth="yes"/>
			<point x="401" y="-18"/>
			<point x="462" y="2"/>
			<point x="511" y="29" type="curve"/>
			<point x="537" y="188" type="line"/>
			<point x="476" y="188" type="line"/>
			<point x="406" y="20" type="line"/>
			<point x="470" y="67" type="line"/>
			<point x="429" y="44"/>
			<point x="388" y="30"/>
			<point x="345" y="30" type="curve" smooth="yes"/>
			<point x="241" y="30"/>
			<point x="182" y="115"/>
			<point x="182" y="246" type="curve" smooth="yes"/>
			<point x="182" y="436"/>
			<point x="280" y="627"/>
			<point x="428" y="627" type="curve" smooth="yes"/>
			<point x="471" y="627"/>
			<point x="508" y="612"/>
			<point x="544" y="578" type="curve"/>
			<point x="501" y="628" type="line"/>
			<point x="517" y="472" type="line"/>
			<point x="578" y="472" type="line"/>
			<point x="599" y="627" type="line"/>
			<point x="542" y="660"/>
			<point x="484" y="675"/>
			<point x="415" y="675" type="curve" smooth="yes"/>
			<point x="183" y="675"/>
			<point x="32" y="479"/>
			<point x="32" y="255" type="curve" smooth="yes"/>
			<point x="32" y="80"/>
			<point x="151" y="-18"/>
		</contour>
	</outline>
	<anchor name="aboveUC" x="411" y="677"/>
	<anchor name="baseLC" x="324" y="0"/>
	<anchor name="belowLC" x="317" y="-20"/>
</glyph>
<glyph name="D" format="2">
	<unicode hex="0044"/>
	<advance width="667"/>
	<outline>
		<contour>
			<point x="-18" y="0" type="line"/>
			<point x="140" y="0" type="line"/>
			<point x="150" y="59" type="line"/>
			<point x="116" y="59" type="line"/>
			<point x="-8" y="44" type="line"/>
		</contour>
		<contour>
			<point x="56" y="0" type="line"/>
			<point x="205" y="0" type="line"/>
			<point x="221" y="103"/>
			<point x="239" y="207"/>
			<point x="259" y="311" type="curve" smooth="yes"/>
			<point x="325" y="657" type="line"/>
			<point x="175" y="657" type="line"/>
			<point x="159" y="554"/>
			<point x="141" y="450"/>
			<point x="122" y="347" type="curve" smooth="yes"/>
		</contour>
		<contour>
			<point x="94" y="613" type="line"/>
			<point x="223" y="598" type="line"/>
			<point x="250" y="598" type="line"/>
			<point x="260" y="657" type="line"/>
			<point x="103" y="657" type="line"/>
		</contour>
		<contour>
			<point x="135" y="0" type="line"/>
			<point x="253" y="0" type="line" smooth="yes"/>
			<point x="477" y="0"/>
			<point x="652" y="148"/>
			<point x="652" y="384" type="curve" smooth="yes"/>
			<point x="652" y="544"/>
			<point x="548" y="657"/>
			<point x="356" y="657" type="curve" smooth="yes"/>
			<point x="257" y="657" type="line"/>
			<point x="248" y="610" type="line"/>
			<point x="322" y="610" type="line" smooth="yes"/>
			<point x="441" y="610"/>
			<point x="501" y="534"/>
			<point x="501" y="395" type="curve" smooth="yes"/>
			<point x="501" y="199"/>
			<point x="396" y="47"/>
			<point x="246" y="47" type="curve" smooth="yes"/>
			<point x="145" y="47" type="line"/>
		</contour>
	</outline>
	<anchor name="aboveUC" x="371" y="677"/>
	<anchor name="belowLC" x="258" y="-20"/>
</glyph>
<glyph name="E" format="2">
	<unicode hex="0045"/>
	<advance width="568"/>
	<outline>
		<contour>
			<point x="-18" y="0" type="line"/>
			<point x="139" y="0" type="line"/>
			<point x="149" y="59" type="line"/>
			<point x="120" y="59" type="line"/>
			<point x="-8" y="44" type="line"/>
		</contour>
		<contour>
			<point x="56" y="0" type="line"/>
			<point x="205" y="0" type="line"/>
			<point x="221" y="103"/>
			<point x="239" y="207"/>
			<point x="259" y="311" type="curve" smooth="yes"/>
			<point x="325" y="657" type="line"/>
			<point x="175" y="657" type="line"/>
			<point x="159" y="554"/>
			<point x="141" y="450"/>
			<point x="122" y="347" type="curve" smooth="yes"/>
		</contour>
		<contour>
			<point x="94" y="613" type="line"/>
			<point x="220" y="598" type="line"/>
			<point x="249" y="598" type="line"/>
			<point x="259" y="657" type="line"/>
			<point x="103" y="657" type="line"/>
		</contour>
		<contour>
			<point x="127" y="0" type="line"/>
			<point x="482" y="0" type="line"/>
			<point x="522" y="177" type="line"/>
			<point x="460" y="177" type="line"/>
			<point x="387" y="4" type="line"/>
			<point x="455" y="47" type="line"/>
			<point x="136" y="47" type="line"/>
		</contour>
		<contour>
			<point x="186" y="312" type="line"/>
			<point x="391" y="312" type="line"/>
			<point x="400" y="362" type="line"/>
			<point x="196" y="362" type="line"/>
		</contour>
		<contour>
			<point x="236" y="609" type="line"/>
			<point x="526" y="609" type="line"/>
			<point x="476" y="654" type="line"/>
			<point x="487" y="483" type="line"/>
			<point x="548" y="483" type="line"/>
			<point x="572" y="657" type="line"/>
			<point x="245" y="657" type="line"/>
		</contour>
		<contour>
			<point x="372" y="229" type="line"/>
			<point x="417" y="229" type="line"/>
			<point x="457" y="447" type="line"/>
			<point x="413" y="447" type="line"/>
			<point x="373" y="349" type="line"/>
			<point x="370" y="331" type="line"/>
		</contour>
	</outline>
	<anchor name="aboveUC" x="356" y="677"/>
	<anchor name="belowLC" x="249" y="-20"/>
	<anchor name="ogonek" x="393" y="0"/>
</glyph>
<glyph name="F" format="2">
	<unicode hex="0046"/>
	<advance width="539"/>
	<outline>
		<contour>
			<point x="-18" y="0" type="line"/>
			<point x="290" y="0" type="line"/>
			<point x="299" y="44" type="line"/>
			<point x="170" y="59" type="line"/>
			<point x="121" y="59" type="line"/>
			<point x="-8" y="44" type="line"/>
		</contour>
		<contour>
			<point x="56" y="0" type="line"/>
			<point x="205" y="0" type="line"/>
			<point x="221" y="103"/>
			<point x="239" y="207"/>
			<point x="259" y="311" type="curve" smooth="yes"/>
			<point x="325" y="657" type="line"/>
			<point x="175" y="657" type="line"/>
			<point x="159" y="554"/>
			<point x="141" y="450"/>
			<point x="122" y="347" type="curve" smooth="yes"/>
		</contour>
		<contour>
			<point x="94" y="613" type="line"/>
			<point x="220" y="598" type="line"/>
			<point x="249" y="598" type="line"/>
			<point x="261" y="657" type="line"/>
			<point x="103" y="657" type="line"/>
		</contour>
		<contour>
			<point x="186" y="312" type="line"/>
			<point x="391" y="312" type="line"/>
			<point x="400" y="362" type="line"/>
			<point x="196" y="362" type="line"/>
		</contour>
		<contour>
			<point x="236" y="609" type="line"/>
			<point x="531" y="609" type="line"/>
			<point x="480" y="654" type="line"/>
			<point x="491" y="483" type="line"/>
			<point x="553" y="483" type="line"/>
			<point x="578" y="657" type="line"/>
			<point x="245" y="657" type="line"/>
		</contour>
		<contour>
			<point x="370" y="222" type="line"/>
			<point x="415" y="222" type="line"/>
			<point x="457" y="447" type="line"/>
			<point x="412" y="447" type="line"/>
			<point x="372" y="349" type="line"/>
			<point x="368" y="326" type="line"/>
		</contour>
	</outline>
	<anchor name="aboveUC" x="356" y="677"/>
	<anchor name="belowLC" x="135" y="-20"/>
</glyph>
<glyph name="G" format="2">
	<unicode hex="0047"/>
	<advance width="643"/>
	<outline>
		<contour>
			<point x="32" y="254" type="curve" smooth="yes"/>
			<point x="32" y="80"/>
			<point x="148" y="-17"/>
			<point x="329" y="-17" type="curve" smooth="yes"/>
			<point x="405" y="-17"/>
			<point x="460" y="-2"/>
			<point x="518" y="26" type="curve"/>
			<point x="576" y="329" type="line"/>
			<point x="430" y="329" type="line"/>
			<point x="419" y="248"/>
			<point x="405" y="165"/>
			<point x="391" y="83" type="curve" smooth="yes"/>
			<point x="378" y="7" type="line"/>
			<point x="442" y="48" type="line"/>
			<point x="407" y="35"/>
			<point x="381" y="29"/>
			<point x="349" y="29" type="curve" smooth="yes"/>
			<point x="246" y="29"/>
			<point x="183" y="108"/>
			<point x="183" y="246" type="curve" smooth="yes"/>
			<point x="183" y="434"/>
			<point x="281" y="627"/>
			<point x="435" y="627" type="curve" smooth="yes"/>
			<point x="476" y="627"/>
			<point x="516" y="616"/>
			<point x="554" y="588" type="curve"/>
			<point x="504" y="631" type="line"/>
			<point x="523" y="467" type="line"/>
			<point x="583" y="467" type="line"/>
			<point x="606" y="624" type="line"/>
			<point x="552" y="659"/>
			<point x="485" y="675"/>
			<point x="418" y="675" type="curve" smooth="yes"/>
			<point x="187" y="675"/>
			<point x="32" y="482"/>
		</contour>
		<contour>
			<point x="341" y="285" type="line"/>
			<point x="455" y="268" type="line"/>
			<point x="510" y="268" type="line"/>
			<point x="626" y="285" type="line"/>
			<point x="634" y="329" type="line"/>
			<point x="349" y="329" type="line"/>
		</contour>
	</outline>
	<anchor name="aboveUC" x="411" y="677"/>
	<anchor name="belowLC" x="327" y="-20"/>
</glyph>
<glyph name="H" format="2">
	<unicode hex="0048"/>
	<advance width="726"/>
	<outline>
		<contour>
			<point x="-17" y="0" type="line"/>
			<point x="278" y="0" type="line"/>
			<point x="287" y="44" type="line"/>
			<point x="163" y="59" type="line"/>
			<point x="124" y="59" type="line"/>
			<point x="-8" y="44" type="line"/>
		</contour>
		<contour>
			<point x="56" y="0" type="line"/>
			<point x="205" y="0" type="line"/>
			<point x="221" y="103"/>
			<point x="239" y="207"/>
			<point x="259" y="311" type="curve" smooth="yes"/>
			<point x="325" y="657" type="line"/>
			<point x="175" y="657" type="line"/>
			<point x="159" y="554"/>
			<point x="141" y="450"/>
			<point x="122" y="347" type="curve" smooth="yes"/>
		</contour>
		<contour>
			<point x="94" y="613" type="line"/>
			<point x="223" y="598" type="line"/>
			<point x="261" y="598" type="line"/>
			<point x="390" y="613" type="line"/>
			<point x="399" y="657" type="line"/>
			<point x="103" y="657" type="line"/>
		</contour>
		<contour>
			<point x="191" y="312" type="line"/>
			<point x="558" y="312" type="line"/>
			<point x="558" y="362" type="line"/>
			<point x="191" y="362" type="line"/>
		</contour>
		<contour>
			<point x="348" y="0" type="line"/>
			<point x="644" y="0" type="line"/>
			<point x="653" y="44" type="line"/>
			<point x="529" y="59" type="line"/>
			<point x="490" y="59" type="line"/>
			<point x="357" y="44" type="line"/>
		</contour>
		<contour>
			<point x="422" y="0" type="line"/>
			<point x="570" y="0" type="line"/>
			<point x="587" y="103"/>
			<point x="605" y="207"/>
			<point x="624" y="311" type="curve" smooth="yes"/>
			<point x="690" y="657" type="line"/>
			<point x="541" y="657" type="line"/>
			<point x="525" y="554"/>
			<point x="507" y="450"/>
			<point x="487" y="347" type="curve" smooth="yes"/>
		</contour>
		<contour>
			<point x="460" y="613" type="line"/>
			<point x="588" y="598" type="line"/>
			<point x="627" y="598" type="line"/>
			<point x="756" y="613" type="line"/>
			<point x="764" y="657" type="line"/>
			<point x="469" y="657" type="line"/>
		</contour>
	</outline>
	<anchor name="aboveUC" x="429" y="677"/>
	<anchor name="belowLC" x="317" y="-20"/>
</glyph>
<glyph name="I" format="2">
	<unicode hex="0049"/>
	<advance width="360"/>
	<outline>
		<contour>
			<point x="-18" y="0" type="line"/>
			<point x="278" y="0" type="line"/>
			<point x="287" y="44" type="line"/>
			<point x="163" y="59" type="line"/>
			<point x="124" y="59" type="line"/>
			<point x="-8" y="44" type="line"/>
		</contour>
		<contour>
			<point x="56" y="0" type="line"/>
			<point x="205" y="0" type="line"/>
			<point x="221" y="103"/>
			<point x="239" y="207"/>
			<point x="259" y="311" type="curve" smooth="yes"/>
			<point x="325" y="657" type="line"/>
			<point x="175" y="657" type="line"/>
			<point x="159" y="554"/>
			<point x="141" y="450"/>
			<point x="122" y="347" type="curve" smooth="yes"/>
		</contour>
		<contour>
			<point x="94" y="613" type="line"/>
			<point x="223" y="598" type="line"/>
			<point x="261" y="598" type="line"/>
			<point x="390" y="613" type="line"/>
			<point x="399" y="657" type="line"/>
			<point x="103" y="657" type="line"/>
		</contour>
	</outline>
	<anchor name="aboveUC" x="249" y="677"/>
	<anchor name="belowLC" x="133" y="-20"/>
	<anchor name="ogonek" x="190" y="0"/>
</glyph>
<glyph name="J" format="2">
	<unicode hex="004A"/>
	<advance width="355"/>
	<outline>
		<contour>
			<point x="-128" y="-84" type="curve"/>
			<point x="-119" y="-126"/>
			<point x="-77" y="-148"/>
			<point x="-27" y="-148" type="curve" smooth="yes"/>
			<point x="46" y="-148"/>
			<point x="108" y="-107"/>
			<point x="156" y="-36" type="curve" smooth="yes"/>
			<point x="208" y="26"/>
			<point x="231" y="125"/>
			<point x="260" y="265" type="curve" smooth="yes"/>
			<point x="338" y="657" type="line"/>
			<point x="188" y="657" type="line"/>
			<point x="163" y="504"/>
			<point x="137" y="385"/>
			<point x="119" y="279" type="curve" smooth="yes"/>
			<point x="103" y="182"/>
			<point x="94" y="120"/>
			<point x="83" y="55" type="curve" smooth="yes"/>
			<point x="69" y="-25"/>
			<point x="52" y="-72"/>
			<point x="28" y="-101" type="curve"/>
			<point x="27" y="-110" type="line"/>
			<point x="57" y="-110" type="line"/>
			<point x="58" y="-101" type="line"/>
			<point x="3" y="-39"/>
			<point x="-23" y="-26"/>
			<point x="-53" y="-26" type="curve" smooth="yes"/>
			<point x="-92" y="-26"/>
			<point x="-122" y="-49"/>
		</contour>
		<contour>
			<point x="95" y="613" type="line"/>
			<point x="223" y="598" type="line"/>
			<point x="268" y="598" type="line"/>
			<point x="401" y="613" type="line"/>
			<point x="410" y="657" type="line"/>
			<point x="104" y="657" type="line"/>
		</contour>
	</outline>
	<anchor name="aboveUC" x="258" y="677"/>
	<anchor name="belowLC" x="51" y="-163"/>
</glyph>
<glyph name="K" format="2">
	<unicode hex="004B"/>
	<advance width="668"/>
	<outline>
		<contour>
			<point x="-19" y="0" type="line"/>
			<point x="263" y="0" type="line"/>
			<point x="272" y="44" type="line"/>
			<point x="157" y="59" type="line"/>
			<point x="119" y="59" type="line"/>
			<point x="-10" y="44" type="line"/>
		</contour>
		<contour>
			<point x="52" y="0" type="line"/>
			<point x="201" y="0" type="line"/>
			<point x="217" y="103"/>
			<point x="235" y="207"/>
			<point x="255" y="311" type="curve" smooth="yes"/>
			<point x="321" y="657" type="line"/>
			<point x="171" y="657" type="line"/>
			<point x="155" y="554"/>
			<point x="137" y="450"/>
			<point x="118" y="347" type="curve" smooth="yes"/>
		</contour>
		<contour>
			<point x="93" y="613" type="line"/>
			<point x="217" y="598" type="line"/>
			<point x="256" y="598" type="line"/>
			<point x="382" y="613" type="line"/>
			<point x="391" y="657" type="line"/>
			<point x="102" y="657" type="line"/>
		</contour>
		<contour>
			<point x="154" y="162" type="line"/>
			<point x="662" y="657" type="line"/>
			<point x="600" y="657" type="line"/>
			<point x="204" y="261" type="line"/>
			<point x="171" y="229" type="line"/>
			<point x="152" y="229" type="line"/>
		</contour>
		<contour>
			<point x="438" y="0" type="line"/>
			<point x="599" y="0" type="line"/>
			<point x="401" y="428" type="line"/>
			<point x="297" y="322" type="line"/>
		</contour>
		<contour>
			<point x="356" y="0" type="line"/>
			<point x="627" y="0" type="line"/>
			<point x="636" y="44" type="line"/>
			<point x="520" y="59" type="line"/>
			<point x="485" y="59" type="line"/>
			<point x="364" y="44" type="line"/>
		</contour>
		<contour>
			<point x="478" y="613" type="line"/>
			<point x="562" y="598" type="line"/>
			<point x="585" y="598" type="line"/>
			<point x="694" y="613" type="line"/>
			<point x="703" y="657" type="line"/>
			<point x="487" y="657" type="line"/>
		</contour>
	</outline>
	<anchor name="aboveUC" x="428" y="677"/>
	<anchor name="belowLC" x="307" y="-20"/>
</glyph>
<glyph name="L" format="2">
	<unicode hex="004C"/>
	<advance width="547"/>
	<outline>
		<contour>
			<point x="-18" y="0" type="line"/>
			<point x="139" y="0" type="line"/>
			<point x="149" y="59" type="line"/>
			<point x="120" y="59" type="line"/>
			<point x="-8" y="44" type="line"/>
		</contour>
		<contour>
			<point x="56" y="0" type="line"/>
			<point x="205" y="0" type="line"/>
			<point x="221" y="103"/>
			<point x="239" y="207"/>
			<point x="259" y="311" type="curve" smooth="yes"/>
			<point x="325" y="657" type="line"/>
			<point x="175" y="657" type="line"/>
			<point x="159" y="554"/>
			<point x="141" y="450"/>
			<point x="122" y="347" type="curve" smooth="yes"/>
		</contour>
		<contour>
			<point x="94" y="613" type="line"/>
			<point x="220" y="598" type="line"/>
			<point x="264" y="598" type="line"/>
			<point x="396" y="613" type="line"/>
			<point x="405" y="657" type="line"/>
			<point x="103" y="657" type="line"/>
		</contour>
		<contour>
			<point x="127" y="0" type="line"/>
			<point x="468" y="0" type="line"/>
			<point x="510" y="194" type="line"/>
			<point x="450" y="194" type="line"/>
			<point x="369" y="4" type="line"/>
			<point x="440" y="48" type="line"/>
			<point x="136" y="48" type="line"/>
		</contour>
	</outline>
	<anchor name="aboveUC" x="252" y="677"/>
	<anchor name="belowLC" x="240" y="-20"/>
</glyph>
<glyph name="M" format="2">
	<unicode hex="004D"/>
	<advance width="874"/>
	<outline>
		<contour>
			<point x="-31" y="0" type="line"/>
			<point x="192" y="0" type="line"/>
			<point x="201" y="44" type="line"/>
			<point x="106" y="58" type="line"/>
			<point x="74" y="58" type="line"/>
			<point x="-22" y="44" type="line"/>
		</contour>
		<contour>
			<point x="56" y="0" type="line"/>
			<point x="103" y="0" type="line"/>
			<point x="173" y="311" type="line"/>
			<point x="249" y="651" type="line"/>
			<point x="204" y="651" type="line"/>
		</contour>
		<contour>
			<point x="317" y="0" type="line"/>
			<point x="369" y="0" type="line"/>
			<point x="681" y="562" type="line"/>
			<point x="693" y="584" type="line"/>
			<point x="726" y="584" type="line"/>
			<point x="726" y="657" type="line"/>
			<point x="680" y="657" type="line"/>
			<point x="414" y="178" type="line"/>
			<point x="405" y="162" type="line"/>
			<point x="430" y="162" type="line"/>
			<point x="339" y="657" type="line"/>
			<point x="126" y="657" type="line"/>
			<point x="117" y="613" type="line"/>
			<point x="201" y="603" type="line"/>
			<point x="207" y="569" type="line"/>
			<point x="210" y="552" type="line"/>
		</contour>
		<contour>
			<point x="502" y="0" type="line"/>
			<point x="796" y="0" type="line"/>
			<point x="804" y="44" type="line"/>
			<point x="677" y="59" type="line"/>
			<point x="639" y="59" type="line"/>
			<point x="510" y="44" type="line"/>
		</contour>
		<contour>
			<point x="576" y="0" type="line"/>
			<point x="724" y="0" type="line"/>
			<point x="737" y="103"/>
			<point x="751" y="208"/>
			<point x="766" y="311" type="curve" smooth="yes"/>
			<point x="819" y="657" type="line"/>
			<point x="705" y="657" type="line"/>
			<point x="662" y="578" type="line"/>
		</contour>
		<contour>
			<point x="720" y="598" type="line"/>
			<point x="762" y="598" type="line"/>
			<point x="888" y="613" type="line"/>
			<point x="897" y="657" type="line"/>
			<point x="730" y="657" type="line"/>
		</contour>
	</outline>
	<anchor name="aboveUC" x="505" y="677"/>
	<anchor name="belowLC" x="345" y="-20"/>
</glyph>
<glyph name="N" format="2">
	<unicode hex="004E"/>
	<advance width="672"/>
	<outline>
		<contour>
			<point x="-26" y="0" type="line"/>
			<point x="206" y="0" type="line"/>
			<point x="214" y="44" type="line"/>
			<point x="104" y="58" type="line"/>
			<point x="78" y="58" type="line"/>
			<point x="-18" y="44" type="line"/>
		</contour>
		<contour>
			<point x="52" y="0" type="line"/>
			<point x="104" y="0" type="line"/>
			<point x="166" y="328" type="line"/>
			<point x="226" y="646" type="line"/>
			<point x="174" y="646" type="line"/>
		</contour>
		<contour>
			<point x="482" y="613" type="line"/>
			<point x="599" y="599" type="line"/>
			<point x="625" y="599" type="line"/>
			<point x="715" y="613" type="line"/>
			<point x="723" y="657" type="line"/>
			<point x="491" y="657" type="line"/>
		</contour>
		<contour>
			<point x="548" y="172" type="line"/>
			<point x="531" y="172" type="line"/>
			<point x="290" y="657" type="line"/>
			<point x="97" y="657" type="line"/>
			<point x="88" y="612" type="line"/>
			<point x="152" y="606" type="line"/>
			<point x="175" y="559" type="line"/>
			<point x="179" y="550" type="line"/>
			<point x="453" y="-3" type="line"/>
			<point x="525" y="-3" type="line"/>
			<point x="648" y="657" type="line"/>
			<point x="596" y="657" type="line"/>
			<point x="534" y="328" type="line"/>
			<point x="494" y="112" type="line"/>
		</contour>
	</outline>
	<anchor name="aboveUC" x="399" y="677"/>
	<anchor name="belowLC" x="296" y="-20"/>
</glyph>
<glyph name="O" format="2">
	<unicode hex="004F"/>
	<advance width="654"/>
	<outline>
		<contour>
			<point x="277" y="-18" type="curve" smooth="yes"/>
			<point x="505" y="-18"/>
			<point x="643" y="188"/>
			<point x="643" y="410" type="curve" smooth="yes"/>
			<point x="643" y="579"/>
			<point x="541" y="675"/>
			<point x="397" y="675" type="curve" smooth="yes"/>
			<point x="169" y="675"/>
			<point x="32" y="466"/>
			<point x="32" y="249" type="curve" smooth="yes"/>
			<point x="32" y="69"/>
			<point x="137" y="-18"/>
		</contour>
		<contour>
			<point x="284" y="30" type="curve" smooth="yes"/>
			<point x="210" y="30"/>
			<point x="180" y="93"/>
			<point x="180" y="209" type="curve" smooth="yes"/>
			<point x="180" y="413"/>
			<point x="271" y="627"/>
			<point x="391" y="627" type="curve" smooth="yes"/>
			<point x="466" y="627"/>
			<point x="494" y="565"/>
			<point x="494" y="452" type="curve" smooth="yes"/>
			<point x="494" y="248"/>
			<point x="404" y="30"/>
		</contour>
	</outline>
	<anchor name="aboveUC" x="394" y="677"/>
	<anchor name="belowLC" x="283" y="-20"/>
	<anchor name="hornLC" x="535" y="559"/>
	<anchor name="ogonek" x="380" y="0"/>
</glyph>
<glyph name="P" format="2">
	<unicode hex="0050"/>
	<advance width="574"/>
	<outline>
		<contour>
			<point x="-18" y="0" type="line"/>
			<point x="290" y="0" type="line"/>
			<point x="299" y="44" type="line"/>
			<point x="170" y="59" type="line"/>
			<point x="121" y="59" type="line"/>
			<point x="-8" y="44" type="line"/>
		</contour>
		<contour>
			<point x="56" y="0" type="line"/>
			<point x="205" y="0" type="line"/>
			<point x="221" y="103"/>
			<point x="239" y="207"/>
			<point x="259" y="311" type="curve" smooth="yes"/>
			<point x="325" y="657" type="line"/>
			<point x="175" y="657" type="line"/>
			<point x="159" y="554"/>
			<point x="141" y="450"/>
			<point x="122" y="347" type="curve" smooth="yes"/>
		</contour>
		<contour>
			<point x="94" y="613" type="line"/>
			<point x="220" y="598" type="line"/>
			<point x="250" y="598" type="line"/>
			<point x="260" y="657" type="line"/>
			<point x="103" y="657" type="line"/>
		</contour>
		<contour>
			<point x="170" y="258" type="line"/>
			<point x="282" y="258" type="line" smooth="yes"/>
			<point x="493" y="258"/>
			<point x="588" y="363"/>
			<point x="588" y="483" type="curve" smooth="yes"/>
			<point x="588" y="588"/>
			<point x="515" y="657"/>
			<point x="343" y="657" type="curve" smooth="yes"/>
			<point x="245" y="657" type="line"/>
			<point x="235" y="609" type="line"/>
			<point x="335" y="609" type="line" smooth="yes"/>
			<point x="405" y="609"/>
			<point x="444" y="564"/>
			<point x="444" y="491" type="curve" smooth="yes"/>
			<point x="444" y="376"/>
			<point x="376" y="305"/>
			<point x="286" y="305" type="curve" smooth="yes"/>
			<point x="179" y="305" type="line"/>
		</contour>
	</outline>
	<anchor name="aboveUC" x="342" y="677"/>
	<anchor name="belowLC" x="136" y="-20"/>
</glyph>
<glyph name="Q" format="2">
	<unicode hex="0051"/>
	<advance width="654"/>
	<outline>
		<contour>
			<point x="429" y="-239" type="curve" smooth="yes"/>
			<point x="507" y="-239"/>
			<point x="562" y="-210"/>
			<point x="603" y="-177" type="curve"/>
			<point x="587" y="-141" type="line"/>
			<point x="552" y="-156"/>
			<point x="522" y="-163"/>
			<point x="478" y="-163" type="curve" smooth="yes"/>
			<point x="370" y="-163"/>
			<point x="321" y="-102"/>
			<point x="332" y="23" type="curve"/>
			<point x="207" y="23" type="line"/>
			<point x="188" y="-146"/>
			<point x="272" y="-239"/>
		</contour>
		<component base="O"/>
	</outline>
	<anchor name="aboveUC" x="394" y="677"/>
</glyph>
<glyph name="R" format="2">
	<unicode hex="0052"/>
	<advance width="653"/>
	<outline>
		<contour>
			<point x="-18" y="0" type="line"/>
			<point x="280" y="0" type="line"/>
			<point x="289" y="44" type="line"/>
			<point x="161" y="59" type="line"/>
			<point x="121" y="59" type="line"/>
			<point x="-8" y="44" type="line"/>
		</contour>
		<contour>
			<point x="56" y="0" type="line"/>
			<point x="205" y="0" type="line"/>
			<point x="221" y="103"/>
			<point x="239" y="207"/>
			<point x="259" y="311" type="curve" smooth="yes"/>
			<point x="325" y="657" type="line"/>
			<point x="175" y="657" type="line"/>
			<point x="159" y="554"/>
			<point x="141" y="450"/>
			<point x="122" y="347" type="curve" smooth="yes"/>
		</contour>
		<contour>
			<point x="94" y="613" type="line"/>
			<point x="220" y="598" type="line"/>
			<point x="248" y="598" type="line"/>
			<point x="251" y="657" type="line"/>
			<point x="103" y="657" type="line"/>
		</contour>
		<contour>
			<point x="519" y="-13" type="curve" smooth="yes"/>
			<point x="555" y="-13"/>
			<point x="573" y="-10"/>
			<point x="613" y="0" type="curve"/>
			<point x="621" y="44" type="line"/>
			<point x="477" y="63" type="line"/>
			<point x="558" y="17" type="line"/>
			<point x="518" y="173" type="line" smooth="yes"/>
			<point x="493" y="275"/>
			<point x="474" y="320"/>
			<point x="327" y="336" type="curve"/>
			<point x="328" y="318" type="line"/>
			<point x="505" y="329"/>
			<point x="597" y="411"/>
			<point x="597" y="507" type="curve" smooth="yes"/>
			<point x="597" y="596"/>
			<point x="530" y="657"/>
			<point x="396" y="657" type="curve" smooth="yes"/>
			<point x="249" y="657" type="line"/>
			<point x="246" y="609" type="line"/>
			<point x="355" y="609" type="line" smooth="yes"/>
			<point x="420" y="609"/>
			<point x="456" y="572"/>
			<point x="456" y="511" type="curve" smooth="yes"/>
			<point x="456" y="425"/>
			<point x="411" y="354"/>
			<point x="305" y="353" type="curve" smooth="yes"/>
			<point x="193" y="351" type="line"/>
			<point x="184" y="304" type="line"/>
			<point x="273" y="304" type="line" smooth="yes"/>
			<point x="333" y="304"/>
			<point x="350" y="277"/>
			<point x="364" y="206" type="curve" smooth="yes"/>
			<point x="389" y="87" type="line" smooth="yes"/>
			<point x="403" y="12"/>
			<point x="440" y="-13"/>
		</contour>
	</outline>
	<anchor name="aboveUC" x="354" y="677"/>
	<anchor name="belowLC" x="318" y="-20"/>
</glyph>
<glyph name="S" format="2">
	<unicode hex="0053"/>
	<advance width="489"/>
	<outline>
		<contour>
			<point x="7" y="33" type="line"/>
			<point x="55" y="0"/>
			<point x="124" y="-18"/>
			<point x="192" y="-18" type="curve" smooth="yes"/>
			<point x="342" y="-18"/>
			<point x="444" y="62"/>
			<point x="444" y="190" type="curve" smooth="yes"/>
			<point x="444" y="272"/>
			<point x="399" y="328"/>
			<point x="307" y="394" type="curve" smooth="yes"/>
			<point x="240" y="442"/>
			<point x="211" y="477"/>
			<point x="211" y="523" type="curve" smooth="yes"/>
			<point x="211" y="587"/>
			<point x="264" y="625"/>
			<point x="331" y="625" type="curve" smooth="yes"/>
			<point x="370" y="625"/>
			<point x="402" y="615"/>
			<point x="439" y="588" type="curve"/>
			<point x="391" y="636" type="line"/>
			<point x="407" y="482" type="line"/>
			<point x="474" y="482" type="line"/>
			<point x="496" y="624" type="line"/>
			<point x="451" y="657"/>
			<point x="382" y="675"/>
			<point x="315" y="675" type="curve" smooth="yes"/>
			<point x="176" y="675"/>
			<point x="81" y="594"/>
			<point x="81" y="474" type="curve" smooth="yes"/>
			<point x="81" y="401"/>
			<point x="117" y="340"/>
			<point x="208" y="274" type="curve" smooth="yes"/>
			<point x="280" y="220"/>
			<point x="308" y="182"/>
			<point x="308" y="135" type="curve" smooth="yes"/>
			<point x="308" y="72"/>
			<point x="259" y="32"/>
			<point x="186" y="32" type="curve" smooth="yes"/>
			<point x="145" y="32"/>
			<point x="96" y="45"/>
			<point x="58" y="65" type="curve"/>
			<point x="113" y="17" type="line"/>
			<point x="95" y="184" type="line"/>
			<point x="29" y="184" type="line"/>
		</contour>
	</outline>
	<anchor name="aboveUC" x="318" y="677"/>
	<anchor name="baseLC" x="198" y="0"/>
	<anchor name="belowLC" x="205" y="-20"/>
</glyph>
<glyph name="T" format="2">
	<unicode hex="0054"/>
	<advance width="596"/>
	<outline>
		<contour>
			<point x="59" y="470" type="line"/>
			<point x="121" y="470" type="line"/>
			<point x="194" y="654" type="line"/>
			<point x="126" y="609" type="line"/>
			<point x="596" y="609" type="line"/>
			<point x="546" y="654" type="line"/>
			<point x="553" y="470" type="line"/>
			<point x="614" y="470" type="line"/>
			<point x="644" y="657" type="line"/>
			<point x="97" y="657" type="line"/>
		</contour>
		<contour>
			<point x="91" y="0" type="line"/>
			<point x="407" y="0" type="line"/>
			<point x="416" y="44" type="line"/>
			<point x="284" y="59" type="line"/>
			<point x="235" y="59" type="line"/>
			<point x="100" y="44" type="line"/>
		</contour>
		<contour>
			<point x="176" y="0" type="line"/>
			<point x="324" y="0" type="line"/>
			<point x="340" y="103"/>
			<point x="359" y="207"/>
			<point x="378" y="311" type="curve" smooth="yes"/>
			<point x="444" y="657" type="line"/>
			<point x="296" y="657" type="line"/>
			<point x="279" y="554"/>
			<point x="261" y="450"/>
			<point x="241" y="347" type="curve" smooth="yes"/>
		</contour>
	</outline>
	<anchor name="aboveUC" x="368" y="677"/>
	<anchor name="baseLC" x="250" y="0"/>
	<anchor name="belowLC" x="254" y="-20"/>
</glyph>
<glyph name="U" format="2">
	<unicode hex="0055"/>
	<advance width="663"/>
	<outline>
		<contour>
			<point x="207" y="598" type="line"/>
			<point x="245" y="598" type="line"/>
			<point x="377" y="613" type="line"/>
			<point x="385" y="657" type="line"/>
			<point x="89" y="657" type="line"/>
			<point x="81" y="613" type="line"/>
		</contour>
		<contour>
			<point x="298" y="-18" type="curve" smooth="yes"/>
			<point x="443" y="-18"/>
			<point x="536" y="62"/>
			<point x="574" y="264" type="curve" smooth="yes"/>
			<point x="647" y="657" type="line"/>
			<point x="593" y="657" type="line"/>
			<point x="519" y="264" type="line" smooth="yes"/>
			<point x="491" y="115"/>
			<point x="436" y="64"/>
			<point x="351" y="64" type="curve" smooth="yes"/>
			<point x="274" y="64"/>
			<point x="232" y="105"/>
			<point x="232" y="186" type="curve" smooth="yes"/>
			<point x="232" y="215"/>
			<point x="236" y="245"/>
			<point x="242" y="278" type="curve" smooth="yes"/>
			<point x="313" y="657" type="line"/>
			<point x="157" y="657" type="line"/>
			<point x="142" y="556"/>
			<point x="123" y="454"/>
			<point x="105" y="352" type="curve" smooth="yes"/>
			<point x="90" y="270" type="line" smooth="yes"/>
			<point x="84" y="237"/>
			<point x="80" y="205"/>
			<point x="80" y="177" type="curve" smooth="yes"/>
			<point x="80" y="40"/>
			<point x="168" y="-18"/>
		</contour>
		<contour>
			<point x="597" y="603" type="line"/>
			<point x="621" y="603" type="line"/>
			<point x="713" y="613" type="line"/>
			<point x="722" y="657" type="line"/>
			<point x="509" y="657" type="line"/>
			<point x="501" y="613" type="line"/>
		</contour>
	</outline>
	<anchor name="aboveUC" x="441" y="677"/>
	<anchor name="belowLC" x="300" y="-20"/>
	<anchor name="hornLC" x="613" y="576"/>
	<anchor name="ogonek" x="394" y="0"/>
</glyph>
<glyph name="V" format="2">
	<unicode hex="0056"/>
	<advance width="601"/>
	<outline>
		<contour>
			<point x="55" y="613" type="line"/>
			<point x="173" y="598" type="line"/>
			<point x="220" y="598" type="line"/>
			<point x="351" y="615" type="line"/>
			<point x="360" y="657" type="line"/>
			<point x="64" y="657" type="line"/>
		</contour>
		<contour>
			<point x="209" y="-3" type="line"/>
			<point x="292" y="-3" type="line"/>
			<point x="629" y="657" type="line"/>
			<point x="574" y="657" type="line"/>
			<point x="320" y="146" type="line"/>
			<point x="310" y="127" type="line"/>
			<point x="334" y="127" type="line"/>
			<point x="262" y="657" type="line"/>
			<point x="106" y="657" type="line"/>
		</contour>
		<contour>
			<point x="474" y="615" type="line"/>
			<point x="571" y="599" type="line"/>
			<point x="587" y="599" type="line"/>
			<point x="674" y="613" type="line"/>
			<point x="683" y="657" type="line"/>
			<point x="482" y="657" type="line"/>
		</contour>
	</outline>
	<anchor name="aboveUC" x="410" y="677"/>
	<anchor name="belowLC" x="261" y="-20"/>
</glyph>
<glyph name="W" format="2">
	<unicode hex="0057"/>
	<advance width="880"/>
	<outline>
		<contour>
			<point x="174" y="598" type="line"/>
			<point x="214" y="598" type="line"/>
			<point x="340" y="613" type="line"/>
			<point x="349" y="657" type="line"/>
			<point x="63" y="657" type="line"/>
			<point x="54" y="613" type="line"/>
		</contour>
		<contour>
			<point x="164" y="-2" type="line"/>
			<point x="250" y="-2" type="line"/>
			<point x="484" y="501" type="line"/>
			<point x="496" y="527" type="line"/>
			<point x="464" y="527" type="line"/>
			<point x="521" y="-2" type="line"/>
			<point x="606" y="-2" type="line"/>
			<point x="905" y="657" type="line"/>
			<point x="851" y="657" type="line"/>
			<point x="632" y="157" type="line"/>
			<point x="623" y="136" type="line"/>
			<point x="645" y="136" type="line"/>
			<point x="594" y="657" type="line"/>
			<point x="505" y="657" type="line"/>
			<point x="277" y="159" type="line"/>
			<point x="267" y="136" type="line"/>
			<point x="290" y="136" type="line"/>
			<point x="258" y="657" type="line"/>
			<point x="106" y="657" type="line"/>
		</contour>
		<contour>
			<point x="509" y="598" type="line"/>
			<point x="563" y="598" type="line"/>
			<point x="682" y="613" type="line"/>
			<point x="691" y="657" type="line"/>
			<point x="413" y="657" type="line"/>
			<point x="404" y="613" type="line"/>
		</contour>
		<contour>
			<point x="843" y="599" type="line"/>
			<point x="867" y="599" type="line"/>
			<point x="952" y="613" type="line"/>
			<point x="961" y="657" type="line"/>
			<point x="760" y="657" type="line"/>
			<point x="751" y="613" type="line"/>
		</contour>
	</outline>
	<anchor name="aboveUC" x="535" y="677"/>
	<anchor name="belowLC" x="395" y="-20"/>
</glyph>
<glyph name="X" format="2">
	<unicode hex="0058"/>
	<advance width="632"/>
	<outline>
		<contour>
			<point x="-31" y="0" type="line"/>
			<point x="173" y="0" type="line"/>
			<point x="182" y="44" type="line"/>
			<point x="96" y="58" type="line"/>
			<point x="71" y="58" type="line"/>
			<point x="-22" y="44" type="line"/>
		</contour>
		<contour>
			<point x="7" y="0" type="line"/>
			<point x="69" y="0" type="line"/>
			<point x="298" y="286" type="line"/>
			<point x="316" y="309" type="line"/>
			<point x="345" y="309" type="line"/>
			<point x="295" y="346" type="line"/>
		</contour>
		<contour>
			<point x="84" y="613" type="line"/>
			<point x="203" y="598" type="line"/>
			<point x="243" y="598" type="line"/>
			<point x="374" y="613" type="line"/>
			<point x="383" y="657" type="line"/>
			<point x="93" y="657" type="line"/>
		</contour>
		<contour>
			<point x="277" y="0" type="line"/>
			<point x="575" y="0" type="line"/>
			<point x="584" y="44" type="line"/>
			<point x="463" y="59" type="line"/>
			<point x="423" y="59" type="line"/>
			<point x="286" y="44" type="line"/>
		</contour>
		<contour>
			<point x="366" y="326" type="line"/>
			<point x="637" y="657" type="line"/>
			<point x="575" y="657" type="line"/>
			<point x="363" y="388" type="line"/>
			<point x="347" y="368" type="line"/>
			<point x="320" y="368" type="line"/>
		</contour>
		<contour>
			<point x="462" y="613" type="line"/>
			<point x="547" y="599" type="line"/>
			<point x="573" y="599" type="line"/>
			<point x="668" y="613" type="line"/>
			<point x="677" y="657" type="line"/>
			<point x="471" y="657" type="line"/>
		</contour>
		<contour>
			<point x="378" y="0" type="line"/>
			<point x="535" y="0" type="line"/>
			<point x="282" y="657" type="line"/>
			<point x="126" y="657" type="line"/>
		</contour>
	</outline>
	<anchor name="aboveUC" x="424" y="677"/>
	<anchor name="belowLC" x="233" y="-20"/>
</glyph>
<glyph name="Y" format="2">
	<unicode hex="0059"/>
	<advance width="575"/>
	<outline>
		<contour>
			<point x="54" y="613" type="line"/>
			<point x="182" y="598" type="line"/>
			<point x="231" y="598" type="line"/>
			<point x="350" y="613" type="line"/>
			<point x="359" y="657" type="line"/>
			<point x="63" y="657" type="line"/>
		</contour>
		<contour>
			<point x="87" y="0" type="line"/>
			<point x="401" y="0" type="line"/>
			<point x="410" y="44" type="line"/>
			<point x="279" y="59" type="line"/>
			<point x="229" y="59" type="line"/>
			<point x="96" y="44" type="line"/>
		</contour>
		<contour>
			<point x="236" y="213" type="line"/>
			<point x="325" y="213" type="line"/>
			<point x="613" y="657" type="line"/>
			<point x="558" y="657" type="line"/>
			<point x="345" y="321" type="line"/>
			<point x="340" y="312" type="line"/>
			<point x="355" y="312" type="line"/>
			<point x="261" y="657" type="line"/>
			<point x="99" y="657" type="line"/>
		</contour>
		<contour>
			<point x="169" y="0" type="line"/>
			<point x="318" y="0" type="line"/>
			<point x="335" y="104"/>
			<point x="353" y="205"/>
			<point x="373" y="311" type="curve"/>
			<point x="229" y="311" type="line"/>
		</contour>
		<contour>
			<point x="454" y="613" type="line"/>
			<point x="540" y="599" type="line"/>
			<point x="561" y="599" type="line"/>
			<point x="647" y="613" type="line"/>
			<point x="656" y="657" type="line"/>
			<point x="462" y="657" type="line"/>
		</contour>
	</outline>
	<anchor name="aboveUC" x="404" y="677"/>
	<anchor name="belowLC" x="244" y="-20"/>
</glyph>
<glyph name="Z" format="2">
	<unicode hex="005A"/>
	<advance width="537"/>
	<outline>
		<contour>
			<point x="-20" y="0" type="line"/>
			<point x="463" y="0" type="line"/>
			<point x="507" y="187" type="line"/>
			<point x="445" y="187" type="line"/>
			<point x="370" y="23" type="line"/>
			<point x="411" y="48" type="line"/>
			<point x="283" y="48" type="line"/>
			<point x="150" y="48" type="line"/>
			<point x="152" y="62" type="line"/>
			<point x="138" y="25" type="line"/>
			<point x="566" y="619" type="line"/>
			<point x="573" y="657" type="line"/>
			<point x="104" y="657" type="line"/>
			<point x="62" y="472" type="line"/>
			<point x="124" y="472" type="line"/>
			<point x="196" y="634" type="line"/>
			<point x="157" y="609" type="line"/>
			<point x="276" y="609" type="line"/>
			<point x="403" y="609" type="line"/>
			<point x="400" y="595" type="line"/>
			<point x="414" y="632" type="line"/>
			<point x="-13" y="38" type="line"/>
		</contour>
	</outline>
	<anchor name="aboveUC" x="342" y="677"/>
	<anchor name="belowLC" x="233" y="-20"/>
</glyph>
<glyph name="bracketleft" format="2">
	<unicode hex="005B"/>
	<advance width="349"/>
	<outline>
		<contour>
			<point x="16" y="-160" type="line"/>
			<point x="133" y="-160" type="line"/>
			<point x="149" y="-63"/>
			<point x="171" y="50"/>
			<point x="192" y="155" type="curve" smooth="yes"/>
			<point x="301" y="714" type="line"/>
			<point x="183" y="714" type="line"/>
			<point x="167" y="617"/>
			<point x="146" y="506"/>
			<point x="125" y="402" type="curve" smooth="yes"/>
		</contour>
		<contour>
			<point x="70" y="-160" type="line"/>
			<point x="229" y="-160" type="line"/>
			<point x="238" y="-116" type="line"/>
			<point x="107" y="-101" type="line"/>
			<point x="82" y="-101" type="line"/>
		</contour>
		<contour>
			<point x="230" y="655" type="line"/>
			<point x="255" y="655" type="line"/>
			<point x="392" y="670" type="line"/>
			<point x="401" y="714" type="line"/>
			<point x="242" y="714" type="line"/>
		</contour>
	</outline>
</glyph>
<glyph name="asciicircum" format="2">
	<unicode hex="005E"/>
	<advance width="533"/>
	<outline>
		<contour>
			<point x="58" y="232" type="line"/>
			<point x="118" y="190" type="line"/>
			<point x="289" y="455" type="line"/>
			<point x="242" y="455" type="line"/>
			<point x="412" y="190" type="line"/>
			<point x="474" y="232" type="line"/>
			<point x="299" y="505" type="line"/>
			<point x="233" y="505" type="line"/>
		</contour>
	</outline>
</glyph>
<glyph name="underscore" format="2">
	<unicode hex="005F"/>
	<advance width="532"/>
	<outline>
		<contour>
			<point x="-72" y="-58" type="line"/>
			<point x="477" y="-58" type="line"/>
			<point x="477" y="18" type="line"/>
			<point x="-72" y="18" type="line"/>
		</contour>
	</outline>
</glyph>
<glyph name="a" format="2">
	<unicode hex="0061"/>
	<advance width="557"/>
	<outline>
		<contour>
			<point x="131" y="-15" type="curve" smooth="yes"/>
			<point x="203" y="-15"/>
			<point x="277" y="52"/>
			<point x="331" y="128" type="curve"/>
			<point x="335" y="128" type="line"/>
			<point x="331" y="159" type="line"/>
			<point x="285" y="107"/>
			<point x="247" y="80"/>
			<point x="217" y="80" type="curve" smooth="yes"/>
			<point x="183" y="80"/>
			<point x="166" y="106"/>
			<point x="166" y="164" type="curve" smooth="yes"/>
			<point x="166" y="233"/>
			<point x="196" y="334"/>
			<point x="242" y="382" type="curve" smooth="yes"/>
			<point x="266" y="408"/>
			<point x="291" y="422"/>
			<point x="316" y="422" type="curve" smooth="yes"/>
			<point x="344" y="422"/>
			<point x="370" y="407"/>
			<point x="392" y="388" type="curve"/>
			<point x="462" y="435" type="line"/>
			<point x="435" y="470"/>
			<point x="396" y="491"/>
			<point x="354" y="491" type="curve" smooth="yes"/>
			<point x="209" y="491"/>
			<point x="26" y="290"/>
			<point x="26" y="120" type="curve" smooth="yes"/>
			<point x="26" y="21"/>
			<point x="77" y="-15"/>
		</contour>
		<contour>
			<point x="379" y="-15" type="curve" smooth="yes"/>
			<point x="452" y="-15"/>
			<point x="515" y="53"/>
			<point x="550" y="114" type="curve"/>
			<point x="523" y="132" type="line"/>
			<point x="493" y="93"/>
			<point x="471" y="72"/>
			<point x="453" y="72" type="curve" smooth="yes"/>
			<point x="442" y="72"/>
			<point x="436" y="78"/>
			<point x="436" y="91" type="curve" smooth="yes"/>
			<point x="436" y="101"/>
			<point x="439" y="115"/>
			<point x="443" y="132" type="curve" smooth="yes"/>
			<point x="521" y="482" type="line"/>
			<point x="503" y="494" type="line"/>
			<point x="377" y="430" type="line"/>
			<point x="370" y="428" type="line"/>
			<point x="302" y="108" type="line"/>
			<point x="305" y="107" type="line" smooth="yes"/>
			<point x="302" y="90"/>
			<point x="300" y="80"/>
			<point x="300" y="70" type="curve" smooth="yes"/>
			<point x="301" y="16"/>
			<point x="333" y="-15"/>
		</contour>
	</outline>
	<anchor name="aboveLC" x="354" y="496"/>
	<anchor name="belowLC" x="256" y="-20"/>
	<anchor name="ogonek" x="424" y="0"/>
</glyph>
<glyph name="b" format="2">
	<unicode hex="0062"/>
	<advance width="528"/>
	<outline>
		<contour>
			<point x="168" y="-15" type="curve" smooth="yes"/>
			<point x="338" y="-15"/>
			<point x="513" y="176"/>
			<point x="513" y="357" type="curve" smooth="yes"/>
			<point x="513" y="453"/>
			<point x="469" y="491"/>
			<point x="410" y="491" type="curve" smooth="yes"/>
			<point x="339" y="491"/>
			<point x="261" y="431"/>
			<point x="206" y="345" type="curve"/>
			<point x="200" y="345" type="line"/>
			<point x="210" y="321" type="line"/>
			<point x="255" y="371"/>
			<point x="292" y="396"/>
			<point x="325" y="396" type="curve" smooth="yes"/>
			<point x="358" y="396"/>
			<point x="375" y="368"/>
			<point x="375" y="318" type="curve" smooth="yes"/>
			<point x="375" y="251"/>
			<point x="350" y="161"/>
			<point x="314" y="112" type="curve" smooth="yes"/>
			<point x="286" y="72"/>
			<point x="258" y="53"/>
			<point x="227" y="53" type="curve" smooth="yes"/>
			<point x="196" y="53"/>
			<point x="180" y="73"/>
			<point x="180" y="104" type="curve" smooth="yes"/>
			<point x="180" y="130"/>
			<point x="190" y="171"/>
			<point x="201" y="223" type="curve" smooth="yes"/>
			<point x="230" y="357" type="line"/>
			<point x="230" y="368" type="line"/>
			<point x="303" y="711" type="line"/>
			<point x="288" y="723" type="line"/>
			<point x="84" y="667" type="line"/>
			<point x="79" y="636" type="line"/>
			<point x="193" y="615" type="line"/>
			<point x="152" y="642" type="line"/>
			<point x="74" y="265" type="line" smooth="yes"/>
			<point x="63" y="211"/>
			<point x="48" y="149"/>
			<point x="48" y="100" type="curve" smooth="yes"/>
			<point x="48" y="16"/>
			<point x="105" y="-15"/>
		</contour>
	</outline>
	<anchor name="aboveLC" x="239" y="728"/>
	<anchor name="belowLC" x="211" y="-20"/>
</glyph>
<glyph name="c" format="2">
	<unicode hex="0063"/>
	<advance width="456"/>
	<outline>
		<contour>
			<point x="199" y="-15" type="curve" smooth="yes"/>
			<point x="301" y="-15"/>
			<point x="379" y="55"/>
			<point x="421" y="137" type="curve"/>
			<point x="397" y="154" type="line"/>
			<point x="359" y="111"/>
			<point x="312" y="84"/>
			<point x="270" y="84" type="curve" smooth="yes"/>
			<point x="208" y="84"/>
			<point x="167" y="121"/>
			<point x="167" y="203" type="curve" smooth="yes"/>
			<point x="167" y="308"/>
			<point x="219" y="428"/>
			<point x="318" y="462" type="curve"/>
			<point x="334" y="462" type="line"/>
			<point x="334" y="472" type="line"/>
			<point x="266" y="472" type="line"/>
			<point x="314" y="392" type="line" smooth="yes"/>
			<point x="332" y="363"/>
			<point x="351" y="340"/>
			<point x="384" y="340" type="curve" smooth="yes"/>
			<point x="419" y="340"/>
			<point x="447" y="364"/>
			<point x="450" y="400" type="curve"/>
			<point x="435" y="457"/>
			<point x="382" y="491"/>
			<point x="313" y="491" type="curve" smooth="yes"/>
			<point x="152" y="491"/>
			<point x="29" y="338"/>
			<point x="29" y="171" type="curve" smooth="yes"/>
			<point x="29" y="53"/>
			<point x="100" y="-15"/>
		</contour>
	</outline>
	<anchor name="aboveLC" x="313" y="496"/>
	<anchor name="baseLC" x="200" y="0"/>
	<anchor name="belowLC" x="199" y="-20"/>
</glyph>
<glyph name="d" format="2">
	<unicode hex="0064"/>
	<advance width="559"/>
	<outline>
		<contour>
			<point x="130" y="-15" type="curve" smooth="yes"/>
			<point x="202" y="-15"/>
			<point x="280" y="51"/>
			<point x="331" y="128" type="curve"/>
			<point x="341" y="128" type="line"/>
			<point x="330" y="158" type="line"/>
			<point x="287" y="106"/>
			<point x="249" y="80"/>
			<point x="218" y="80" type="curve" smooth="yes"/>
			<point x="184" y="80"/>
			<point x="166" y="106"/>
			<point x="166" y="165" type="curve" smooth="yes"/>
			<point x="166" y="233"/>
			<point x="197" y="341"/>
			<point x="245" y="389" type="curve" smooth="yes"/>
			<point x="263" y="407"/>
			<point x="290" y="422"/>
			<point x="315" y="422" type="curve" smooth="yes"/>
			<point x="347" y="422"/>
			<point x="367" y="408"/>
			<point x="389" y="387" type="curve"/>
			<point x="460" y="439" type="line"/>
			<point x="432" y="474"/>
			<point x="394" y="491"/>
			<point x="353" y="491" type="curve" smooth="yes"/>
			<point x="207" y="491"/>
			<point x="27" y="290"/>
			<point x="27" y="122" type="curve" smooth="yes"/>
			<point x="27" y="21"/>
			<point x="76" y="-15"/>
		</contour>
		<contour>
			<point x="374" y="-15" type="curve" smooth="yes"/>
			<point x="449" y="-15"/>
			<point x="515" y="47"/>
			<point x="552" y="114" type="curve"/>
			<point x="525" y="131" type="line"/>
			<point x="495" y="91"/>
			<point x="470" y="72"/>
			<point x="454" y="72" type="curve" smooth="yes"/>
			<point x="444" y="72"/>
			<point x="438" y="78"/>
			<point x="438" y="91" type="curve" smooth="yes"/>
			<point x="438" y="101"/>
			<point x="440" y="114"/>
			<point x="445" y="135" type="curve" smooth="yes"/>
			<point x="566" y="711" type="line"/>
			<point x="551" y="723" type="line"/>
			<point x="348" y="667" type="line"/>
			<point x="343" y="636" type="line"/>
			<point x="455" y="615" type="line"/>
			<point x="420" y="647" type="line"/>
			<point x="381" y="451" type="line"/>
			<point x="371" y="431" type="line"/>
			<point x="306" y="120" type="line"/>
			<point x="306" y="115" type="line" smooth="yes"/>
			<point x="302" y="92"/>
			<point x="301" y="76"/>
			<point x="301" y="62" type="curve" smooth="yes"/>
			<point x="301" y="17"/>
			<point x="328" y="-15"/>
		</contour>
	</outline>
	<anchor name="aboveLC" x="491" y="728"/>
	<anchor name="belowLC" x="261" y="-20"/>
</glyph>
<glyph name="e" format="2">
	<unicode hex="0065"/>
	<advance width="455"/>
	<outline>
		<contour>
			<point x="197" y="-15" type="curve" smooth="yes"/>
			<point x="304" y="-15"/>
			<point x="377" y="57"/>
			<point x="419" y="137" type="curve"/>
			<point x="394" y="154" type="line"/>
			<point x="363" y="115"/>
			<point x="317" y="84"/>
			<point x="263" y="84" type="curve" smooth="yes"/>
			<point x="203" y="84"/>
			<point x="163" y="123"/>
			<point x="163" y="203" type="curve" smooth="yes"/>
			<point x="163" y="335"/>
			<point x="246" y="444"/>
			<point x="301" y="444" type="curve" smooth="yes"/>
			<point x="321" y="444"/>
			<point x="337" y="428"/>
			<point x="337" y="396" type="curve" smooth="yes"/>
			<point x="337" y="328"/>
			<point x="286" y="251"/>
			<point x="103" y="205" type="curve"/>
			<point x="105" y="173" type="line"/>
			<point x="340" y="222"/>
			<point x="450" y="298"/>
			<point x="450" y="389" type="curve" smooth="yes"/>
			<point x="450" y="451"/>
			<point x="402" y="491"/>
			<point x="318" y="491" type="curve" smooth="yes"/>
			<point x="152" y="491"/>
			<point x="27" y="337"/>
			<point x="27" y="169" type="curve" smooth="yes"/>
			<point x="27" y="53"/>
			<point x="97" y="-15"/>
		</contour>
	</outline>
	<anchor name="aboveLC" x="317" y="496"/>
	<anchor name="belowLC" x="205" y="-20"/>
	<anchor name="ogonek" x="266" y="0"/>
</glyph>
<glyph name="f" format="2">
	<unicode hex="0066"/>
	<advance width="335"/>
	<outline>
		<contour>
			<point x="-52" y="-240" type="curve" smooth="yes"/>
			<point x="1" y="-240"/>
			<point x="58" y="-212"/>
			<point x="99" y="-166" type="curve" smooth="yes"/>
			<point x="146" y="-114"/>
			<point x="175" y="-41"/>
			<point x="191" y="49" type="curve" smooth="yes"/>
			<point x="217" y="193"/>
			<point x="238" y="351"/>
			<point x="262" y="506" type="curve" smooth="yes"/>
			<point x="280" y="632"/>
			<point x="305" y="684"/>
			<point x="347" y="711" type="curve"/>
			<point x="347" y="720" type="line"/>
			<point x="319" y="720" type="line"/>
			<point x="319" y="710" type="line"/>
			<point x="352" y="656" type="line" smooth="yes"/>
			<point x="374" y="624"/>
			<point x="397" y="603"/>
			<point x="429" y="603" type="curve" smooth="yes"/>
			<point x="459" y="603"/>
			<point x="489" y="626"/>
			<point x="492" y="661" type="curve"/>
			<point x="481" y="708"/>
			<point x="423" y="738"/>
			<point x="363" y="738" type="curve" smooth="yes"/>
			<point x="242" y="738"/>
			<point x="145" y="641"/>
			<point x="118" y="452" type="curve" smooth="yes"/>
			<point x="99" y="315"/>
			<point x="80" y="178"/>
			<point x="60" y="45" type="curve" smooth="yes"/>
			<point x="49" y="-21"/>
			<point x="38" y="-81"/>
			<point x="20" y="-130" type="curve" smooth="yes"/>
			<point x="7" y="-163"/>
			<point x="-7" y="-187"/>
			<point x="-23" y="-205" type="curve"/>
			<point x="-23" y="-209" type="line"/>
			<point x="-4" y="-209" type="line"/>
			<point x="-4" y="-205" type="line"/>
			<point x="-26" y="-171" type="line" smooth="yes"/>
			<point x="-49" y="-138"/>
			<point x="-71" y="-117"/>
			<point x="-106" y="-117" type="curve" smooth="yes"/>
			<point x="-139" y="-117"/>
			<point x="-161" y="-139"/>
			<point x="-166" y="-172" type="curve"/>
			<point x="-152" y="-219"/>
			<point x="-116" y="-240"/>
		</contour>
		<contour>
			<point x="39" y="427" type="line"/>
			<point x="153" y="427" type="line"/>
			<point x="360" y="423" type="line"/>
			<point x="371" y="476" type="line"/>
			<point x="160" y="476" type="line"/>
			<point x="160" y="482" type="line"/>
			<point x="47" y="467" type="line"/>
		</contour>
	</outline>
	<anchor name="aboveLC" x="350" y="728"/>
	<anchor name="belowLC" x="-17" y="-250"/>
</glyph>
<glyph name="g" format="2">
	<unicode hex="0067"/>
	<advance width="524"/>
	<outline>
		<contour>
			<point x="130" y="-238" type="curve" smooth="yes"/>
			<point x="314" y="-238"/>
			<point x="452" y="-153"/>
			<point x="452" y="-46" type="curve" smooth="yes"/>
			<point x="452" y="18"/>
			<point x="414" y="62"/>
			<point x="303" y="72" type="curve" smooth="yes"/>
			<point x="173" y="84" type="line" smooth="yes"/>
			<point x="136" y="88"/>
			<point x="125" y="105"/>
			<point x="125" y="122" type="curve" smooth="yes"/>
			<point x="125" y="136"/>
			<point x="129" y="149"/>
			<point x="165" y="182" type="curve"/>
			<point x="150" y="203" type="line"/>
			<point x="150" y="196" type="line"/>
			<point x="72" y="153"/>
			<point x="21" y="115"/>
			<point x="21" y="54" type="curve" smooth="yes"/>
			<point x="21" y="17"/>
			<point x="44" y="-12"/>
			<point x="89" y="-22" type="curve"/>
			<point x="89" y="-24" type="line"/>
			<point x="102" y="-27"/>
			<point x="115" y="-29"/>
			<point x="128" y="-31" type="curve" smooth="yes"/>
			<point x="238" y="-41" type="line" smooth="yes"/>
			<point x="307" y="-48"/>
			<point x="333" y="-69"/>
			<point x="333" y="-103" type="curve" smooth="yes"/>
			<point x="333" y="-153"/>
			<point x="279" y="-186"/>
			<point x="184" y="-186" type="curve" smooth="yes"/>
			<point x="107" y="-186"/>
			<point x="58" y="-156"/>
			<point x="58" y="-105" type="curve" smooth="yes"/>
			<point x="58" y="-66"/>
			<point x="84" y="-34"/>
			<point x="119" y="-10" type="curve"/>
			<point x="103" y="-1" type="line"/>
			<point x="25" y="-28"/>
			<point x="-48" y="-75"/>
			<point x="-48" y="-138" type="curve" smooth="yes"/>
			<point x="-48" y="-201"/>
			<point x="16" y="-238"/>
		</contour>
		<contour>
			<point x="214" y="149" type="curve" smooth="yes"/>
			<point x="337" y="149"/>
			<point x="399" y="217"/>
			<point x="426" y="323" type="curve" smooth="yes"/>
			<point x="435" y="355"/>
			<point x="443" y="388"/>
			<point x="452" y="411" type="curve"/>
			<point x="430" y="382" type="line"/>
			<point x="515" y="399"/>
			<point x="558" y="419"/>
			<point x="558" y="477" type="curve" smooth="yes"/>
			<point x="558" y="489"/>
			<point x="555" y="497"/>
			<point x="551" y="503" type="curve"/>
			<point x="540" y="510"/>
			<point x="528" y="513"/>
			<point x="510" y="513" type="curve" smooth="yes"/>
			<point x="462" y="513"/>
			<point x="426" y="480"/>
			<point x="406" y="370" type="curve"/>
			<point x="415" y="369" type="line"/>
			<point x="415" y="439"/>
			<point x="355" y="491"/>
			<point x="267" y="491" type="curve" smooth="yes"/>
			<point x="146" y="491"/>
			<point x="55" y="397"/>
			<point x="55" y="287" type="curve" smooth="yes"/>
			<point x="55" y="210"/>
			<point x="117" y="149"/>
		</contour>
		<contour>
			<point x="240" y="185" type="curve" smooth="yes"/>
			<point x="197" y="185"/>
			<point x="181" y="245"/>
			<point x="181" y="307" type="curve" smooth="yes"/>
			<point x="181" y="396"/>
			<point x="207" y="454"/>
			<point x="253" y="454" type="curve" smooth="yes"/>
			<point x="289" y="454"/>
			<point x="312" y="411"/>
			<point x="312" y="336" type="curve" smooth="yes"/>
			<point x="312" y="223"/>
			<point x="277" y="185"/>
		</contour>
	</outline>
	<anchor name="aboveLC" x="279" y="496"/>
	<anchor name="belowLC" x="170" y="-250"/>
</glyph>
<glyph name="h" format="2">
	<unicode hex="0068"/>
	<advance width="566"/>
	<outline>
		<contour>
			<point x="34" y="-8" type="line"/>
			<point x="161" y="0" type="line"/>
			<point x="171" y="71"/>
			<point x="183" y="132"/>
			<point x="200" y="212" type="curve" smooth="yes"/>
			<point x="230" y="354" type="line"/>
			<point x="231" y="366" type="line"/>
			<point x="304" y="711" type="line"/>
			<point x="290" y="723" type="line"/>
			<point x="86" y="667" type="line"/>
			<point x="81" y="636" type="line"/>
			<point x="196" y="615" type="line"/>
			<point x="150" y="644" type="line"/>
			<point x="140" y="575"/>
			<point x="126" y="504"/>
			<point x="111" y="435" type="curve" smooth="yes"/>
			<point x="20" y="3" type="line"/>
		</contour>
		<contour>
			<point x="373" y="-15" type="curve" smooth="yes"/>
			<point x="455" y="-15"/>
			<point x="520" y="49"/>
			<point x="557" y="114" type="curve"/>
			<point x="531" y="131" type="line"/>
			<point x="500" y="91"/>
			<point x="475" y="72"/>
			<point x="459" y="72" type="curve" smooth="yes"/>
			<point x="449" y="72"/>
			<point x="443" y="78"/>
			<point x="443" y="91" type="curve" smooth="yes"/>
			<point x="443" y="101"/>
			<point x="447" y="115"/>
			<point x="452" y="135" type="curve" smooth="yes"/>
			<point x="497" y="321" type="line" smooth="yes"/>
			<point x="505" y="352"/>
			<point x="510" y="381"/>
			<point x="510" y="409" type="curve" smooth="yes"/>
			<point x="510" y="464"/>
			<point x="478" y="491"/>
			<point x="435" y="491" type="curve" smooth="yes"/>
			<point x="364" y="491"/>
			<point x="288" y="440"/>
			<point x="214" y="360" type="curve"/>
			<point x="207" y="360" type="line"/>
			<point x="215" y="324" type="line"/>
			<point x="266" y="373"/>
			<point x="309" y="395"/>
			<point x="340" y="395" type="curve" smooth="yes"/>
			<point x="356" y="395"/>
			<point x="366" y="385"/>
			<point x="366" y="365" type="curve" smooth="yes"/>
			<point x="366" y="349"/>
			<point x="361" y="320"/>
			<point x="353" y="290" type="curve" smooth="yes"/>
			<point x="316" y="138" type="line" smooth="yes"/>
			<point x="309" y="109"/>
			<point x="300" y="75"/>
			<point x="300" y="48" type="curve" smooth="yes"/>
			<point x="300" y="8"/>
			<point x="328" y="-15"/>
		</contour>
	</outline>
	<anchor name="aboveLC" x="242" y="728"/>
	<anchor name="belowLC" x="241" y="-20"/>
</glyph>
<glyph name="i" format="2">
	<unicode hex="0069"/>
	<advance width="310"/>
	<outline>
		<contour>
			<point x="46" y="49" type="curve" smooth="yes"/>
			<point x="46" y="8"/>
			<point x="76" y="-15"/>
			<point x="121" y="-15" type="curve" smooth="yes"/>
			<point x="203" y="-15"/>
			<point x="264" y="49"/>
			<point x="301" y="114" type="curve"/>
			<point x="275" y="131" type="line"/>
			<point x="243" y="91"/>
			<point x="221" y="72"/>
			<point x="205" y="72" type="curve" smooth="yes"/>
			<point x="196" y="72"/>
			<point x="188" y="78"/>
			<point x="188" y="91" type="curve" smooth="yes"/>
			<point x="188" y="101"/>
			<point x="191" y="116"/>
			<point x="195" y="135" type="curve" smooth="yes"/>
			<point x="269" y="479" type="line"/>
			<point x="254" y="491" type="line"/>
			<point x="49" y="437" type="line"/>
			<point x="43" y="405" type="line"/>
			<point x="136" y="387" type="line"/>
			<point x="116" y="410" type="line"/>
			<point x="60" y="144" type="line" smooth="yes"/>
			<point x="55" y="115"/>
			<point x="46" y="75"/>
		</contour>
		<contour>
			<point x="227" y="581" type="curve" smooth="yes"/>
			<point x="271" y="581"/>
			<point x="310" y="617"/>
			<point x="310" y="665" type="curve" smooth="yes"/>
			<point x="310" y="704"/>
			<point x="281" y="732"/>
			<point x="241" y="732" type="curve" smooth="yes"/>
			<point x="197" y="732"/>
			<point x="158" y="698"/>
			<point x="158" y="649" type="curve" smooth="yes"/>
			<point x="158" y="607"/>
			<point x="191" y="581"/>
		</contour>
	</outline>
	<anchor name="aboveLC" x="241" y="732"/>
	<anchor name="belowLC" x="141" y="-20"/>
	<anchor name="ogonek" x="174" y="0"/>
</glyph>
<glyph name="j" format="2">
	<unicode hex="006A"/>
	<advance width="285"/>
	<outline>
		<contour>
			<point x="-79" y="-239" type="line"/>
			<point x="-2" y="-233"/>
			<point x="53" y="-203"/>
			<point x="91" y="-158" type="curve" smooth="yes"/>
			<point x="134" y="-111"/>
			<point x="161" y="-43"/>
			<point x="181" y="56" type="curve" smooth="yes"/>
			<point x="266" y="478" type="line"/>
			<point x="250" y="492" type="line"/>
			<point x="48" y="437" type="line"/>
			<point x="43" y="405" type="line"/>
			<point x="157" y="385" type="line"/>
			<point x="115" y="409" type="line"/>
			<point x="45" y="44" type="line" smooth="yes"/>
			<point x="25" y="-58"/>
			<point x="10" y="-118"/>
			<point x="-14" y="-154" type="curve" smooth="yes"/>
			<point x="-34" y="-183"/>
			<point x="-55" y="-198"/>
			<point x="-85" y="-210" type="curve"/>
		</contour>
		<contour>
			<point x="226" y="581" type="curve" smooth="yes"/>
			<point x="270" y="581"/>
			<point x="309" y="617"/>
			<point x="309" y="665" type="curve" smooth="yes"/>
			<point x="309" y="704"/>
			<point x="280" y="732"/>
			<point x="240" y="732" type="curve" smooth="yes"/>
			<point x="196" y="732"/>
			<point x="157" y="698"/>
			<point x="157" y="649" type="curve" smooth="yes"/>
			<point x="157" y="607"/>
			<point x="190" y="581"/>
		</contour>
	</outline>
	<anchor name="aboveLC" x="243" y="732"/>
	<anchor name="belowLC" x="15" y="-253"/>
</glyph>
<glyph name="k" format="2">
	<unicode hex="006B"/>
	<advance width="516"/>
	<outline>
		<contour>
			<point x="20" y="3" type="line"/>
			<point x="34" y="-8" type="line"/>
			<point x="161" y="0" type="line"/>
			<point x="171" y="71"/>
			<point x="183" y="132"/>
			<point x="200" y="212" type="curve" smooth="yes"/>
			<point x="305" y="711" type="line"/>
			<point x="291" y="723" type="line"/>
			<point x="86" y="667" type="line"/>
			<point x="81" y="636" type="line"/>
			<point x="196" y="615" type="line"/>
			<point x="149" y="644" type="line"/>
			<point x="140" y="575"/>
			<point x="125" y="504"/>
			<point x="111" y="435" type="curve" smooth="yes"/>
		</contour>
		<contour>
			<point x="497" y="0" type="curve"/>
			<point x="502" y="30" type="line"/>
			<point x="475" y="34" type="line" smooth="yes"/>
			<point x="450" y="37"/>
			<point x="437" y="54"/>
			<point x="422" y="90" type="curve" smooth="yes"/>
			<point x="392" y="160" type="line" smooth="yes"/>
			<point x="367" y="221"/>
			<point x="323" y="254"/>
			<point x="256" y="260" type="curve" smooth="yes"/>
			<point x="206" y="264" type="line"/>
			<point x="203" y="257" type="line"/>
			<point x="422" y="335" type="line" smooth="yes"/>
			<point x="486" y="355"/>
			<point x="515" y="376"/>
			<point x="515" y="417" type="curve" smooth="yes"/>
			<point x="515" y="453"/>
			<point x="487" y="481"/>
			<point x="451" y="486" type="curve"/>
			<point x="201" y="272" type="line"/>
			<point x="188" y="261" type="line"/>
			<point x="184" y="261" type="line"/>
			<point x="184" y="250" type="line"/>
			<point x="197" y="246" type="line" smooth="yes"/>
			<point x="224" y="235"/>
			<point x="231" y="220"/>
			<point x="249" y="168" type="curve" smooth="yes"/>
			<point x="278" y="80" type="line" smooth="yes"/>
			<point x="303" y="4"/>
			<point x="344" y="-15"/>
			<point x="406" y="-15" type="curve" smooth="yes"/>
			<point x="441" y="-15"/>
			<point x="470" y="-9"/>
		</contour>
	</outline>
	<anchor name="aboveLC" x="242" y="728"/>
	<anchor name="belowLC" x="232" y="-20"/>
</glyph>
<glyph name="l" format="2">
	<unicode hex="006C"/>
	<advance width="300"/>
	<outline>
		<contour>
			<point x="112" y="-15" type="curve" smooth="yes"/>
			<point x="195" y="-15"/>
			<point x="255" y="49"/>
			<point x="292" y="114" type="curve"/>
			<point x="266" y="131" type="line"/>
			<point x="234" y="91"/>
			<point x="212" y="72"/>
			<point x="196" y="72" type="curve" smooth="yes"/>
			<point x="187" y="72"/>
			<point x="179" y="78"/>
			<point x="179" y="91" type="curve" smooth="yes"/>
			<point x="179" y="101"/>
			<point x="182" y="116"/>
			<point x="186" y="135" type="curve" smooth="yes"/>
			<point x="308" y="711" type="line"/>
			<point x="293" y="723" type="line"/>
			<point x="88" y="667" type="line"/>
			<point x="83" y="636" type="line"/>
			<point x="197" y="615" type="line"/>
			<point x="151" y="644" type="line"/>
			<point x="141" y="575"/>
			<point x="127" y="504"/>
			<point x="112" y="435" type="curve" smooth="yes"/>
			<point x="55" y="161" type="line" smooth="yes"/>
			<point x="45" y="112"/>
			<point x="38" y="76"/>
			<point x="38" y="50" type="curve" smooth="yes"/>
			<point x="38" y="9"/>
			<point x="66" y="-15"/>
		</contour>
	</outline>
	<anchor name="aboveLC" x="236" y="728"/>
	<anchor name="belowLC" x="135" y="-20"/>
</glyph>
<glyph name="m" format="2">
	<unicode hex="006D"/>
	<advance width="840"/>
	<outline>
		<contour>
			<point x="45" y="-8" type="line"/>
			<point x="172" y="0" type="line"/>
			<point x="183" y="71"/>
			<point x="196" y="141"/>
			<point x="211" y="211" type="curve" smooth="yes"/>
			<point x="243" y="354" type="line"/>
			<point x="241" y="354" type="line"/>
			<point x="266" y="478" type="line"/>
			<point x="249" y="492" type="line"/>
			<point x="49" y="437" type="line"/>
			<point x="43" y="405" type="line"/>
			<point x="158" y="385" type="line"/>
			<point x="116" y="409" type="line"/>
			<point x="31" y="3" type="line"/>
		</contour>
		<contour>
			<point x="314" y="-8" type="line"/>
			<point x="440" y="0" type="line"/>
			<point x="452" y="71"/>
			<point x="466" y="141"/>
			<point x="480" y="211" type="curve" smooth="yes"/>
			<point x="510" y="353" type="line"/>
			<point x="508" y="355" type="line" smooth="yes"/>
			<point x="513" y="375"/>
			<point x="516" y="388"/>
			<point x="516" y="409" type="curve" smooth="yes"/>
			<point x="516" y="464"/>
			<point x="485" y="491"/>
			<point x="441" y="491" type="curve" smooth="yes"/>
			<point x="371" y="491"/>
			<point x="295" y="440"/>
			<point x="220" y="361" type="curve"/>
			<point x="214" y="361" type="line"/>
			<point x="223" y="325" type="line"/>
			<point x="273" y="373"/>
			<point x="316" y="395"/>
			<point x="347" y="395" type="curve" smooth="yes"/>
			<point x="362" y="395"/>
			<point x="373" y="385"/>
			<point x="373" y="366" type="curve" smooth="yes"/>
			<point x="373" y="350"/>
			<point x="367" y="324"/>
			<point x="362" y="297" type="curve" smooth="yes"/>
			<point x="300" y="3" type="line"/>
		</contour>
		<contour>
			<point x="647" y="-15" type="curve" smooth="yes"/>
			<point x="730" y="-15"/>
			<point x="793" y="49"/>
			<point x="831" y="114" type="curve"/>
			<point x="804" y="131" type="line"/>
			<point x="773" y="91"/>
			<point x="749" y="72"/>
			<point x="733" y="72" type="curve" smooth="yes"/>
			<point x="723" y="72"/>
			<point x="717" y="78"/>
			<point x="717" y="91" type="curve" smooth="yes"/>
			<point x="717" y="101"/>
			<point x="721" y="115"/>
			<point x="725" y="135" type="curve" smooth="yes"/>
			<point x="771" y="321" type="line" smooth="yes"/>
			<point x="779" y="352"/>
			<point x="784" y="381"/>
			<point x="784" y="409" type="curve" smooth="yes"/>
			<point x="784" y="464"/>
			<point x="752" y="491"/>
			<point x="709" y="491" type="curve" smooth="yes"/>
			<point x="639" y="491"/>
			<point x="564" y="440"/>
			<point x="490" y="360" type="curve"/>
			<point x="483" y="360" type="line"/>
			<point x="491" y="324" type="line"/>
			<point x="542" y="373"/>
			<point x="584" y="395"/>
			<point x="614" y="395" type="curve" smooth="yes"/>
			<point x="630" y="395"/>
			<point x="640" y="385"/>
			<point x="640" y="365" type="curve" smooth="yes"/>
			<point x="640" y="349"/>
			<point x="635" y="320"/>
			<point x="627" y="290" type="curve" smooth="yes"/>
			<point x="590" y="138" type="line" smooth="yes"/>
			<point x="583" y="109"/>
			<point x="574" y="75"/>
			<point x="574" y="48" type="curve" smooth="yes"/>
			<point x="574" y="8"/>
			<point x="601" y="-15"/>
		</contour>
	</outline>
	<anchor name="aboveLC" x="461" y="496"/>
	<anchor name="belowLC" x="373" y="-20"/>
</glyph>
<glyph name="n" format="2">
	<unicode hex="006E"/>
	<advance width="577"/>
	<outline>
		<contour>
			<point x="45" y="-8" type="line"/>
			<point x="172" y="0" type="line"/>
			<point x="183" y="71"/>
			<point x="196" y="141"/>
			<point x="211" y="211" type="curve" smooth="yes"/>
			<point x="240" y="348" type="line"/>
			<point x="243" y="359" type="line"/>
			<point x="266" y="478" type="line"/>
			<point x="249" y="492" type="line"/>
			<point x="49" y="437" type="line"/>
			<point x="43" y="405" type="line"/>
			<point x="158" y="385" type="line"/>
			<point x="116" y="409" type="line"/>
			<point x="31" y="3" type="line"/>
		</contour>
		<contour>
			<point x="384" y="-15" type="curve" smooth="yes"/>
			<point x="466" y="-15"/>
			<point x="531" y="49"/>
			<point x="568" y="114" type="curve"/>
			<point x="542" y="131" type="line"/>
			<point x="511" y="91"/>
			<point x="486" y="72"/>
			<point x="469" y="72" type="curve" smooth="yes"/>
			<point x="460" y="72"/>
			<point x="454" y="78"/>
			<point x="454" y="91" type="curve" smooth="yes"/>
			<point x="454" y="101"/>
			<point x="458" y="115"/>
			<point x="462" y="135" type="curve" smooth="yes"/>
			<point x="508" y="321" type="line" smooth="yes"/>
			<point x="516" y="352"/>
			<point x="521" y="381"/>
			<point x="521" y="409" type="curve" smooth="yes"/>
			<point x="521" y="464"/>
			<point x="489" y="491"/>
			<point x="446" y="491" type="curve" smooth="yes"/>
			<point x="375" y="491"/>
			<point x="299" y="440"/>
			<point x="225" y="360" type="curve"/>
			<point x="218" y="360" type="line"/>
			<point x="226" y="324" type="line"/>
			<point x="277" y="373"/>
			<point x="320" y="395"/>
			<point x="351" y="395" type="curve" smooth="yes"/>
			<point x="367" y="395"/>
			<point x="377" y="385"/>
			<point x="377" y="365" type="curve" smooth="yes"/>
			<point x="377" y="349"/>
			<point x="372" y="320"/>
			<point x="364" y="290" type="curve" smooth="yes"/>
			<point x="327" y="138" type="line" smooth="yes"/>
			<point x="320" y="109"/>
			<point x="311" y="75"/>
			<point x="311" y="48" type="curve" smooth="yes"/>
			<point x="311" y="8"/>
			<point x="339" y="-15"/>
		</contour>
	</outline>
	<anchor name="aboveLC" x="328" y="496"/>
	<anchor name="belowLC" x="250" y="-20"/>
</glyph>
<glyph name="o" format="2">
	<unicode hex="006F"/>
	<advance width="519"/>
	<outline>
		<contour>
			<point x="215" y="-15" type="curve" smooth="yes"/>
			<point x="381" y="-15"/>
			<point x="497" y="140"/>
			<point x="497" y="303" type="curve" smooth="yes"/>
			<point x="497" y="432"/>
			<point x="413" y="491"/>
			<point x="309" y="491" type="curve" smooth="yes"/>
			<point x="142" y="491"/>
			<point x="25" y="336"/>
			<point x="25" y="173" type="curve" smooth="yes"/>
			<point x="25" y="44"/>
			<point x="110" y="-15"/>
		</contour>
		<contour>
			<point x="223" y="31" type="curve" smooth="yes"/>
			<point x="189" y="31"/>
			<point x="164" y="56"/>
			<point x="164" y="136" type="curve" smooth="yes"/>
			<point x="164" y="277"/>
			<point x="222" y="445"/>
			<point x="299" y="445" type="curve" smooth="yes"/>
			<point x="335" y="445"/>
			<point x="358" y="420"/>
			<point x="358" y="342" type="curve" smooth="yes"/>
			<point x="358" y="198"/>
			<point x="301" y="31"/>
		</contour>
	</outline>
	<anchor name="aboveLC" x="310" y="496"/>
	<anchor name="belowLC" x="214" y="-20"/>
	<anchor name="hornLC" x="411" y="380"/>
	<anchor name="ogonek" x="291" y="0"/>
</glyph>
<glyph name="p" format="2">
	<unicode hex="0070"/>
	<advance width="539"/>
	<outline>
		<contour>
			<point x="-78" y="-233" type="line"/>
			<point x="198" y="-233" type="line"/>
			<point x="205" y="-199" type="line"/>
			<point x="91" y="-181" type="line"/>
			<point x="35" y="-181" type="line"/>
			<point x="-71" y="-199" type="line"/>
		</contour>
		<contour>
			<point x="-17" y="-233" type="line"/>
			<point x="122" y="-233" type="line"/>
			<point x="134" y="-162"/>
			<point x="149" y="-85"/>
			<point x="168" y="13" type="curve"/>
			<point x="174" y="31" type="line"/>
			<point x="240" y="353" type="line"/>
			<point x="242" y="360" type="line"/>
			<point x="266" y="478" type="line"/>
			<point x="249" y="491" type="line"/>
			<point x="49" y="437" type="line"/>
			<point x="44" y="405" type="line"/>
			<point x="158" y="385" type="line"/>
			<point x="116" y="409" type="line"/>
		</contour>
		<contour>
			<point x="208" y="-15" type="curve" smooth="yes"/>
			<point x="356" y="-15"/>
			<point x="523" y="181"/>
			<point x="523" y="357" type="curve" smooth="yes"/>
			<point x="523" y="457"/>
			<point x="476" y="491"/>
			<point x="419" y="491" type="curve" smooth="yes"/>
			<point x="347" y="491"/>
			<point x="267" y="426"/>
			<point x="217" y="346" type="curve"/>
			<point x="211" y="346" type="line"/>
			<point x="220" y="322" type="line"/>
			<point x="260" y="369"/>
			<point x="301" y="396"/>
			<point x="332" y="396" type="curve" smooth="yes"/>
			<point x="370" y="396"/>
			<point x="385" y="371"/>
			<point x="385" y="316" type="curve" smooth="yes"/>
			<point x="385" y="253"/>
			<point x="362" y="165"/>
			<point x="328" y="116" type="curve" smooth="yes"/>
			<point x="300" y="73"/>
			<point x="271" y="54"/>
			<point x="237" y="54" type="curve" smooth="yes"/>
			<point x="201" y="54"/>
			<point x="174" y="81"/>
			<point x="149" y="118" type="curve"/>
			<point x="98" y="36" type="line"/>
			<point x="127" y="2"/>
			<point x="166" y="-15"/>
		</contour>
	</outline>
	<anchor name="aboveLC" x="315" y="496"/>
	<anchor name="belowLC" x="57" y="-253"/>
</glyph>
<glyph name="q" format="2">
	<unicode hex="0071"/>
	<advance width="543"/>
	<outline>
		<contour>
			<point x="130" y="-15" type="curve" smooth="yes"/>
			<point x="204" y="-15"/>
			<point x="287" y="50"/>
			<point x="339" y="128" type="curve"/>
			<point x="352" y="128" type="line"/>
			<point x="336" y="158" type="line"/>
			<point x="293" y="106"/>
			<point x="250" y="80"/>
			<point x="217" y="80" type="curve" smooth="yes"/>
			<point x="182" y="80"/>
			<point x="166" y="108"/>
			<point x="166" y="164" type="curve" smooth="yes"/>
			<point x="166" y="231"/>
			<point x="193" y="330"/>
			<point x="240" y="381" type="curve" smooth="yes"/>
			<point x="260" y="403"/>
			<point x="288" y="422"/>
			<point x="319" y="422" type="curve" smooth="yes"/>
			<point x="346" y="422"/>
			<point x="370" y="409"/>
			<point x="393" y="388" type="curve"/>
			<point x="463" y="439" type="line"/>
			<point x="435" y="474"/>
			<point x="397" y="491"/>
			<point x="355" y="491" type="curve" smooth="yes"/>
			<point x="208" y="491"/>
			<point x="27" y="290"/>
			<point x="27" y="122" type="curve" smooth="yes"/>
			<point x="27" y="21"/>
			<point x="76" y="-15"/>
		</contour>
		<contour>
			<point x="168" y="-233" type="line"/>
			<point x="447" y="-233" type="line"/>
			<point x="454" y="-199" type="line"/>
			<point x="344" y="-181" type="line"/>
			<point x="285" y="-181" type="line"/>
			<point x="175" y="-199" type="line"/>
		</contour>
		<contour>
			<point x="239" y="-233" type="line"/>
			<point x="378" y="-233" type="line"/>
			<point x="389" y="-167"/>
			<point x="401" y="-100"/>
			<point x="416" y="-28" type="curve" smooth="yes"/>
			<point x="523" y="486" type="line"/>
			<point x="507" y="498" type="line"/>
			<point x="385" y="439" type="line"/>
			<point x="377" y="435" type="line"/>
			<point x="310" y="118" type="line"/>
			<point x="309" y="99" type="line"/>
		</contour>
	</outline>
	<anchor name="aboveLC" x="360" y="496"/>
	<anchor name="belowLC" x="308" y="-253"/>
</glyph>
<glyph name="r" format="2">
	<unicode hex="0072"/>
	<advance width="446"/>
	<outline>
		<contour>
			<point x="210" y="221" type="line"/>
			<point x="241" y="294"/>
			<point x="279" y="362"/>
			<point x="345" y="425" type="curve"/>
			<point x="345" y="431" type="line"/>
			<point x="305" y="425" type="line"/>
			<point x="319" y="409" type="line" smooth="yes"/>
			<point x="348" y="377"/>
			<point x="367" y="360"/>
			<point x="400" y="360" type="curve" smooth="yes"/>
			<point x="442" y="360"/>
			<point x="467" y="397"/>
			<point x="467" y="441" type="curve"/>
			<point x="456" y="476"/>
			<point x="425" y="491"/>
			<point x="393" y="491" type="curve" smooth="yes"/>
			<point x="319" y="491"/>
			<point x="252" y="395"/>
			<point x="205" y="271" type="curve"/>
			<point x="194" y="271" type="line"/>
		</contour>
		<contour>
			<point x="31" y="3" type="line"/>
			<point x="45" y="-8" type="line"/>
			<point x="172" y="0" type="line"/>
			<point x="184" y="71"/>
			<point x="198" y="142"/>
			<point x="212" y="211" type="curve" smooth="yes"/>
			<point x="229" y="298" type="line"/>
			<point x="225" y="303" type="line"/>
			<point x="256" y="478" type="line"/>
			<point x="238" y="492" type="line"/>
			<point x="49" y="437" type="line"/>
			<point x="43" y="405" type="line"/>
			<point x="158" y="385" type="line"/>
			<point x="116" y="409" type="line"/>
		</contour>
	</outline>
	<anchor name="aboveLC" x="289" y="496"/>
	<anchor name="belowLC" x="106" y="-20"/>
</glyph>
<glyph name="t" format="2">
	<unicode hex="0074"/>
	<advance width="339"/>
	<outline>
		<contour>
			<point x="44" y="427" type="line"/>
			<point x="160" y="427" type="line"/>
			<point x="165" y="427" type="line"/>
			<point x="355" y="423" type="line"/>
			<point x="366" y="476" type="line"/>
			<point x="167" y="476" type="line"/>
			<point x="167" y="482" type="line"/>
			<point x="51" y="467" type="line"/>
		</contour>
		<contour>
			<point x="118" y="-15" type="curve" smooth="yes"/>
			<point x="200" y="-15"/>
			<point x="263" y="49"/>
			<point x="300" y="114" type="curve"/>
			<point x="273" y="131" type="line"/>
			<point x="242" y="91"/>
			<point x="220" y="72"/>
			<point x="203" y="72" type="curve" smooth="yes"/>
			<point x="193" y="72"/>
			<point x="186" y="78"/>
			<point x="186" y="91" type="curve" smooth="yes"/>
			<point x="186" y="101"/>
			<point x="189" y="115"/>
			<point x="193" y="135" type="curve" smooth="yes"/>
			<point x="293" y="617" type="line"/>
			<point x="215" y="617" type="line"/>
			<point x="124" y="452" type="line"/>
			<point x="58" y="146" type="line" smooth="yes"/>
			<point x="51" y="115"/>
			<point x="44" y="78"/>
			<point x="44" y="51" type="curve" smooth="yes"/>
			<point x="44" y="8"/>
			<point x="73" y="-15"/>
		</contour>
	</outline>
	<anchor name="aboveLC" x="236" y="599"/>
	<anchor name="baseLC" x="120" y="0"/>
	<anchor name="belowLC" x="138" y="-20"/>
</glyph>
<glyph name="u" format="2">
	<unicode hex="0075"/>
	<advance width="577"/>
	<outline>
		<contour>
			<point x="131" y="-15" type="curve" smooth="yes"/>
			<point x="201" y="-15"/>
			<point x="276" y="35"/>
			<point x="349" y="122" type="curve"/>
			<point x="363" y="122" type="line"/>
			<point x="346" y="153" type="line"/>
			<point x="294" y="102"/>
			<point x="256" y="81"/>
			<point x="224" y="81" type="curve" smooth="yes"/>
			<point x="205" y="81"/>
			<point x="191" y="91"/>
			<point x="191" y="118" type="curve" smooth="yes"/>
			<point x="191" y="136"/>
			<point x="197" y="161"/>
			<point x="203" y="188" type="curve" smooth="yes"/>
			<point x="270" y="478" type="line"/>
			<point x="254" y="492" type="line"/>
			<point x="49" y="437" type="line"/>
			<point x="43" y="405" type="line"/>
			<point x="136" y="387" type="line"/>
			<point x="118" y="412" type="line"/>
			<point x="62" y="161" type="line" smooth="yes"/>
			<point x="54" y="129"/>
			<point x="48" y="96"/>
			<point x="48" y="67" type="curve" smooth="yes"/>
			<point x="48" y="14"/>
			<point x="84" y="-15"/>
		</contour>
		<contour>
			<point x="392" y="-15" type="curve" smooth="yes"/>
			<point x="472" y="-15"/>
			<point x="532" y="50"/>
			<point x="569" y="114" type="curve"/>
			<point x="542" y="131" type="line"/>
			<point x="511" y="91"/>
			<point x="489" y="72"/>
			<point x="472" y="72" type="curve" smooth="yes"/>
			<point x="463" y="72"/>
			<point x="456" y="78"/>
			<point x="456" y="91" type="curve" smooth="yes"/>
			<point x="456" y="101"/>
			<point x="459" y="115"/>
			<point x="463" y="135" type="curve" smooth="yes"/>
			<point x="538" y="478" type="line"/>
			<point x="520" y="492" type="line"/>
			<point x="389" y="452" type="line"/>
			<point x="381" y="397"/>
			<point x="371" y="347"/>
			<point x="360" y="293" type="curve" smooth="yes"/>
			<point x="324" y="123" type="line"/>
			<point x="326" y="120" type="line"/>
			<point x="320" y="96"/>
			<point x="317" y="81"/>
			<point x="317" y="67" type="curve" smooth="yes"/>
			<point x="317" y="15"/>
			<point x="348" y="-15"/>
		</contour>
	</outline>
	<anchor name="aboveLC" x="333" y="496"/>
	<anchor name="belowLC" x="269" y="-20"/>
	<anchor name="hornLC" x="491" y="445"/>
	<anchor name="ogonek" x="437" y="0"/>
</glyph>
<glyph name="v" format="2">
	<unicode hex="0076"/>
	<advance width="504"/>
	<outline>
		<contour>
			<point x="146" y="0" type="curve"/>
			<point x="157" y="-8" type="line"/>
			<point x="231" y="-1" type="line"/>
			<point x="331" y="101"/>
			<point x="412" y="212"/>
			<point x="460" y="298" type="curve" smooth="yes"/>
			<point x="491" y="355"/>
			<point x="503" y="390"/>
			<point x="503" y="423" type="curve" smooth="yes"/>
			<point x="503" y="450"/>
			<point x="499" y="464"/>
			<point x="489" y="480" type="curve"/>
			<point x="479" y="488"/>
			<point x="461" y="494"/>
			<point x="443" y="494" type="curve" smooth="yes"/>
			<point x="399" y="494"/>
			<point x="367" y="469"/>
			<point x="367" y="415" type="curve" smooth="yes"/>
			<point x="367" y="391"/>
			<point x="375" y="364"/>
			<point x="388" y="326" type="curve"/>
			<point x="411" y="253" type="line"/>
			<point x="435" y="363" type="line"/>
			<point x="429" y="350"/>
			<point x="422" y="338"/>
			<point x="415" y="325" type="curve" smooth="yes"/>
			<point x="369" y="235"/>
			<point x="322" y="162"/>
			<point x="259" y="84" type="curve"/>
			<point x="249" y="71" type="line"/>
			<point x="269" y="71" type="line"/>
			<point x="264" y="180"/>
			<point x="257" y="296"/>
			<point x="246" y="393" type="curve" smooth="yes"/>
			<point x="238" y="458"/>
			<point x="217" y="491"/>
			<point x="163" y="491" type="curve" smooth="yes"/>
			<point x="111" y="491"/>
			<point x="64" y="453"/>
			<point x="15" y="371" type="curve"/>
			<point x="36" y="350" type="line"/>
			<point x="58" y="379"/>
			<point x="74" y="393"/>
			<point x="86" y="393" type="curve" smooth="yes"/>
			<point x="97" y="393"/>
			<point x="105" y="388"/>
			<point x="109" y="360" type="curve" smooth="yes"/>
			<point x="125" y="244"/>
			<point x="135" y="137"/>
		</contour>
	</outline>
	<anchor name="aboveLC" x="307" y="496"/>
	<anchor name="belowLC" x="200" y="-20"/>
</glyph>
<glyph name="w" format="2">
	<unicode hex="0077"/>
	<advance width="774"/>
	<outline>
		<contour>
			<point x="146" y="0" type="curve"/>
			<point x="157" y="-8" type="line"/>
			<point x="238" y="-1" type="line"/>
			<point x="300" y="96"/>
			<point x="355" y="205"/>
			<point x="399" y="304" type="curve"/>
			<point x="407" y="321" type="line"/>
			<point x="389" y="321" type="line"/>
			<point x="400" y="214"/>
			<point x="411" y="108"/>
			<point x="423" y="0" type="curve"/>
			<point x="434" y="-8" type="line"/>
			<point x="504" y="-1" type="line"/>
			<point x="603" y="102"/>
			<point x="681" y="211"/>
			<point x="728" y="298" type="curve" smooth="yes"/>
			<point x="759" y="353"/>
			<point x="771" y="387"/>
			<point x="771" y="419" type="curve" smooth="yes"/>
			<point x="771" y="446"/>
			<point x="768" y="461"/>
			<point x="758" y="477" type="curve"/>
			<point x="747" y="485"/>
			<point x="731" y="491"/>
			<point x="713" y="491" type="curve" smooth="yes"/>
			<point x="669" y="491"/>
			<point x="635" y="466"/>
			<point x="635" y="412" type="curve" smooth="yes"/>
			<point x="635" y="388"/>
			<point x="643" y="361"/>
			<point x="657" y="322" type="curve" smooth="yes"/>
			<point x="682" y="250" type="line"/>
			<point x="702" y="360" type="line"/>
			<point x="696" y="347"/>
			<point x="690" y="334"/>
			<point x="684" y="322" type="curve" smooth="yes"/>
			<point x="637" y="234"/>
			<point x="594" y="168"/>
			<point x="539" y="96" type="curve"/>
			<point x="530" y="84" type="line"/>
			<point x="549" y="82" type="line"/>
			<point x="536" y="208"/>
			<point x="523" y="338"/>
			<point x="509" y="469" type="curve"/>
			<point x="421" y="469" type="line"/>
			<point x="370" y="345"/>
			<point x="315" y="220"/>
			<point x="250" y="98" type="curve"/>
			<point x="243" y="84" type="line"/>
			<point x="266" y="83" type="line"/>
			<point x="263" y="193"/>
			<point x="255" y="305"/>
			<point x="245" y="395" type="curve" smooth="yes"/>
			<point x="238" y="459"/>
			<point x="217" y="491"/>
			<point x="162" y="491" type="curve" smooth="yes"/>
			<point x="110" y="491"/>
			<point x="64" y="453"/>
			<point x="15" y="371" type="curve"/>
			<point x="36" y="350" type="line"/>
			<point x="57" y="379"/>
			<point x="73" y="393"/>
			<point x="86" y="393" type="curve" smooth="yes"/>
			<point x="97" y="393"/>
			<point x="105" y="388"/>
			<point x="109" y="360" type="curve" smooth="yes"/>
			<point x="124" y="245"/>
			<point x="136" y="138"/>
		</contour>
	</outline>
	<anchor name="aboveLC" x="463" y="496"/>
	<anchor name="belowLC" x="332" y="-20"/>
</glyph>
<glyph name="x" format="2">
	<unicode hex="0078"/>
	<advance width="561"/>
	<outline>
		<contour>
			<point x="371" y="-17" type="curve" smooth="yes"/>
			<point x="438" y="-17"/>
			<point x="493" y="42"/>
			<point x="533" y="118" type="curve"/>
			<point x="506" y="135" type="line"/>
			<point x="478" y="96"/>
			<point x="454" y="72"/>
			<point x="434" y="72" type="curve" smooth="yes"/>
			<point x="418" y="72"/>
			<point x="409" y="82"/>
			<point x="398" y="113" type="curve" smooth="yes"/>
			<point x="339" y="291" type="line"/>
			<point x="336" y="297" type="line"/>
			<point x="302" y="400" type="line" smooth="yes"/>
			<point x="282" y="460"/>
			<point x="263" y="491"/>
			<point x="208" y="491" type="curve" smooth="yes"/>
			<point x="153" y="491"/>
			<point x="109" y="444"/>
			<point x="64" y="371" type="curve"/>
			<point x="85" y="350" type="line"/>
			<point x="107" y="382"/>
			<point x="128" y="392"/>
			<point x="143" y="392" type="curve" smooth="yes"/>
			<point x="161" y="392"/>
			<point x="170" y="383"/>
			<point x="181" y="350" type="curve" smooth="yes"/>
			<point x="237" y="179" type="line"/>
			<point x="239" y="174" type="line"/>
			<point x="274" y="66" type="line" smooth="yes"/>
			<point x="294" y="3"/>
			<point x="325" y="-17"/>
		</contour>
		<contour>
			<point x="-10" y="64" type="curve"/>
			<point x="-5" y="8"/>
			<point x="38" y="-15"/>
			<point x="77" y="-15" type="curve" smooth="yes"/>
			<point x="116" y="-15"/>
			<point x="141" y="4"/>
			<point x="165" y="37" type="curve" smooth="yes"/>
			<point x="204" y="87"/>
			<point x="241" y="150"/>
			<point x="290" y="238" type="curve"/>
			<point x="280" y="268" type="line"/>
			<point x="231" y="196"/>
			<point x="184" y="129"/>
			<point x="134" y="65" type="curve" smooth="yes"/>
			<point x="125" y="53"/>
			<point x="116" y="46"/>
			<point x="106" y="37" type="curve"/>
			<point x="106" y="26" type="line"/>
			<point x="144" y="33" type="line"/>
			<point x="131" y="59" type="line" smooth="yes"/>
			<point x="108" y="103"/>
			<point x="88" y="120"/>
			<point x="57" y="120" type="curve" smooth="yes"/>
			<point x="24" y="120"/>
			<point x="-1" y="102"/>
		</contour>
		<contour>
			<point x="299" y="209" type="line"/>
			<point x="347" y="279"/>
			<point x="393" y="345"/>
			<point x="441" y="408" type="curve" smooth="yes"/>
			<point x="451" y="422"/>
			<point x="462" y="429"/>
			<point x="474" y="437" type="curve"/>
			<point x="474" y="444" type="line"/>
			<point x="429" y="440" type="line"/>
			<point x="449" y="407" type="line" smooth="yes"/>
			<point x="468" y="374"/>
			<point x="490" y="358"/>
			<point x="520" y="358" type="curve" smooth="yes"/>
			<point x="555" y="358"/>
			<point x="581" y="385"/>
			<point x="584" y="426" type="curve"/>
			<point x="574" y="471"/>
			<point x="539" y="491"/>
			<point x="505" y="491" type="curve" smooth="yes"/>
			<point x="466" y="491"/>
			<point x="439" y="475"/>
			<point x="409" y="435" type="curve" smooth="yes"/>
			<point x="381" y="396"/>
			<point x="337" y="328"/>
			<point x="288" y="239" type="curve"/>
		</contour>
	</outline>
	<anchor name="aboveLC" x="349" y="496"/>
	<anchor name="belowLC" x="218" y="-20"/>
</glyph>
<glyph name="y" format="2">
	<unicode hex="0079"/>
	<advance width="521"/>
	<outline>
		<contour>
			<point x="-3" y="-233" type="curve" smooth="yes"/>
			<point x="52" y="-233"/>
			<point x="100" y="-199"/>
			<point x="146" y="-152" type="curve" smooth="yes"/>
			<point x="202" y="-97"/>
			<point x="245" y="-42"/>
			<point x="278" y="3" type="curve" smooth="yes"/>
			<point x="334" y="78"/>
			<point x="371" y="141"/>
			<point x="407" y="197" type="curve" smooth="yes"/>
			<point x="437" y="246"/>
			<point x="463" y="292"/>
			<point x="486" y="334" type="curve" smooth="yes"/>
			<point x="508" y="374"/>
			<point x="523" y="405"/>
			<point x="523" y="439" type="curve" smooth="yes"/>
			<point x="523" y="472"/>
			<point x="497" y="492"/>
			<point x="466" y="492" type="curve" smooth="yes"/>
			<point x="415" y="492"/>
			<point x="398" y="458"/>
			<point x="373" y="353" type="curve" smooth="yes"/>
			<point x="347" y="247"/>
			<point x="318" y="140"/>
			<point x="271" y="42" type="curve" smooth="yes"/>
			<point x="235" y="-1"/>
			<point x="202" y="-41"/>
			<point x="163" y="-80" type="curve" smooth="yes"/>
			<point x="125" y="-120"/>
			<point x="69" y="-169"/>
			<point x="40" y="-184" type="curve"/>
			<point x="40" y="-195" type="line"/>
			<point x="81" y="-195" type="line"/>
			<point x="81" y="-183" type="line"/>
			<point x="64" y="-164" type="line" smooth="yes"/>
			<point x="33" y="-123"/>
			<point x="10" y="-102"/>
			<point x="-26" y="-102" type="curve" smooth="yes"/>
			<point x="-60" y="-102"/>
			<point x="-87" y="-121"/>
			<point x="-95" y="-156" type="curve"/>
			<point x="-91" y="-206"/>
			<point x="-52" y="-233"/>
		</contour>
		<contour>
			<point x="174" y="-86" type="curve"/>
			<point x="291" y="40" type="line"/>
			<point x="278" y="40" type="line"/>
			<point x="271" y="148"/>
			<point x="258" y="275"/>
			<point x="245" y="382" type="curve" smooth="yes"/>
			<point x="235" y="458"/>
			<point x="217" y="491"/>
			<point x="163" y="491" type="curve" smooth="yes"/>
			<point x="112" y="491"/>
			<point x="65" y="454"/>
			<point x="15" y="371" type="curve"/>
			<point x="36" y="350" type="line"/>
			<point x="57" y="379"/>
			<point x="73" y="393"/>
			<point x="86" y="393" type="curve" smooth="yes"/>
			<point x="98" y="393"/>
			<point x="105" y="387"/>
			<point x="111" y="338" type="curve" smooth="yes"/>
			<point x="134" y="203"/>
			<point x="156" y="66"/>
		</contour>
	</outline>
	<anchor name="aboveLC" x="313" y="496"/>
	<anchor name="belowLC" x="39" y="-245"/>
</glyph>
<glyph name="z" format="2">
	<unicode hex="007A"/>
	<advance width="484"/>
	<outline>
		<contour>
			<point x="269" y="-27" type="curve" smooth="yes"/>
			<point x="359" y="-27"/>
			<point x="453" y="81"/>
			<point x="453" y="177" type="curve" smooth="yes"/>
			<point x="453" y="209"/>
			<point x="438" y="233"/>
			<point x="407" y="243" type="curve"/>
			<point x="374" y="240"/>
			<point x="345" y="215"/>
			<point x="345" y="178" type="curve" smooth="yes"/>
			<point x="345" y="155"/>
			<point x="355" y="132"/>
			<point x="398" y="95" type="curve"/>
			<point x="419" y="101" type="line"/>
			<point x="417" y="118" type="line"/>
			<point x="395" y="106"/>
			<point x="360" y="94"/>
			<point x="323" y="94" type="curve" smooth="yes"/>
			<point x="262" y="94"/>
			<point x="207" y="109"/>
			<point x="125" y="155" type="curve"/>
			<point x="84" y="102" type="line"/>
			<point x="147" y="6"/>
			<point x="204" y="-27"/>
		</contour>
		<contour>
			<point x="70" y="1" type="line"/>
			<point x="101" y="100" type="line"/>
			<point x="192" y="176"/>
			<point x="290" y="252"/>
			<point x="383" y="332" type="curve" smooth="yes"/>
			<point x="442" y="381"/>
			<point x="479" y="428"/>
			<point x="496" y="476" type="curve"/>
			<point x="488" y="485" type="line"/>
			<point x="418" y="476" type="line"/>
			<point x="380" y="378" type="line"/>
			<point x="283" y="292"/>
			<point x="177" y="207"/>
			<point x="77" y="121" type="curve" smooth="yes"/>
			<point x="29" y="80"/>
			<point x="7" y="43"/>
			<point x="-15" y="0" type="curve"/>
			<point x="-8" y="-8" type="line"/>
		</contour>
		<contour>
			<point x="46" y="253" type="line"/>
			<point x="85" y="246" type="line"/>
			<point x="154" y="422" type="line"/>
			<point x="84" y="363" type="line"/>
			<point x="176" y="346"/>
			<point x="252" y="332"/>
			<point x="336" y="312" type="curve"/>
			<point x="403" y="388" type="line"/>
			<point x="316" y="434"/>
			<point x="242" y="462"/>
			<point x="151" y="493" type="curve"/>
			<point x="63" y="421" type="line"/>
		</contour>
	</outline>
	<anchor name="aboveLC" x="303" y="496"/>
	<anchor name="belowLC" x="190" y="-20"/>
</glyph>
<glyph name="braceleft" format="2">
	<unicode hex="007B"/>
	<advance width="344"/>
	<outline>
		<contour>
			<point x="38" y="255" type="line"/>
			<point x="107" y="243"/>
			<point x="124" y="220"/>
			<point x="124" y="190" type="curve" smooth="yes"/>
			<point x="124" y="110"/>
			<point x="34" y="31"/>
			<point x="34" y="-62" type="curve" smooth="yes"/>
			<point x="34" y="-129"/>
			<point x="97" y="-160"/>
			<point x="196" y="-160" type="curve" smooth="yes"/>
			<point x="234" y="-160" type="line"/>
			<point x="243" y="-116" type="line"/>
			<point x="211" y="-113" type="line" smooth="yes"/>
			<point x="175" y="-110"/>
			<point x="158" y="-91"/>
			<point x="158" y="-59" type="curve" smooth="yes"/>
			<point x="158" y="0"/>
			<point x="218" y="105"/>
			<point x="218" y="177" type="curve" smooth="yes"/>
			<point x="218" y="237"/>
			<point x="176" y="278"/>
			<point x="85" y="284" type="curve"/>
			<point x="82" y="270" type="line"/>
			<point x="214" y="279"/>
			<point x="271" y="351"/>
			<point x="271" y="455" type="curve" smooth="yes"/>
			<point x="271" y="481"/>
			<point x="269" y="517"/>
			<point x="269" y="543" type="curve" smooth="yes"/>
			<point x="269" y="615"/>
			<point x="291" y="662"/>
			<point x="356" y="668" type="curve" smooth="yes"/>
			<point x="382" y="671" type="line"/>
			<point x="390" y="714" type="line"/>
			<point x="360" y="714" type="line" smooth="yes"/>
			<point x="233" y="714"/>
			<point x="144" y="664"/>
			<point x="144" y="554" type="curve" smooth="yes"/>
			<point x="144" y="502"/>
			<point x="166" y="455"/>
			<point x="166" y="409" type="curve" smooth="yes"/>
			<point x="166" y="354"/>
			<point x="147" y="315"/>
			<point x="48" y="299" type="curve"/>
		</contour>
	</outline>
</glyph>
<glyph name="bar" format="2">
	<unicode hex="007C"/>
	<advance width="264"/>
	<outline>
		<contour>
			<point x="87" y="-251" type="line"/>
			<point x="174" y="-251" type="line"/>
			<point x="174" y="749" type="line"/>
			<point x="87" y="749" type="line"/>
		</contour>
	</outline>
</glyph>
<glyph name="asciitilde" format="2">
	<unicode hex="007E"/>
	<advance width="534"/>
	<outline>
		<contour>
			<point x="294" y="375" type="curve" smooth="yes"/>
			<point x="255" y="407"/>
			<point x="222" y="427"/>
			<point x="183" y="427" type="curve" smooth="yes"/>
			<point x="114" y="427"/>
			<point x="66" y="382"/>
			<point x="62" y="271" type="curve"/>
			<point x="123" y="264" type="line"/>
			<point x="129" y="333"/>
			<point x="151" y="354"/>
			<point x="179" y="354" type="curve" smooth="yes"/>
			<point x="201" y="354"/>
			<point x="218" y="341"/>
			<point x="256" y="311" type="curve" smooth="yes"/>
			<point x="295" y="279"/>
			<point x="328" y="258"/>
			<point x="367" y="258" type="curve" smooth="yes"/>
			<point x="434" y="258"/>
			<point x="484" y="303"/>
			<point x="488" y="414" type="curve"/>
			<point x="427" y="421" type="line"/>
			<point x="420" y="352"/>
			<point x="399" y="331"/>
			<point x="372" y="331" type="curve" smooth="yes"/>
			<point x="349" y="331"/>
			<point x="332" y="344"/>
		</contour>
	</outline>
</glyph>
<glyph name="cent" format="2">
	<unicode hex="00A2"/>
	<advance width="535"/>
	<outline>
		<contour>
			<point x="55" y="241" type="curve" smooth="yes"/>
			<point x="55" y="121"/>
			<point x="129" y="50"/>
			<point x="235" y="50" type="curve" smooth="yes"/>
			<point x="335" y="50"/>
			<point x="415" y="116"/>
			<point x="458" y="193" type="curve"/>
			<point x="436" y="211" type="line"/>
			<point x="397" y="170"/>
			<point x="351" y="144"/>
			<point x="305" y="144" type="curve" smooth="yes"/>
			<point x="233" y="144"/>
			<point x="189" y="185"/>
			<point x="189" y="270" type="curve" smooth="yes"/>
			<point x="189" y="365"/>
			<point x="238" y="517"/>
			<point x="349" y="517" type="curve" smooth="yes"/>
			<point x="392" y="517"/>
			<point x="416" y="511"/>
			<point x="440" y="497" type="curve"/>
			<point x="392" y="533" type="line"/>
			<point x="398" y="446" type="line" smooth="yes"/>
			<point x="402" y="387"/>
			<point x="421" y="371"/>
			<point x="455" y="371" type="curve" smooth="yes"/>
			<point x="478" y="371"/>
			<point x="500" y="384"/>
			<point x="508" y="414" type="curve" smooth="yes"/>
			<point x="507" y="503"/>
			<point x="446" y="561"/>
			<point x="346" y="561" type="curve" smooth="yes"/>
			<point x="185" y="561"/>
			<point x="55" y="418"/>
		</contour>
		<contour>
			<point x="252" y="-45" type="line"/>
			<point x="394" y="653" type="line"/>
			<point x="347" y="653" type="line"/>
			<point x="205" y="-45" type="line"/>
		</contour>
	</outline>
</glyph>
<glyph name="sterling" format="2">
	<unicode hex="00A3"/>
	<advance width="535"/>
	<outline>
		<contour>
			<point x="3" y="0" type="line"/>
			<point x="430" y="0" type="line"/>
			<point x="453" y="118" type="line"/>
			<point x="97" y="118" type="line"/>
			<point x="96" y="99" type="line"/>
			<point x="191" y="142"/>
			<point x="274" y="221"/>
			<point x="274" y="306" type="curve" smooth="yes"/>
			<point x="274" y="363"/>
			<point x="253" y="402"/>
			<point x="253" y="477" type="curve" smooth="yes"/>
			<point x="253" y="547"/>
			<point x="290" y="601"/>
			<point x="373" y="601" type="curve" smooth="yes"/>
			<point x="392" y="601"/>
			<point x="411" y="599"/>
			<point x="434" y="591" type="curve"/>
			<point x="394" y="616" type="line"/>
			<point x="396" y="530" type="line" smooth="yes"/>
			<point x="397" y="464"/>
			<point x="419" y="447"/>
			<point x="453" y="447" type="curve" smooth="yes"/>
			<point x="481" y="447"/>
			<point x="503" y="461"/>
			<point x="516" y="497" type="curve"/>
			<point x="515" y="594"/>
			<point x="456" y="646"/>
			<point x="334" y="646" type="curve" smooth="yes"/>
			<point x="205" y="646"/>
			<point x="106" y="579"/>
			<point x="106" y="471" type="curve" smooth="yes"/>
			<point x="106" y="390"/>
			<point x="160" y="345"/>
			<point x="160" y="281" type="curve" smooth="yes"/>
			<point x="160" y="207"/>
			<point x="107" y="141"/>
			<point x="21" y="92" type="curve"/>
		</contour>
		<contour>
			<point x="66" y="272" type="line"/>
			<point x="402" y="272" type="line"/>
			<point x="412" y="320" type="line"/>
			<point x="76" y="320" type="line"/>
		</contour>
	</outline>
</glyph>
<glyph name="currency" format="2">
	<unicode hex="00A4"/>
	<advance width="535"/>
	<outline>
		<contour>
			<point x="395" y="422" type="line"/>
			<point x="447" y="450" type="line" smooth="yes"/>
			<point x="485" y="471"/>
			<point x="519" y="492"/>
			<point x="519" y="523" type="curve" smooth="yes"/>
			<point x="519" y="546"/>
			<point x="499" y="565"/>
			<point x="476" y="565" type="curve" smooth="yes"/>
			<point x="445" y="565"/>
			<point x="425" y="532"/>
			<point x="405" y="494" type="curve" smooth="yes"/>
			<point x="377" y="440" type="line"/>
		</contour>
		<contour>
			<point x="178" y="324" type="curve" smooth="yes"/>
			<point x="178" y="387"/>
			<point x="225" y="434"/>
			<point x="281" y="434" type="curve" smooth="yes"/>
			<point x="339" y="434"/>
			<point x="385" y="387"/>
			<point x="385" y="324" type="curve" smooth="yes"/>
			<point x="385" y="260"/>
			<point x="339" y="215"/>
			<point x="281" y="215" type="curve" smooth="yes"/>
			<point x="225" y="215"/>
			<point x="178" y="260"/>
		</contour>
		<contour>
			<point x="109" y="324" type="curve" smooth="yes"/>
			<point x="109" y="223"/>
			<point x="188" y="152"/>
			<point x="281" y="152" type="curve" smooth="yes"/>
			<point x="376" y="152"/>
			<point x="453" y="224"/>
			<point x="453" y="324" type="curve" smooth="yes"/>
			<point x="453" y="426"/>
			<point x="376" y="497"/>
			<point x="281" y="497" type="curve" smooth="yes"/>
			<point x="188" y="497"/>
			<point x="109" y="426"/>
		</contour>
		<contour>
			<point x="185" y="439" type="line"/>
			<point x="157" y="494" type="line" smooth="yes"/>
			<point x="137" y="532"/>
			<point x="117" y="565"/>
			<point x="87" y="565" type="curve" smooth="yes"/>
			<point x="64" y="565"/>
			<point x="44" y="545"/>
			<point x="44" y="523" type="curve" smooth="yes"/>
			<point x="44" y="492"/>
			<point x="78" y="471"/>
			<point x="115" y="450" type="curve" smooth="yes"/>
			<point x="167" y="422" type="line"/>
		</contour>
		<contour>
			<point x="168" y="226" type="line"/>
			<point x="115" y="198" type="line" smooth="yes"/>
			<point x="78" y="177"/>
			<point x="44" y="157"/>
			<point x="44" y="126" type="curve" smooth="yes"/>
			<point x="44" y="103"/>
			<point x="64" y="83"/>
			<point x="87" y="83" type="curve" smooth="yes"/>
			<point x="117" y="83"/>
			<point x="137" y="117"/>
			<point x="157" y="155" type="curve" smooth="yes"/>
			<point x="186" y="209" type="line"/>
		</contour>
		<contour>
			<point x="377" y="209" type="line"/>
			<point x="405" y="155" type="line" smooth="yes"/>
			<point x="426" y="117"/>
			<point x="445" y="83"/>
			<point x="476" y="83" type="curve" smooth="yes"/>
			<point x="499" y="83"/>
			<point x="519" y="103"/>
			<point x="519" y="126" type="curve" smooth="yes"/>
			<point x="519" y="157"/>
			<point x="485" y="178"/>
			<point x="447" y="198" type="curve" smooth="yes"/>
			<point x="395" y="227" type="line"/>
		</contour>
	</outline>
</glyph>
<glyph name="yen" format="2">
	<unicode hex="00A5"/>
	<advance width="535"/>
	<outline>
		<contour>
			<point x="44" y="148" type="line"/>
			<point x="437" y="148" type="line"/>
			<point x="446" y="196" type="line"/>
			<point x="53" y="196" type="line"/>
		</contour>
		<contour>
			<point x="58" y="0" type="line"/>
			<point x="362" y="0" type="line"/>
			<point x="369" y="43" type="line"/>
			<point x="250" y="58" type="line"/>
			<point x="192" y="58" type="line"/>
			<point x="66" y="43" type="line"/>
		</contour>
		<contour>
			<point x="68" y="267" type="line"/>
			<point x="461" y="267" type="line"/>
			<point x="471" y="314" type="line"/>
			<point x="78" y="314" type="line"/>
		</contour>
		<contour>
			<point x="141" y="0" type="line"/>
			<point x="281" y="0" type="line"/>
			<point x="298" y="95"/>
			<point x="308" y="145"/>
			<point x="340" y="301" type="curve"/>
			<point x="202" y="301" type="line"/>
		</contour>
		<contour>
			<point x="167" y="573" type="line"/>
			<point x="205" y="573" type="line"/>
			<point x="325" y="587" type="line"/>
			<point x="334" y="631" type="line"/>
			<point x="69" y="631" type="line"/>
			<point x="60" y="587" type="line"/>
		</contour>
		<contour>
			<point x="213" y="228" type="line"/>
			<point x="301" y="228" type="line"/>
			<point x="565" y="631" type="line"/>
			<point x="508" y="631" type="line"/>
			<point x="311" y="319" type="line"/>
			<point x="305" y="310" type="line"/>
			<point x="322" y="310" type="line"/>
			<point x="242" y="631" type="line"/>
			<point x="97" y="631" type="line"/>
		</contour>
		<contour>
			<point x="490" y="574" type="line"/>
			<point x="517" y="574" type="line"/>
			<point x="589" y="587" type="line"/>
			<point x="598" y="631" type="line"/>
			<point x="421" y="631" type="line"/>
			<point x="413" y="587" type="line"/>
		</contour>
	</outline>
</glyph>
<glyph name="section" format="2">
	<unicode hex="00A7"/>
	<advance width="503"/>
	<outline>
		<contour>
			<point x="169" y="-132" type="curve" smooth="yes"/>
			<point x="303" y="-132"/>
			<point x="370" y="-64"/>
			<point x="370" y="17" type="curve" smooth="yes"/>
			<point x="370" y="77"/>
			<point x="340" y="110"/>
			<point x="286" y="155" type="curve" smooth="yes"/>
			<point x="244" y="191" type="line" smooth="yes"/>
			<point x="197" y="229"/>
			<point x="168" y="260"/>
			<point x="169" y="299" type="curve" smooth="yes"/>
			<point x="170" y="342"/>
			<point x="199" y="378"/>
			<point x="278" y="389" type="curve"/>
			<point x="263" y="422" type="line"/>
			<point x="252" y="411" type="line"/>
			<point x="116" y="405"/>
			<point x="50" y="331"/>
			<point x="50" y="248" type="curve" smooth="yes"/>
			<point x="50" y="188"/>
			<point x="81" y="149"/>
			<point x="131" y="107" type="curve" smooth="yes"/>
			<point x="172" y="73" type="line" smooth="yes"/>
			<point x="218" y="36"/>
			<point x="243" y="8"/>
			<point x="243" y="-24" type="curve" smooth="yes"/>
			<point x="243" y="-66"/>
			<point x="215" y="-96"/>
			<point x="161" y="-96" type="curve" smooth="yes"/>
			<point x="141" y="-96"/>
			<point x="122" y="-94"/>
			<point x="102" y="-91" type="curve"/>
			<point x="162" y="-113" type="line"/>
			<point x="142" y="-40" type="line" smooth="yes"/>
			<point x="131" y="4"/>
			<point x="106" y="22"/>
			<point x="74" y="22" type="curve" smooth="yes"/>
			<point x="41" y="22"/>
			<point x="23" y="3"/>
			<point x="17" y="-28" type="curve"/>
			<point x="29" y="-91"/>
			<point x="83" y="-132"/>
		</contour>
		<contour>
			<point x="332" y="675" type="curve" smooth="yes"/>
			<point x="212" y="675"/>
			<point x="148" y="602"/>
			<point x="148" y="518" type="curve" smooth="yes"/>
			<point x="148" y="458"/>
			<point x="185" y="420"/>
			<point x="227" y="385" type="curve" smooth="yes"/>
			<point x="276" y="344" type="line" smooth="yes"/>
			<point x="322" y="306"/>
			<point x="346" y="278"/>
			<point x="345" y="243" type="curve" smooth="yes"/>
			<point x="344" y="201"/>
			<point x="309" y="169"/>
			<point x="234" y="159" type="curve"/>
			<point x="252" y="124" type="line"/>
			<point x="262" y="136" type="line"/>
			<point x="400" y="142"/>
			<point x="467" y="212"/>
			<point x="467" y="293" type="curve" smooth="yes"/>
			<point x="467" y="348"/>
			<point x="443" y="383"/>
			<point x="391" y="425" type="curve" smooth="yes"/>
			<point x="350" y="459" type="line" smooth="yes"/>
			<point x="304" y="497"/>
			<point x="271" y="527"/>
			<point x="271" y="566" type="curve" smooth="yes"/>
			<point x="271" y="604"/>
			<point x="295" y="639"/>
			<point x="348" y="639" type="curve" smooth="yes"/>
			<point x="363" y="639"/>
			<point x="380" y="636"/>
			<point x="394" y="633" type="curve"/>
			<point x="334" y="656" type="line"/>
			<point x="359" y="589" type="line" smooth="yes"/>
			<point x="375" y="546"/>
			<point x="400" y="528"/>
			<point x="427" y="528" type="curve" smooth="yes"/>
			<point x="460" y="528"/>
			<point x="478" y="546"/>
			<point x="483" y="574" type="curve"/>
			<point x="468" y="635"/>
			<point x="424" y="675"/>
		</contour>
	</outline>
</glyph>
<glyph name="copyright" format="2">
	<unicode hex="00A9"/>
	<advance width="759"/>
	<outline>
		<contour>
			<point x="358" y="-18" type="curve" smooth="yes"/>
			<point x="551" y="-18"/>
			<point x="737" y="134"/>
			<point x="737" y="369" type="curve" smooth="yes"/>
			<point x="737" y="558"/>
			<point x="600" y="675"/>
			<point x="429" y="675" type="curve" smooth="yes"/>
			<point x="235" y="675"/>
			<point x="49" y="524"/>
			<point x="49" y="289" type="curve" smooth="yes"/>
			<point x="49" y="99"/>
			<point x="186" y="-18"/>
		</contour>
		<contour>
			<point x="361" y="29" type="curve" smooth="yes"/>
			<point x="217" y="29"/>
			<point x="105" y="129"/>
			<point x="105" y="291" type="curve" smooth="yes"/>
			<point x="105" y="495"/>
			<point x="261" y="628"/>
			<point x="426" y="628" type="curve" smooth="yes"/>
			<point x="569" y="628"/>
			<point x="681" y="529"/>
			<point x="681" y="367" type="curve" smooth="yes"/>
			<point x="681" y="162"/>
			<point x="526" y="29"/>
		</contour>
		<contour>
			<point x="387" y="126" type="curve" smooth="yes"/>
			<point x="432" y="126"/>
			<point x="470" y="138"/>
			<point x="500" y="153" type="curve"/>
			<point x="518" y="251" type="line"/>
			<point x="479" y="251" type="line"/>
			<point x="433" y="149" type="line"/>
			<point x="474" y="183" type="line"/>
			<point x="451" y="171"/>
			<point x="427" y="162"/>
			<point x="402" y="162" type="curve" smooth="yes"/>
			<point x="344" y="162"/>
			<point x="312" y="220"/>
			<point x="312" y="299" type="curve" smooth="yes"/>
			<point x="312" y="392"/>
			<point x="355" y="501"/>
			<point x="445" y="501" type="curve" smooth="yes"/>
			<point x="473" y="501"/>
			<point x="495" y="492"/>
			<point x="516" y="472" type="curve"/>
			<point x="485" y="509" type="line"/>
			<point x="496" y="410" type="line"/>
			<point x="537" y="410" type="line"/>
			<point x="551" y="509" type="line"/>
			<point x="516" y="528"/>
			<point x="482" y="538"/>
			<point x="440" y="538" type="curve" smooth="yes"/>
			<point x="299" y="538"/>
			<point x="208" y="427"/>
			<point x="208" y="304" type="curve" smooth="yes"/>
			<point x="208" y="193"/>
			<point x="280" y="126"/>
		</contour>
	</outline>
</glyph>
<glyph name="registered" format="2">
	<unicode hex="00AE"/>
	<advance width="471"/>
	<outline>
		<contour>
			<point x="178" y="418" type="line"/>
			<point x="278" y="418" type="line"/>
			<point x="281" y="435" type="line"/>
			<point x="240" y="439" type="line"/>
			<point x="224" y="439" type="line"/>
			<point x="181" y="435" type="line"/>
		</contour>
		<contour>
			<point x="199" y="418" type="line"/>
			<point x="256" y="418" type="line"/>
			<point x="293" y="616" type="line"/>
			<point x="237" y="616" type="line"/>
		</contour>
		<contour>
			<point x="253" y="595" type="line"/>
			<point x="266" y="595" type="line"/>
			<point x="270" y="616" type="line"/>
			<point x="216" y="616" type="line"/>
			<point x="212" y="600" type="line"/>
		</contour>
		<contour>
			<point x="272" y="347" type="curve" smooth="yes"/>
			<point x="191" y="347"/>
			<point x="129" y="400"/>
			<point x="129" y="489" type="curve" smooth="yes"/>
			<point x="129" y="602"/>
			<point x="214" y="676"/>
			<point x="306" y="676" type="curve" smooth="yes"/>
			<point x="385" y="676"/>
			<point x="447" y="622"/>
			<point x="447" y="534" type="curve" smooth="yes"/>
			<point x="447" y="420"/>
			<point x="362" y="347"/>
		</contour>
		<contour>
			<point x="267" y="308" type="curve" smooth="yes"/>
			<point x="381" y="308"/>
			<point x="491" y="397"/>
			<point x="491" y="536" type="curve" smooth="yes"/>
			<point x="491" y="646"/>
			<point x="410" y="714"/>
			<point x="309" y="714" type="curve" smooth="yes"/>
			<point x="195" y="714"/>
			<point x="85" y="625"/>
			<point x="85" y="488" type="curve" smooth="yes"/>
			<point x="85" y="377"/>
			<point x="166" y="308"/>
		</contour>
		<contour>
			<point x="348" y="414" type="curve" smooth="yes"/>
			<point x="362" y="414"/>
			<point x="373" y="415"/>
			<point x="385" y="418" type="curve"/>
			<point x="388" y="435" type="line"/>
			<point x="344" y="439" type="line"/>
			<point x="371" y="423" type="line"/>
			<point x="358" y="470" type="line" smooth="yes"/>
			<point x="350" y="501"/>
			<point x="338" y="518"/>
			<point x="295" y="519" type="curve"/>
			<point x="293" y="515" type="line"/>
			<point x="353" y="517"/>
			<point x="381" y="538"/>
			<point x="381" y="569" type="curve" smooth="yes"/>
			<point x="381" y="598"/>
			<point x="357" y="616"/>
			<point x="311" y="616" type="curve" smooth="yes"/>
			<point x="267" y="616" type="line"/>
			<point x="263" y="598" type="line"/>
			<point x="299" y="598" type="line" smooth="yes"/>
			<point x="318" y="598"/>
			<point x="328" y="588"/>
			<point x="328" y="567" type="curve" smooth="yes"/>
			<point x="328" y="544"/>
			<point x="316" y="526"/>
			<point x="285" y="526" type="curve" smooth="yes"/>
			<point x="250" y="526" type="line"/>
			<point x="247" y="508" type="line"/>
			<point x="277" y="508" type="line" smooth="yes"/>
			<point x="292" y="508"/>
			<point x="296" y="499"/>
			<point x="301" y="479" type="curve" smooth="yes"/>
			<point x="308" y="443" type="line" smooth="yes"/>
			<point x="313" y="422"/>
			<point x="324" y="414"/>
		</contour>
	</outline>
</glyph>
<glyph name="degree" format="2">
	<unicode hex="00B0"/>
	<advance width="328"/>
	<outline>
		<contour>
			<point x="224" y="454" type="curve" smooth="yes"/>
			<point x="178" y="454"/>
			<point x="143" y="488"/>
			<point x="143" y="541" type="curve" smooth="yes"/>
			<point x="143" y="595"/>
			<point x="178" y="629"/>
			<point x="224" y="629" type="curve" smooth="yes"/>
			<point x="269" y="629"/>
			<point x="305" y="595"/>
			<point x="305" y="541" type="curve" smooth="yes"/>
			<point x="305" y="488"/>
			<point x="269" y="454"/>
		</contour>
		<contour>
			<point x="224" y="407" type="curve" smooth="yes"/>
			<point x="294" y="407"/>
			<point x="357" y="458"/>
			<point x="357" y="541" type="curve" smooth="yes"/>
			<point x="357" y="624"/>
			<point x="294" y="676"/>
			<point x="224" y="676" type="curve" smooth="yes"/>
			<point x="153" y="676"/>
			<point x="90" y="624"/>
			<point x="90" y="541" type="curve" smooth="yes"/>
			<point x="90" y="458"/>
			<point x="153" y="407"/>
		</contour>
	</outline>
</glyph>
<glyph name="plusminus" format="2">
	<unicode hex="00B1"/>
	<advance width="534"/>
	<outline>
		<contour>
			<point x="226" y="129" type="line"/>
			<point x="300" y="129" type="line"/>
			<point x="300" y="550" type="line"/>
			<point x="226" y="550" type="line"/>
		</contour>
		<contour>
			<point x="488" y="307" type="line"/>
			<point x="488" y="378" type="line"/>
			<point x="37" y="378" type="line"/>
			<point x="37" y="307" type="line"/>
		</contour>
		<contour>
			<point x="488" y="0" type="line"/>
			<point x="488" y="71" type="line"/>
			<point x="37" y="71" type="line"/>
			<point x="37" y="0" type="line"/>
		</contour>
	</outline>
</glyph>
<glyph name="two.sups" format="2">
	<unicode hex="00B2"/>
	<advance width="367"/>
	<outline>
		<contour>
			<point x="81" y="418" type="line"/>
			<point x="362" y="418" type="line"/>
			<point x="379" y="501" type="line"/>
			<point x="151" y="501" type="line"/>
			<point x="150" y="489" type="line"/>
			<point x="344" y="609"/>
			<point x="404" y="658"/>
			<point x="404" y="725" type="curve" smooth="yes"/>
			<point x="404" y="781"/>
			<point x="362" y="821"/>
			<point x="286" y="821" type="curve" smooth="yes"/>
			<point x="211" y="821"/>
			<point x="150" y="793"/>
			<point x="131" y="710" type="curve"/>
			<point x="135" y="683"/>
			<point x="151" y="672"/>
			<point x="173" y="672" type="curve" smooth="yes"/>
			<point x="201" y="672"/>
			<point x="219" y="687"/>
			<point x="222" y="731" type="curve" smooth="yes"/>
			<point x="226" y="801" type="line"/>
			<point x="185" y="769" type="line"/>
			<point x="209" y="781"/>
			<point x="232" y="785"/>
			<point x="253" y="785" type="curve" smooth="yes"/>
			<point x="282" y="785"/>
			<point x="304" y="769"/>
			<point x="304" y="730" type="curve" smooth="yes"/>
			<point x="304" y="671"/>
			<point x="264" y="615"/>
			<point x="91" y="475" type="curve"/>
		</contour>
	</outline>
</glyph>
<glyph name="three.sups" format="2">
	<unicode hex="00B3"/>
	<advance width="367"/>
	<outline>
		<contour>
			<point x="211" y="409" type="curve" smooth="yes"/>
			<point x="321" y="409"/>
			<point x="388" y="457"/>
			<point x="388" y="528" type="curve" smooth="yes"/>
			<point x="388" y="587"/>
			<point x="344" y="617"/>
			<point x="255" y="624" type="curve"/>
			<point x="253" y="616" type="line"/>
			<point x="361" y="625"/>
			<point x="409" y="674"/>
			<point x="409" y="728" type="curve" smooth="yes"/>
			<point x="409" y="778"/>
			<point x="372" y="821"/>
			<point x="276" y="821" type="curve" smooth="yes"/>
			<point x="202" y="821"/>
			<point x="143" y="789"/>
			<point x="140" y="723" type="curve"/>
			<point x="146" y="709"/>
			<point x="160" y="701"/>
			<point x="176" y="701" type="curve" smooth="yes"/>
			<point x="198" y="701"/>
			<point x="218" y="712"/>
			<point x="224" y="748" type="curve" smooth="yes"/>
			<point x="234" y="807" type="line"/>
			<point x="195" y="779" type="line"/>
			<point x="215" y="787"/>
			<point x="235" y="790"/>
			<point x="248" y="790" type="curve" smooth="yes"/>
			<point x="289" y="790"/>
			<point x="310" y="767"/>
			<point x="310" y="724" type="curve" smooth="yes"/>
			<point x="310" y="668"/>
			<point x="276" y="634"/>
			<point x="200" y="634" type="curve"/>
			<point x="193" y="601" type="line"/>
			<point x="256" y="601"/>
			<point x="281" y="577"/>
			<point x="281" y="528" type="curve" smooth="yes"/>
			<point x="281" y="474"/>
			<point x="244" y="441"/>
			<point x="195" y="441" type="curve" smooth="yes"/>
			<point x="169" y="441"/>
			<point x="154" y="443"/>
			<point x="141" y="450" type="curve"/>
			<point x="176" y="423" type="line"/>
			<point x="173" y="484" type="line" smooth="yes"/>
			<point x="170" y="529"/>
			<point x="153" y="540"/>
			<point x="129" y="540" type="curve" smooth="yes"/>
			<point x="113" y="540"/>
			<point x="97" y="530"/>
			<point x="89" y="512" type="curve"/>
			<point x="90" y="445"/>
			<point x="134" y="409"/>
		</contour>
	</outline>
</glyph>
<glyph name="paragraph" format="2">
	<unicode hex="00B6"/>
	<advance width="634"/>
	<outline>
		<contour>
			<point x="544" y="657" type="line"/>
			<point x="533" y="598" type="line"/>
			<point x="553" y="598" type="line"/>
			<point x="682" y="613" type="line"/>
			<point x="690" y="657" type="line"/>
		</contour>
		<contour>
			<point x="342" y="-116" type="line"/>
			<point x="473" y="-116" type="line"/>
			<point x="487" y="-21"/>
			<point x="508" y="91"/>
			<point x="527" y="194" type="curve" smooth="yes"/>
			<point x="613" y="657" type="line"/>
			<point x="485" y="657" type="line"/>
		</contour>
		<contour>
			<point x="407" y="610" type="line"/>
			<point x="545" y="610" type="line"/>
			<point x="554" y="657" type="line"/>
			<point x="442" y="657" type="line" smooth="yes"/>
			<point x="205" y="657"/>
			<point x="64" y="532"/>
			<point x="64" y="346" type="curve" smooth="yes"/>
			<point x="64" y="204"/>
			<point x="172" y="132"/>
			<point x="316" y="117" type="curve"/>
		</contour>
	</outline>
</glyph>
<glyph name="one.sups" format="2">
	<unicode hex="00B9"/>
	<advance width="367"/>
	<outline>
		<contour>
			<point x="102" y="418" type="line"/>
			<point x="356" y="418" type="line"/>
			<point x="361" y="447" type="line"/>
			<point x="263" y="461" type="line"/>
			<point x="210" y="461" type="line"/>
			<point x="108" y="447" type="line"/>
		</contour>
		<contour>
			<point x="173" y="418" type="line"/>
			<point x="280" y="418" type="line"/>
			<point x="342" y="714" type="line"/>
			<point x="365" y="814" type="line"/>
			<point x="357" y="821" type="line"/>
			<point x="181" y="781" type="line"/>
			<point x="175" y="755" type="line"/>
			<point x="260" y="758" type="line"/>
			<point x="245" y="777" type="line"/>
		</contour>
	</outline>
</glyph>
<glyph name="AE" format="2">
	<unicode hex="00C6"/>
	<advance width="875"/>
	<outline>
		<contour>
			<point x="434" y="0" type="line"/>
			<point x="790" y="0" type="line"/>
			<point x="829" y="177" type="line"/>
			<point x="767" y="177" type="line"/>
			<point x="694" y="4" type="line"/>
			<point x="762" y="47" type="line"/>
			<point x="443" y="47" type="line"/>
		</contour>
		<contour>
			<point x="794" y="483" type="line"/>
			<point x="856" y="483" type="line"/>
			<point x="880" y="657" type="line"/>
			<point x="552" y="657" type="line"/>
			<point x="543" y="609" type="line"/>
			<point x="833" y="609" type="line"/>
			<point x="783" y="654" type="line"/>
		</contour>
		<contour>
			<point x="-44" y="0" type="line"/>
			<point x="167" y="0" type="line"/>
			<point x="176" y="44" type="line"/>
			<point x="82" y="58" type="line"/>
			<point x="56" y="58" type="line"/>
			<point x="-35" y="44" type="line"/>
		</contour>
		<contour>
			<point x="363" y="0" type="line"/>
			<point x="511" y="0" type="line"/>
			<point x="528" y="103"/>
			<point x="546" y="207"/>
			<point x="566" y="311" type="curve" smooth="yes"/>
			<point x="632" y="657" type="line"/>
			<point x="483" y="657" type="line"/>
			<point x="467" y="554"/>
			<point x="449" y="450"/>
			<point x="429" y="347" type="curve" smooth="yes"/>
		</contour>
		<contour>
			<point x="679" y="229" type="line"/>
			<point x="724" y="229" type="line"/>
			<point x="765" y="447" type="line"/>
			<point x="720" y="447" type="line"/>
			<point x="681" y="349" type="line"/>
			<point x="677" y="331" type="line"/>
		</contour>
		<contour>
			<point x="289" y="0" type="line"/>
			<point x="445" y="0" type="line"/>
			<point x="456" y="59" type="line"/>
			<point x="427" y="59" type="line"/>
			<point x="298" y="44" type="line"/>
		</contour>
		<contour>
			<point x="323" y="613" type="line"/>
			<point x="449" y="598" type="line"/>
			<point x="542" y="598" type="line"/>
			<point x="553" y="657" type="line"/>
			<point x="332" y="657" type="line"/>
		</contour>
		<contour>
			<point x="3" y="0" type="line"/>
			<point x="64" y="0" type="line"/>
			<point x="222" y="234" type="line"/>
			<point x="505" y="657" type="line"/>
			<point x="453" y="657" type="line"/>
		</contour>
		<contour>
			<point x="191" y="209" type="line"/>
			<point x="485" y="209" type="line"/>
			<point x="485" y="259" type="line"/>
			<point x="191" y="259" type="line"/>
		</contour>
		<contour>
			<point x="499" y="312" type="line"/>
			<point x="713" y="312" type="line"/>
			<point x="713" y="362" type="line"/>
			<point x="499" y="362" type="line"/>
		</contour>
	</outline>
	<anchor name="aboveUC" x="606" y="677"/>
</glyph>
<glyph name="Idieresis" format="2">
	<unicode hex="00CF"/>
	<advance width="361"/>
	<outline>
		<contour>
			<point x="178" y="716" type="curve" smooth="yes"/>
			<point x="214" y="716"/>
			<point x="248" y="743"/>
			<point x="248" y="789" type="curve" smooth="yes"/>
			<point x="248" y="822"/>
			<point x="223" y="844"/>
			<point x="190" y="844" type="curve" smooth="yes"/>
			<point x="155" y="844"/>
			<point x="118" y="819"/>
			<point x="118" y="772" type="curve" smooth="yes"/>
			<point x="118" y="736"/>
			<point x="148" y="716"/>
		</contour>
		<contour>
			<point x="358" y="716" type="curve" smooth="yes"/>
			<point x="394" y="716"/>
			<point x="429" y="743"/>
			<point x="429" y="789" type="curve" smooth="yes"/>
			<point x="429" y="822"/>
			<point x="404" y="844"/>
			<point x="370" y="844" type="curve" smooth="yes"/>
			<point x="336" y="844"/>
			<point x="299" y="819"/>
			<point x="299" y="772" type="curve" smooth="yes"/>
			<point x="299" y="736"/>
			<point x="329" y="716"/>
		</contour>
		<component base="I"/>
	</outline>
</glyph>
<glyph name="Eth" format="2">
	<unicode hex="00D0"/>
	<advance width="667"/>
	<outline>
		<contour>
			<point x="388" y="313" type="line"/>
			<point x="397" y="361" type="line"/>
			<point x="44" y="361" type="line"/>
			<point x="35" y="313" type="line"/>
		</contour>
		<component base="D"/>
	</outline>
</glyph>
<glyph name="multiply" format="2">
	<unicode hex="00D7"/>
	<advance width="534"/>
	<outline>
		<contour>
			<point x="435" y="104" type="line"/>
			<point x="486" y="156" type="line"/>
			<point x="106" y="541" type="line"/>
			<point x="55" y="490" type="line"/>
		</contour>
		<contour>
			<point x="486" y="490" type="line"/>
			<point x="435" y="541" type="line"/>
			<point x="55" y="155" type="line"/>
			<point x="106" y="104" type="line"/>
		</contour>
	</outline>
</glyph>
<glyph name="Oslash" format="2">
	<unicode hex="00D8"/>
	<advance width="654"/>
	<outline>
		<contour>
			<point x="671" y="650" type="line"/>
			<point x="631" y="688" type="line"/>
			<point x="-7" y="7" type="line"/>
			<point x="33" y="-30" type="line"/>
		</contour>
		<contour>
			<point x="277" y="-18" type="curve" smooth="yes"/>
			<point x="504" y="-18"/>
			<point x="643" y="188"/>
			<point x="643" y="410" type="curve" smooth="yes"/>
			<point x="643" y="578"/>
			<point x="542" y="675"/>
			<point x="398" y="675" type="curve" smooth="yes"/>
			<point x="172" y="675"/>
			<point x="32" y="466"/>
			<point x="32" y="249" type="curve" smooth="yes"/>
			<point x="32" y="69"/>
			<point x="137" y="-18"/>
		</contour>
		<contour>
			<point x="284" y="30" type="curve" smooth="yes"/>
			<point x="207" y="30"/>
			<point x="173" y="88"/>
			<point x="173" y="208" type="curve" smooth="yes"/>
			<point x="173" y="412"/>
			<point x="270" y="627"/>
			<point x="392" y="627" type="curve" smooth="yes"/>
			<point x="471" y="627"/>
			<point x="501" y="570"/>
			<point x="501" y="454" type="curve" smooth="yes"/>
			<point x="501" y="250"/>
			<point x="405" y="30"/>
		</contour>
	</outline>
	<anchor name="aboveUC" x="393" y="677"/>
</glyph>
<glyph name="Thorn" format="2">
	<unicode hex="00DE"/>
	<advance width="575"/>
	<outline>
		<contour>
			<point x="153" y="144" type="line"/>
			<point x="262" y="144" type="line" smooth="yes"/>
			<point x="474" y="144"/>
			<point x="570" y="241"/>
			<point x="570" y="359" type="curve" smooth="yes"/>
			<point x="570" y="467"/>
			<point x="500" y="534"/>
			<point x="328" y="534" type="curve" smooth="yes"/>
			<point x="227" y="534" type="line"/>
			<point x="217" y="485" type="line"/>
			<point x="317" y="485" type="line" smooth="yes"/>
			<point x="389" y="485"/>
			<point x="426" y="441"/>
			<point x="426" y="365" type="curve" smooth="yes"/>
			<point x="426" y="256"/>
			<point x="363" y="192"/>
			<point x="268" y="192" type="curve" smooth="yes"/>
			<point x="162" y="192" type="line"/>
		</contour>
		<contour>
			<point x="-18" y="0" type="line"/>
			<point x="279" y="0" type="line"/>
			<point x="288" y="45" type="line"/>
			<point x="163" y="60" type="line"/>
			<point x="125" y="60" type="line"/>
			<point x="-9" y="45" type="line"/>
		</contour>
		<contour>
			<point x="56" y="0" type="line"/>
			<point x="205" y="0" type="line"/>
			<point x="221" y="103"/>
			<point x="239" y="207"/>
			<point x="259" y="311" type="curve" smooth="yes"/>
			<point x="325" y="657" type="line"/>
			<point x="175" y="657" type="line"/>
			<point x="159" y="554"/>
			<point x="141" y="450"/>
			<point x="122" y="347" type="curve" smooth="yes"/>
		</contour>
		<contour>
			<point x="94" y="612" type="line"/>
			<point x="223" y="597" type="line"/>
			<point x="261" y="597" type="line"/>
			<point x="390" y="612" type="line"/>
			<point x="399" y="657" type="line"/>
			<point x="103" y="657" type="line"/>
		</contour>
	</outline>
</glyph>
<glyph name="germandbls" format="2">
	<unicode hex="00DF"/>
	<advance width="580"/>
	<outline>
		<contour>
			<point x="-55" y="-240" type="curve" smooth="yes"/>
			<point x="-2" y="-240"/>
			<point x="55" y="-212"/>
			<point x="96" y="-166" type="curve" smooth="yes"/>
			<point x="143" y="-114"/>
			<point x="175" y="-41"/>
			<point x="191" y="61" type="curve" smooth="yes"/>
			<point x="214" y="192"/>
			<point x="235" y="352"/>
			<point x="259" y="506" type="curve" smooth="yes"/>
			<point x="279" y="636"/>
			<point x="324" y="704"/>
			<point x="393" y="704" type="curve" smooth="yes"/>
			<point x="432" y="704"/>
			<point x="456" y="676"/>
			<point x="456" y="630" type="curve" smooth="yes"/>
			<point x="456" y="576"/>
			<point x="433" y="541"/>
			<point x="389" y="499" type="curve" smooth="yes"/>
			<point x="339" y="451"/>
			<point x="292" y="411"/>
			<point x="292" y="347" type="curve" smooth="yes"/>
			<point x="292" y="288"/>
			<point x="322" y="245"/>
			<point x="369" y="199" type="curve" smooth="yes"/>
			<point x="412" y="158"/>
			<point x="435" y="127"/>
			<point x="435" y="93" type="curve" smooth="yes"/>
			<point x="435" y="53"/>
			<point x="409" y="22"/>
			<point x="362" y="22" type="curve" smooth="yes"/>
			<point x="342" y="22"/>
			<point x="325" y="24"/>
			<point x="304" y="26" type="curve"/>
			<point x="367" y="9" type="line"/>
			<point x="350" y="71" type="line" smooth="yes"/>
			<point x="339" y="114"/>
			<point x="318" y="130"/>
			<point x="288" y="130" type="curve" smooth="yes"/>
			<point x="258" y="130"/>
			<point x="241" y="111"/>
			<point x="236" y="82" type="curve"/>
			<point x="247" y="17"/>
			<point x="295" y="-15"/>
			<point x="378" y="-15" type="curve" smooth="yes"/>
			<point x="486" y="-15"/>
			<point x="555" y="51"/>
			<point x="555" y="133" type="curve" smooth="yes"/>
			<point x="555" y="197"/>
			<point x="527" y="237"/>
			<point x="477" y="286" type="curve" smooth="yes"/>
			<point x="429" y="332"/>
			<point x="400" y="371"/>
			<point x="400" y="416" type="curve" smooth="yes"/>
			<point x="400" y="452"/>
			<point x="422" y="477"/>
			<point x="453" y="497" type="curve" smooth="yes"/>
			<point x="518" y="535"/>
			<point x="572" y="566"/>
			<point x="572" y="633" type="curve" smooth="yes"/>
			<point x="572" y="700"/>
			<point x="517" y="737"/>
			<point x="397" y="737" type="curve" smooth="yes"/>
			<point x="258" y="737"/>
			<point x="145" y="658"/>
			<point x="116" y="452" type="curve" smooth="yes"/>
			<point x="96" y="315"/>
			<point x="78" y="178"/>
			<point x="57" y="45" type="curve" smooth="yes"/>
			<point x="47" y="-21"/>
			<point x="35" y="-81"/>
			<point x="17" y="-130" type="curve" smooth="yes"/>
			<point x="4" y="-163"/>
			<point x="-10" y="-187"/>
			<point x="-26" y="-205" type="curve"/>
			<point x="-26" y="-209" type="line"/>
			<point x="-8" y="-209" type="line"/>
			<point x="-7" y="-205" type="line"/>
			<point x="-29" y="-171" type="line" smooth="yes"/>
			<point x="-52" y="-138"/>
			<point x="-74" y="-117"/>
			<point x="-109" y="-117" type="curve" smooth="yes"/>
			<point x="-142" y="-117"/>
			<point x="-165" y="-139"/>
			<point x="-169" y="-172" type="curve"/>
			<point x="-155" y="-219"/>
			<point x="-120" y="-240"/>
		</contour>
	</outline>
</glyph>
<glyph name="ae" format="2">
	<unicode hex="00E6"/>
	<advance width="739"/>
	<outline>
		<contour>
			<point x="131" y="-15" type="curve" smooth="yes"/>
			<point x="202" y="-15"/>
			<point x="280" y="46"/>
			<point x="332" y="119" type="curve"/>
			<point x="348" y="119" type="line"/>
			<point x="328" y="157" type="line"/>
			<point x="287" y="109"/>
			<point x="250" y="80"/>
			<point x="217" y="80" type="curve" smooth="yes"/>
			<point x="184" y="80"/>
			<point x="166" y="107"/>
			<point x="166" y="165" type="curve" smooth="yes"/>
			<point x="166" y="235"/>
			<point x="197" y="338"/>
			<point x="244" y="386" type="curve" smooth="yes"/>
			<point x="268" y="410"/>
			<point x="292" y="422"/>
			<point x="317" y="422" type="curve" smooth="yes"/>
			<point x="347" y="422"/>
			<point x="383" y="404"/>
			<point x="406" y="380" type="curve"/>
			<point x="472" y="428" type="line"/>
			<point x="446" y="465"/>
			<point x="401" y="491"/>
			<point x="355" y="491" type="curve" smooth="yes"/>
			<point x="210" y="491"/>
			<point x="26" y="291"/>
			<point x="26" y="121" type="curve" smooth="yes"/>
			<point x="26" y="21"/>
			<point x="77" y="-15"/>
		</contour>
		<component base="e" xOffset="283"/>
	</outline>
	<anchor name="aboveLC" x="465" y="496"/>
	<anchor name="belowLC" x="312" y="-20"/>
</glyph>
<glyph name="eth" format="2">
	<unicode hex="00F0"/>
	<advance width="513"/>
	<outline>
		<contour>
			<point x="214" y="-15" type="curve" smooth="yes"/>
			<point x="378" y="-15"/>
			<point x="495" y="137"/>
			<point x="495" y="345" type="curve" smooth="yes"/>
			<point x="495" y="544"/>
			<point x="388" y="680"/>
			<point x="218" y="737" type="curve"/>
			<point x="197" y="700" type="line"/>
			<point x="319" y="635"/>
			<point x="360" y="544"/>
			<point x="376" y="390" type="curve"/>
			<point x="399" y="402" type="line"/>
			<point x="384" y="451"/>
			<point x="352" y="483"/>
			<point x="291" y="483" type="curve" smooth="yes"/>
			<point x="137" y="483"/>
			<point x="25" y="341"/>
			<point x="25" y="174" type="curve" smooth="yes"/>
			<point x="25" y="45"/>
			<point x="108" y="-15"/>
		</contour>
		<contour>
			<point x="222" y="31" type="curve" smooth="yes"/>
			<point x="188" y="31"/>
			<point x="165" y="58"/>
			<point x="165" y="142" type="curve" smooth="yes"/>
			<point x="165" y="293"/>
			<point x="225" y="436"/>
			<point x="300" y="436" type="curve" smooth="yes"/>
			<point x="336" y="436"/>
			<point x="358" y="412"/>
			<point x="358" y="341" type="curve" smooth="yes"/>
			<point x="358" y="187"/>
			<point x="299" y="31"/>
		</contour>
		<contour>
			<point x="187" y="520" type="line"/>
			<point x="513" y="678" type="line"/>
			<point x="493" y="720" type="line"/>
			<point x="170" y="559" type="line"/>
		</contour>
	</outline>
</glyph>
<glyph name="divide" format="2">
	<unicode hex="00F7"/>
	<advance width="534"/>
	<outline>
		<contour>
			<point x="271" y="75" type="curve" smooth="yes"/>
			<point x="307" y="75"/>
			<point x="337" y="102"/>
			<point x="337" y="139" type="curve" smooth="yes"/>
			<point x="337" y="176"/>
			<point x="307" y="204"/>
			<point x="271" y="204" type="curve" smooth="yes"/>
			<point x="234" y="204"/>
			<point x="205" y="176"/>
			<point x="205" y="139" type="curve" smooth="yes"/>
			<point x="205" y="102"/>
			<point x="234" y="75"/>
		</contour>
		<contour>
			<point x="271" y="442" type="curve" smooth="yes"/>
			<point x="307" y="442"/>
			<point x="337" y="469"/>
			<point x="337" y="506" type="curve" smooth="yes"/>
			<point x="337" y="544"/>
			<point x="307" y="571"/>
			<point x="271" y="571" type="curve" smooth="yes"/>
			<point x="234" y="571"/>
			<point x="205" y="544"/>
			<point x="205" y="506" type="curve" smooth="yes"/>
			<point x="205" y="469"/>
			<point x="234" y="442"/>
		</contour>
		<component base="minus"/>
	</outline>
</glyph>
<glyph name="oslash" format="2">
	<unicode hex="00F8"/>
	<advance width="519"/>
	<outline>
		<contour>
			<point x="526" y="474" type="line"/>
			<point x="495" y="505" type="line"/>
			<point x="-9" y="2" type="line"/>
			<point x="23" y="-28" type="line"/>
		</contour>
		<contour>
			<point x="215" y="-15" type="curve" smooth="yes"/>
			<point x="381" y="-15"/>
			<point x="497" y="140"/>
			<point x="497" y="303" type="curve" smooth="yes"/>
			<point x="497" y="432"/>
			<point x="413" y="491"/>
			<point x="309" y="491" type="curve" smooth="yes"/>
			<point x="142" y="491"/>
			<point x="25" y="336"/>
			<point x="25" y="173" type="curve" smooth="yes"/>
			<point x="25" y="44"/>
			<point x="110" y="-15"/>
		</contour>
		<contour>
			<point x="222" y="31" type="curve" smooth="yes"/>
			<point x="184" y="31"/>
			<point x="158" y="54"/>
			<point x="158" y="139" type="curve" smooth="yes"/>
			<point x="158" y="278"/>
			<point x="219" y="445"/>
			<point x="301" y="445" type="curve" smooth="yes"/>
			<point x="339" y="445"/>
			<point x="364" y="421"/>
			<point x="364" y="340" type="curve" smooth="yes"/>
			<point x="364" y="197"/>
			<point x="303" y="31"/>
		</contour>
	</outline>
	<anchor name="aboveLC" x="309" y="496"/>
</glyph>
<glyph name="thorn" format="2">
	<unicode hex="00FE"/>
	<advance width="532"/>
	<outline>
		<contour>
			<point x="-84" y="-233" type="line"/>
			<point x="192" y="-233" type="line"/>
			<point x="198" y="-199" type="line"/>
			<point x="86" y="-181" type="line"/>
			<point x="30" y="-181" type="line"/>
			<point x="-78" y="-199" type="line"/>
		</contour>
		<contour>
			<point x="-26" y="-233" type="line"/>
			<point x="110" y="-233" type="line"/>
			<point x="123" y="-158"/>
			<point x="139" y="-76"/>
			<point x="157" y="14" type="curve"/>
			<point x="166" y="31" type="line"/>
			<point x="235" y="359" type="line"/>
			<point x="235" y="371" type="line"/>
			<point x="308" y="711" type="line"/>
			<point x="292" y="723" type="line"/>
			<point x="88" y="667" type="line"/>
			<point x="83" y="636" type="line"/>
			<point x="199" y="615" type="line"/>
			<point x="154" y="648" type="line"/>
			<point x="143" y="571"/>
			<point x="129" y="503"/>
			<point x="111" y="418" type="curve" smooth="yes"/>
		</contour>
		<contour>
			<point x="201" y="-15" type="curve" smooth="yes"/>
			<point x="349" y="-15"/>
			<point x="517" y="181"/>
			<point x="517" y="357" type="curve" smooth="yes"/>
			<point x="517" y="457"/>
			<point x="469" y="491"/>
			<point x="413" y="491" type="curve" smooth="yes"/>
			<point x="341" y="491"/>
			<point x="261" y="426"/>
			<point x="210" y="346" type="curve"/>
			<point x="197" y="346" type="line"/>
			<point x="213" y="322" type="line"/>
			<point x="253" y="369"/>
			<point x="294" y="396"/>
			<point x="326" y="396" type="curve" smooth="yes"/>
			<point x="363" y="396"/>
			<point x="378" y="371"/>
			<point x="378" y="316" type="curve" smooth="yes"/>
			<point x="378" y="254"/>
			<point x="356" y="168"/>
			<point x="322" y="118" type="curve" smooth="yes"/>
			<point x="295" y="74"/>
			<point x="265" y="54"/>
			<point x="230" y="54" type="curve" smooth="yes"/>
			<point x="194" y="54"/>
			<point x="167" y="81"/>
			<point x="143" y="118" type="curve"/>
			<point x="92" y="36" type="line"/>
			<point x="120" y="2"/>
			<point x="159" y="-15"/>
		</contour>
	</outline>
	<anchor name="aboveLC" x="245" y="728"/>
	<anchor name="belowLC" x="328" y="-20"/>
</glyph>
<glyph name="aogonek" format="2">
	<unicode hex="0105"/>
	<advance width="557"/>
	<outline>
		<contour>
			<point x="131" y="-15" type="curve" smooth="yes"/>
			<point x="203" y="-15"/>
			<point x="277" y="52"/>
			<point x="331" y="128" type="curve"/>
			<point x="341" y="128" type="line"/>
			<point x="328" y="158" type="line"/>
			<point x="285" y="107"/>
			<point x="247" y="80"/>
			<point x="217" y="80" type="curve" smooth="yes"/>
			<point x="183" y="80"/>
			<point x="166" y="106"/>
			<point x="166" y="164" type="curve" smooth="yes"/>
			<point x="166" y="233"/>
			<point x="196" y="334"/>
			<point x="242" y="382" type="curve" smooth="yes"/>
			<point x="266" y="408"/>
			<point x="291" y="422"/>
			<point x="316" y="422" type="curve" smooth="yes"/>
			<point x="344" y="422"/>
			<point x="370" y="407"/>
			<point x="392" y="388" type="curve"/>
			<point x="462" y="435" type="line"/>
			<point x="435" y="470"/>
			<point x="396" y="491"/>
			<point x="354" y="491" type="curve" smooth="yes"/>
			<point x="209" y="491"/>
			<point x="26" y="290"/>
			<point x="26" y="120" type="curve" smooth="yes"/>
			<point x="26" y="21"/>
			<point x="77" y="-15"/>
		</contour>
		<contour>
			<point x="387" y="-233" type="curve" smooth="yes"/>
			<point x="430" y="-233"/>
			<point x="463" y="-213"/>
			<point x="489" y="-190" type="curve"/>
			<point x="477" y="-164" type="line"/>
			<point x="464" y="-169"/>
			<point x="450" y="-173"/>
			<point x="436" y="-173" type="curve" smooth="yes"/>
			<point x="406" y="-173"/>
			<point x="387" y="-154"/>
			<point x="387" y="-121" type="curve" smooth="yes"/>
			<point x="387" y="-78"/>
			<point x="416" y="-34"/>
			<point x="472" y="18" type="curve" smooth="yes"/>
			<point x="502" y="47"/>
			<point x="531" y="80"/>
			<point x="550" y="114" type="curve"/>
			<point x="523" y="132" type="line"/>
			<point x="493" y="93"/>
			<point x="471" y="72"/>
			<point x="453" y="72" type="curve" smooth="yes"/>
			<point x="442" y="72"/>
			<point x="436" y="78"/>
			<point x="436" y="91" type="curve" smooth="yes"/>
			<point x="436" y="101"/>
			<point x="439" y="115"/>
			<point x="443" y="132" type="curve" smooth="yes"/>
			<point x="521" y="482" type="line"/>
			<point x="505" y="494" type="line"/>
			<point x="378" y="432" type="line"/>
			<point x="370" y="428" type="line"/>
			<point x="308" y="137" type="line"/>
			<point x="306" y="128" type="line" smooth="yes"/>
			<point x="301" y="105"/>
			<point x="299" y="89"/>
			<point x="299" y="70" type="curve" smooth="yes"/>
			<point x="299" y="14"/>
			<point x="332" y="-15"/>
			<point x="379" y="-15" type="curve" smooth="yes"/>
			<point x="389" y="-15"/>
			<point x="396" y="-14"/>
			<point x="425" y="-3" type="curve"/>
			<point x="397" y="17" type="line"/>
			<point x="397" y="-14" type="line"/>
			<point x="341" y="-59"/>
			<point x="299" y="-103"/>
			<point x="299" y="-157" type="curve" smooth="yes"/>
			<point x="299" y="-202"/>
			<point x="331" y="-233"/>
		</contour>
	</outline>
	<anchor name="aboveLC" x="353" y="496"/>
</glyph>
<glyph name="dcroat" format="2">
	<unicode hex="0111"/>
	<advance width="559"/>
	<outline>
		<contour>
			<point x="130" y="-15" type="curve" smooth="yes"/>
			<point x="202" y="-15"/>
			<point x="280" y="51"/>
			<point x="331" y="128" type="curve"/>
			<point x="341" y="128" type="line"/>
			<point x="330" y="158" type="line"/>
			<point x="287" y="106"/>
			<point x="249" y="80"/>
			<point x="218" y="80" type="curve" smooth="yes"/>
			<point x="184" y="80"/>
			<point x="166" y="106"/>
			<point x="166" y="165" type="curve" smooth="yes"/>
			<point x="166" y="229"/>
			<point x="196" y="322"/>
			<point x="242" y="369" type="curve" smooth="yes"/>
			<point x="260" y="387"/>
			<point x="287" y="402"/>
			<point x="312" y="402" type="curve" smooth="yes"/>
			<point x="344" y="402"/>
			<point x="364" y="388"/>
			<point x="386" y="367" type="curve"/>
			<point x="457" y="419" type="line"/>
			<point x="429" y="454"/>
			<point x="391" y="471"/>
			<point x="350" y="471" type="curve" smooth="yes"/>
			<point x="205" y="471"/>
			<point x="27" y="283"/>
			<point x="27" y="122" type="curve" smooth="yes"/>
			<point x="27" y="21"/>
			<point x="76" y="-15"/>
		</contour>
		<contour>
			<point x="259" y="529" type="line"/>
			<point x="606" y="529" type="line"/>
			<point x="614" y="567" type="line"/>
			<point x="266" y="567" type="line"/>
		</contour>
		<contour>
			<point x="374" y="-15" type="curve" smooth="yes"/>
			<point x="449" y="-15"/>
			<point x="515" y="47"/>
			<point x="552" y="114" type="curve"/>
			<point x="525" y="131" type="line"/>
			<point x="495" y="91"/>
			<point x="470" y="72"/>
			<point x="454" y="72" type="curve" smooth="yes"/>
			<point x="444" y="72"/>
			<point x="438" y="78"/>
			<point x="438" y="91" type="curve" smooth="yes"/>
			<point x="438" y="101"/>
			<point x="440" y="114"/>
			<point x="445" y="135" type="curve" smooth="yes"/>
			<point x="566" y="711" type="line"/>
			<point x="551" y="723" type="line"/>
			<point x="348" y="667" type="line"/>
			<point x="343" y="636" type="line"/>
			<point x="454" y="616" type="line"/>
			<point x="420" y="647" type="line"/>
			<point x="378" y="440" type="line"/>
			<point x="369" y="420" type="line"/>
			<point x="313" y="149" type="line"/>
			<point x="308" y="128" type="line" smooth="yes"/>
			<point x="302" y="99"/>
			<point x="301" y="82"/>
			<point x="301" y="62" type="curve" smooth="yes"/>
			<point x="301" y="17"/>
			<point x="328" y="-15"/>
		</contour>
	</outline>
</glyph>
<glyph name="eogonek" format="2">
	<unicode hex="0119"/>
	<advance width="455"/>
	<outline>
		<contour>
			<point x="235" y="-233" type="curve" smooth="yes"/>
			<point x="279" y="-233"/>
			<point x="311" y="-213"/>
			<point x="337" y="-190" type="curve"/>
			<point x="325" y="-164" type="line"/>
			<point x="311" y="-169"/>
			<point x="298" y="-173"/>
			<point x="284" y="-173" type="curve" smooth="yes"/>
			<point x="255" y="-173"/>
			<point x="235" y="-154"/>
			<point x="235" y="-121" type="curve" smooth="yes"/>
			<point x="235" y="-77"/>
			<point x="264" y="-31"/>
			<point x="328" y="25" type="curve" smooth="yes"/>
			<point x="365" y="58"/>
			<point x="395" y="95"/>
			<point x="419" y="137" type="curve"/>
			<point x="394" y="154" type="line"/>
			<point x="363" y="115"/>
			<point x="317" y="84"/>
			<point x="263" y="84" type="curve" smooth="yes"/>
			<point x="203" y="84"/>
			<point x="163" y="123"/>
			<point x="163" y="203" type="curve" smooth="yes"/>
			<point x="163" y="335"/>
			<point x="246" y="444"/>
			<point x="301" y="444" type="curve" smooth="yes"/>
			<point x="321" y="444"/>
			<point x="337" y="429"/>
			<point x="337" y="396" type="curve" smooth="yes"/>
			<point x="337" y="328"/>
			<point x="286" y="251"/>
			<point x="103" y="205" type="curve"/>
			<point x="105" y="173" type="line"/>
			<point x="340" y="222"/>
			<point x="450" y="298"/>
			<point x="450" y="389" type="curve" smooth="yes"/>
			<point x="450" y="451"/>
			<point x="402" y="491"/>
			<point x="318" y="491" type="curve" smooth="yes"/>
			<point x="152" y="491"/>
			<point x="27" y="337"/>
			<point x="27" y="169" type="curve" smooth="yes"/>
			<point x="27" y="53"/>
			<point x="97" y="-15"/>
			<point x="197" y="-15" type="curve" smooth="yes"/>
			<point x="219" y="-15"/>
			<point x="239" y="-12"/>
			<point x="252" y="-7" type="curve"/>
			<point x="252" y="-8" type="line"/>
			<point x="192" y="-56"/>
			<point x="147" y="-101"/>
			<point x="147" y="-156" type="curve" smooth="yes"/>
			<point x="147" y="-202"/>
			<point x="179" y="-233"/>
		</contour>
	</outline>
	<anchor name="aboveLC" x="317" y="496"/>
</glyph>
<glyph name="Hbar" format="2">
	<unicode hex="0126"/>
	<advance width="726"/>
	<outline>
		<contour>
			<point x="-17" y="0" type="line"/>
			<point x="278" y="0" type="line"/>
			<point x="287" y="44" type="line"/>
			<point x="163" y="59" type="line"/>
			<point x="124" y="59" type="line"/>
			<point x="-8" y="44" type="line"/>
		</contour>
		<contour>
			<point x="56" y="0" type="line"/>
			<point x="205" y="0" type="line"/>
			<point x="221" y="103"/>
			<point x="239" y="207"/>
			<point x="259" y="311" type="curve" smooth="yes"/>
			<point x="325" y="657" type="line"/>
			<point x="175" y="657" type="line"/>
			<point x="159" y="554"/>
			<point x="141" y="450"/>
			<point x="122" y="347" type="curve" smooth="yes"/>
		</contour>
		<contour>
			<point x="94" y="613" type="line"/>
			<point x="223" y="598" type="line"/>
			<point x="261" y="598" type="line"/>
			<point x="390" y="613" type="line"/>
			<point x="399" y="657" type="line"/>
			<point x="103" y="657" type="line"/>
		</contour>
		<contour>
			<point x="348" y="0" type="line"/>
			<point x="644" y="0" type="line"/>
			<point x="653" y="44" type="line"/>
			<point x="529" y="59" type="line"/>
			<point x="490" y="59" type="line"/>
			<point x="357" y="44" type="line"/>
		</contour>
		<contour>
			<point x="422" y="0" type="line"/>
			<point x="570" y="0" type="line"/>
			<point x="587" y="103"/>
			<point x="605" y="207"/>
			<point x="624" y="311" type="curve" smooth="yes"/>
			<point x="690" y="657" type="line"/>
			<point x="541" y="657" type="line"/>
			<point x="525" y="554"/>
			<point x="507" y="450"/>
			<point x="487" y="347" type="curve" smooth="yes"/>
		</contour>
		<contour>
			<point x="460" y="613" type="line"/>
			<point x="588" y="598" type="line"/>
			<point x="627" y="598" type="line"/>
			<point x="756" y="613" type="line"/>
			<point x="764" y="657" type="line"/>
			<point x="469" y="657" type="line"/>
		</contour>
		<contour>
			<point x="191" y="294" type="line"/>
			<point x="557" y="294" type="line"/>
			<point x="557" y="343" type="line"/>
			<point x="191" y="343" type="line"/>
		</contour>
		<contour>
			<point x="55" y="450" type="line"/>
			<point x="745" y="450" type="line"/>
			<point x="754" y="498" type="line"/>
			<point x="64" y="498" type="line"/>
		</contour>
	</outline>
</glyph>
<glyph name="hbar" format="2">
	<unicode hex="0127"/>
	<advance width="566"/>
	<outline>
		<contour>
			<point x="373" y="-15" type="curve" smooth="yes"/>
			<point x="455" y="-15"/>
			<point x="520" y="49"/>
			<point x="557" y="114" type="curve"/>
			<point x="531" y="131" type="line"/>
			<point x="500" y="91"/>
			<point x="475" y="72"/>
			<point x="459" y="72" type="curve" smooth="yes"/>
			<point x="449" y="72"/>
			<point x="443" y="78"/>
			<point x="443" y="91" type="curve" smooth="yes"/>
			<point x="443" y="101"/>
			<point x="447" y="115"/>
			<point x="452" y="135" type="curve" smooth="yes"/>
			<point x="492" y="299" type="line" smooth="yes"/>
			<point x="500" y="331"/>
			<point x="505" y="361"/>
			<point x="505" y="389" type="curve" smooth="yes"/>
			<point x="505" y="444"/>
			<point x="473" y="471"/>
			<point x="430" y="471" type="curve" smooth="yes"/>
			<point x="359" y="471"/>
			<point x="283" y="419"/>
			<point x="208" y="338" type="curve"/>
			<point x="194" y="338" type="line"/>
			<point x="210" y="302" type="line"/>
			<point x="261" y="351"/>
			<point x="304" y="373"/>
			<point x="335" y="373" type="curve" smooth="yes"/>
			<point x="351" y="373"/>
			<point x="361" y="364"/>
			<point x="361" y="343" type="curve" smooth="yes"/>
			<point x="361" y="327"/>
			<point x="356" y="299"/>
			<point x="348" y="268" type="curve" smooth="yes"/>
			<point x="316" y="138" type="line" smooth="yes"/>
			<point x="309" y="109"/>
			<point x="300" y="75"/>
			<point x="300" y="48" type="curve" smooth="yes"/>
			<point x="300" y="8"/>
			<point x="328" y="-15"/>
		</contour>
		<contour>
			<point x="34" y="-8" type="line"/>
			<point x="161" y="0" type="line"/>
			<point x="171" y="71"/>
			<point x="183" y="132"/>
			<point x="200" y="212" type="curve" smooth="yes"/>
			<point x="227" y="339" type="line"/>
			<point x="228" y="351" type="line"/>
			<point x="304" y="711" type="line"/>
			<point x="290" y="723" type="line"/>
			<point x="86" y="667" type="line"/>
			<point x="82" y="639" type="line"/>
			<point x="197" y="620" type="line"/>
			<point x="150" y="644" type="line"/>
			<point x="140" y="575"/>
			<point x="126" y="504"/>
			<point x="111" y="435" type="curve" smooth="yes"/>
			<point x="20" y="3" type="line"/>
		</contour>
		<contour>
			<point x="61" y="524" type="line"/>
			<point x="415" y="524" type="line"/>
			<point x="424" y="573" type="line"/>
			<point x="70" y="573" type="line"/>
		</contour>
	</outline>
</glyph>
<glyph name="iogonek" format="2">
	<unicode hex="012F"/>
	<advance width="310"/>
	<outline>
		<contour>
			<point x="138" y="-233" type="curve" smooth="yes"/>
			<point x="182" y="-233"/>
			<point x="213" y="-213"/>
			<point x="240" y="-190" type="curve"/>
			<point x="227" y="-164" type="line"/>
			<point x="215" y="-169"/>
			<point x="200" y="-173"/>
			<point x="187" y="-173" type="curve" smooth="yes"/>
			<point x="158" y="-173"/>
			<point x="138" y="-154"/>
			<point x="138" y="-123" type="curve" smooth="yes"/>
			<point x="138" y="-81"/>
			<point x="165" y="-32"/>
			<point x="218" y="16" type="curve" smooth="yes"/>
			<point x="251" y="44"/>
			<point x="279" y="77"/>
			<point x="301" y="114" type="curve"/>
			<point x="275" y="131" type="line"/>
			<point x="243" y="91"/>
			<point x="221" y="72"/>
			<point x="205" y="72" type="curve" smooth="yes"/>
			<point x="196" y="72"/>
			<point x="188" y="78"/>
			<point x="188" y="91" type="curve" smooth="yes"/>
			<point x="188" y="101"/>
			<point x="191" y="116"/>
			<point x="195" y="135" type="curve" smooth="yes"/>
			<point x="269" y="479" type="line"/>
			<point x="254" y="492" type="line"/>
			<point x="49" y="437" type="line"/>
			<point x="43" y="405" type="line"/>
			<point x="142" y="386" type="line"/>
			<point x="118" y="419" type="line"/>
			<point x="60" y="144" type="line" smooth="yes"/>
			<point x="55" y="115"/>
			<point x="46" y="75"/>
			<point x="46" y="49" type="curve" smooth="yes"/>
			<point x="46" y="8"/>
			<point x="76" y="-15"/>
			<point x="121" y="-15" type="curve" smooth="yes"/>
			<point x="132" y="-15"/>
			<point x="142" y="-13"/>
			<point x="146" y="-12" type="curve"/>
			<point x="146" y="-13" type="line"/>
			<point x="91" y="-58"/>
			<point x="50" y="-104"/>
			<point x="50" y="-157" type="curve" smooth="yes"/>
			<point x="50" y="-202"/>
			<point x="81" y="-233"/>
		</contour>
		<contour>
			<point x="227" y="581" type="curve" smooth="yes"/>
			<point x="271" y="581"/>
			<point x="310" y="617"/>
			<point x="310" y="665" type="curve" smooth="yes"/>
			<point x="310" y="704"/>
			<point x="281" y="732"/>
			<point x="241" y="732" type="curve" smooth="yes"/>
			<point x="197" y="732"/>
			<point x="158" y="698"/>
			<point x="158" y="649" type="curve" smooth="yes"/>
			<point x="158" y="607"/>
			<point x="191" y="581"/>
		</contour>
	</outline>
</glyph>
<glyph name="dotlessi" format="2">
	<unicode hex="0131"/>
	<advance width="310"/>
	<outline>
		<contour>
			<point x="46" y="49" type="curve" smooth="yes"/>
			<point x="46" y="8"/>
			<point x="76" y="-15"/>
			<point x="121" y="-15" type="curve" smooth="yes"/>
			<point x="203" y="-15"/>
			<point x="264" y="49"/>
			<point x="301" y="114" type="curve"/>
			<point x="275" y="131" type="line"/>
			<point x="243" y="91"/>
			<point x="221" y="72"/>
			<point x="205" y="72" type="curve" smooth="yes"/>
			<point x="196" y="72"/>
			<point x="188" y="78"/>
			<point x="188" y="91" type="curve" smooth="yes"/>
			<point x="188" y="101"/>
			<point x="191" y="116"/>
			<point x="195" y="135" type="curve" smooth="yes"/>
			<point x="269" y="479" type="line"/>
			<point x="254" y="491" type="line"/>
			<point x="49" y="437" type="line"/>
			<point x="43" y="405" type="line"/>
			<point x="136" y="387" type="line"/>
			<point x="116" y="410" type="line"/>
			<point x="60" y="144" type="line" smooth="yes"/>
			<point x="55" y="115"/>
			<point x="46" y="75"/>
		</contour>
	</outline>
	<anchor name="aboveLC" x="197" y="496"/>
	<anchor name="belowLC" x="141" y="-20"/>
	<anchor name="ogonek" x="174" y="0"/>
</glyph>
<glyph name="Lslash" format="2">
	<unicode hex="0141"/>
	<advance width="547"/>
	<outline>
		<contour>
			<point x="427" y="461" type="line"/>
			<point x="216" y="358" type="line"/>
			<point x="204" y="293" type="line"/>
			<point x="415" y="395" type="line"/>
		</contour>
		<contour>
			<point x="194" y="355" type="line"/>
			<point x="25" y="274" type="line"/>
			<point x="13" y="208" type="line"/>
			<point x="181" y="289" type="line"/>
		</contour>
		<component base="L"/>
	</outline>
</glyph>
<glyph name="lslash" format="2">
	<unicode hex="0142"/>
	<advance width="300"/>
	<outline>
		<contour>
			<point x="214" y="424" type="line"/>
			<point x="21" y="327" type="line"/>
			<point x="9" y="266" type="line"/>
			<point x="202" y="364" type="line"/>
		</contour>
		<contour>
			<point x="329" y="469" type="line"/>
			<point x="132" y="370" type="line"/>
			<point x="120" y="310" type="line"/>
			<point x="317" y="409" type="line"/>
		</contour>
		<component base="l"/>
	</outline>
</glyph>
<glyph name="Eng" format="2">
	<unicode hex="014A"/>
	<advance width="674"/>
	<outline>
		<contour>
			<point x="-26" y="0" type="line"/>
			<point x="206" y="0" type="line"/>
			<point x="214" y="44" type="line"/>
			<point x="104" y="58" type="line"/>
			<point x="78" y="58" type="line"/>
			<point x="-18" y="44" type="line"/>
		</contour>
		<contour>
			<point x="52" y="0" type="line"/>
			<point x="104" y="0" type="line"/>
			<point x="166" y="328" type="line"/>
			<point x="226" y="646" type="line"/>
			<point x="174" y="646" type="line"/>
		</contour>
		<contour>
			<point x="297" y="-147" type="curve" smooth="yes"/>
			<point x="347" y="-147"/>
			<point x="400" y="-127"/>
			<point x="456" y="-67" type="curve" smooth="yes"/>
			<point x="511" y="-9"/>
			<point x="538" y="51"/>
			<point x="562" y="187" type="curve" smooth="yes"/>
			<point x="644" y="657" type="line"/>
			<point x="593" y="657" type="line"/>
			<point x="536" y="328" type="line"/>
			<point x="507" y="164" type="line" smooth="yes"/>
			<point x="482" y="24"/>
			<point x="441" y="-51"/>
			<point x="362" y="-98" type="curve"/>
			<point x="362" y="-109" type="line"/>
			<point x="390" y="-109" type="line"/>
			<point x="390" y="-95" type="line"/>
			<point x="351" y="-58" type="line" smooth="yes"/>
			<point x="324" y="-33"/>
			<point x="305" y="-22"/>
			<point x="273" y="-22" type="curve" smooth="yes"/>
			<point x="242" y="-22"/>
			<point x="208" y="-39"/>
			<point x="199" y="-80" type="curve"/>
			<point x="207" y="-125"/>
			<point x="244" y="-147"/>
		</contour>
		<contour>
			<point x="453" y="-1" type="line"/>
			<point x="490" y="-1" type="line"/>
			<point x="547" y="172" type="line"/>
			<point x="533" y="172" type="line"/>
			<point x="290" y="657" type="line"/>
			<point x="97" y="657" type="line"/>
			<point x="88" y="612" type="line"/>
			<point x="152" y="606" type="line"/>
			<point x="175" y="559" type="line"/>
			<point x="179" y="550" type="line"/>
		</contour>
		<contour>
			<point x="599" y="599" type="line"/>
			<point x="625" y="599" type="line"/>
			<point x="715" y="613" type="line"/>
			<point x="723" y="657" type="line"/>
			<point x="491" y="657" type="line"/>
			<point x="482" y="613" type="line"/>
		</contour>
	</outline>
</glyph>
<glyph name="eng" format="2">
	<unicode hex="014B"/>
	<advance width="587"/>
	<outline>
		<contour>
			<point x="45" y="-8" type="line"/>
			<point x="172" y="0" type="line"/>
			<point x="183" y="71"/>
			<point x="196" y="141"/>
			<point x="211" y="211" type="curve" smooth="yes"/>
			<point x="240" y="348" type="line"/>
			<point x="243" y="359" type="line"/>
			<point x="266" y="478" type="line"/>
			<point x="249" y="491" type="line"/>
			<point x="49" y="437" type="line"/>
			<point x="43" y="405" type="line"/>
			<point x="158" y="385" type="line"/>
			<point x="116" y="409" type="line"/>
			<point x="31" y="3" type="line"/>
		</contour>
		<contour>
			<point x="195" y="-239" type="line"/>
			<point x="273" y="-233"/>
			<point x="326" y="-203"/>
			<point x="364" y="-158" type="curve" smooth="yes"/>
			<point x="408" y="-111"/>
			<point x="433" y="-43"/>
			<point x="454" y="56" type="curve" smooth="yes"/>
			<point x="509" y="321" type="line" smooth="yes"/>
			<point x="516" y="352"/>
			<point x="521" y="381"/>
			<point x="521" y="409" type="curve" smooth="yes"/>
			<point x="521" y="464"/>
			<point x="489" y="491"/>
			<point x="446" y="491" type="curve" smooth="yes"/>
			<point x="375" y="491"/>
			<point x="299" y="440"/>
			<point x="225" y="360" type="curve"/>
			<point x="218" y="360" type="line"/>
			<point x="226" y="324" type="line"/>
			<point x="277" y="373"/>
			<point x="320" y="395"/>
			<point x="351" y="395" type="curve" smooth="yes"/>
			<point x="367" y="395"/>
			<point x="377" y="385"/>
			<point x="377" y="365" type="curve" smooth="yes"/>
			<point x="377" y="349"/>
			<point x="373" y="321"/>
			<point x="367" y="290" type="curve" smooth="yes"/>
			<point x="318" y="44" type="line" smooth="yes"/>
			<point x="298" y="-58"/>
			<point x="283" y="-118"/>
			<point x="259" y="-154" type="curve" smooth="yes"/>
			<point x="239" y="-183"/>
			<point x="219" y="-198"/>
			<point x="189" y="-210" type="curve"/>
		</contour>
	</outline>
</glyph>
<glyph name="OE" format="2">
	<unicode hex="0152"/>
	<advance width="868"/>
	<outline>
		<contour>
			<point x="426" y="5" type="curve"/>
			<point x="422" y="54" type="line"/>
			<point x="384" y="37"/>
			<point x="352" y="30"/>
			<point x="321" y="30" type="curve" smooth="yes"/>
			<point x="244" y="30"/>
			<point x="182" y="96"/>
			<point x="182" y="227" type="curve" smooth="yes"/>
			<point x="182" y="436"/>
			<point x="287" y="627"/>
			<point x="428" y="627" type="curve" smooth="yes"/>
			<point x="471" y="627"/>
			<point x="490" y="620"/>
			<point x="531" y="603" type="curve"/>
			<point x="549" y="652" type="line"/>
			<point x="505" y="668"/>
			<point x="471" y="675"/>
			<point x="430" y="675" type="curve" smooth="yes"/>
			<point x="187" y="675"/>
			<point x="32" y="462"/>
			<point x="32" y="254" type="curve" smooth="yes"/>
			<point x="32" y="68"/>
			<point x="144" y="-18"/>
			<point x="300" y="-18" type="curve" smooth="yes"/>
			<point x="350" y="-18"/>
			<point x="383" y="-10"/>
		</contour>
		<contour>
			<point x="355" y="0" type="line"/>
			<point x="504" y="0" type="line"/>
			<point x="520" y="103"/>
			<point x="539" y="207"/>
			<point x="558" y="311" type="curve" smooth="yes"/>
			<point x="625" y="657" type="line"/>
			<point x="476" y="657" type="line"/>
			<point x="459" y="554"/>
			<point x="441" y="450"/>
			<point x="421" y="347" type="curve" smooth="yes"/>
		</contour>
		<contour>
			<point x="427" y="0" type="line"/>
			<point x="783" y="0" type="line"/>
			<point x="821" y="177" type="line"/>
			<point x="760" y="177" type="line"/>
			<point x="687" y="4" type="line"/>
			<point x="755" y="47" type="line"/>
			<point x="436" y="47" type="line"/>
		</contour>
		<contour>
			<point x="486" y="312" type="line"/>
			<point x="691" y="312" type="line"/>
			<point x="700" y="362" type="line"/>
			<point x="495" y="362" type="line"/>
		</contour>
		<contour>
			<point x="535" y="609" type="line"/>
			<point x="826" y="609" type="line"/>
			<point x="775" y="654" type="line"/>
			<point x="786" y="483" type="line"/>
			<point x="848" y="483" type="line"/>
			<point x="872" y="657" type="line"/>
			<point x="545" y="657" type="line"/>
		</contour>
		<contour>
			<point x="672" y="224" type="line"/>
			<point x="716" y="224" type="line"/>
			<point x="757" y="447" type="line"/>
			<point x="713" y="447" type="line"/>
			<point x="673" y="349" type="line"/>
			<point x="670" y="331" type="line"/>
		</contour>
	</outline>
	<anchor name="aboveUC" x="553" y="677"/>
</glyph>
<glyph name="oe" format="2">
	<unicode hex="0153"/>
	<advance width="772"/>
	<outline>
		<contour>
			<point x="211" y="-15" type="curve" smooth="yes"/>
			<point x="302" y="-15"/>
			<point x="376" y="42"/>
			<point x="422" y="131" type="curve"/>
			<point x="357" y="135" type="line"/>
			<point x="362" y="41"/>
			<point x="432" y="-15"/>
			<point x="516" y="-15" type="curve" smooth="yes"/>
			<point x="619" y="-15"/>
			<point x="693" y="52"/>
			<point x="736" y="137" type="curve"/>
			<point x="712" y="154" type="line"/>
			<point x="681" y="115"/>
			<point x="635" y="84"/>
			<point x="581" y="84" type="curve" smooth="yes"/>
			<point x="521" y="84"/>
			<point x="480" y="123"/>
			<point x="480" y="203" type="curve" smooth="yes"/>
			<point x="480" y="335"/>
			<point x="563" y="444"/>
			<point x="618" y="444" type="curve" smooth="yes"/>
			<point x="639" y="444"/>
			<point x="655" y="428"/>
			<point x="655" y="396" type="curve" smooth="yes"/>
			<point x="655" y="328"/>
			<point x="603" y="251"/>
			<point x="421" y="205" type="curve"/>
			<point x="423" y="173" type="line"/>
			<point x="658" y="222"/>
			<point x="768" y="298"/>
			<point x="768" y="389" type="curve" smooth="yes"/>
			<point x="768" y="451"/>
			<point x="719" y="491"/>
			<point x="638" y="491" type="curve" smooth="yes"/>
			<point x="551" y="491"/>
			<point x="471" y="437"/>
			<point x="423" y="356" type="curve"/>
			<point x="481" y="360" type="line"/>
			<point x="454" y="450"/>
			<point x="387" y="491"/>
			<point x="309" y="491" type="curve" smooth="yes"/>
			<point x="142" y="491"/>
			<point x="25" y="336"/>
			<point x="25" y="173" type="curve" smooth="yes"/>
			<point x="25" y="44"/>
			<point x="104" y="-15"/>
		</contour>
		<contour>
			<point x="223" y="31" type="curve" smooth="yes"/>
			<point x="188" y="31"/>
			<point x="164" y="57"/>
			<point x="164" y="138" type="curve" smooth="yes"/>
			<point x="164" y="281"/>
			<point x="222" y="445"/>
			<point x="300" y="445" type="curve" smooth="yes"/>
			<point x="335" y="445"/>
			<point x="358" y="419"/>
			<point x="358" y="340" type="curve" smooth="yes"/>
			<point x="358" y="195"/>
			<point x="300" y="31"/>
		</contour>
	</outline>
	<anchor name="aboveLC" x="462" y="496"/>
</glyph>
<glyph name="Uogonek" format="2">
	<unicode hex="0172"/>
	<advance width="663"/>
	<outline>
		<contour>
			<point x="207" y="598" type="line"/>
			<point x="245" y="598" type="line"/>
			<point x="377" y="613" type="line"/>
			<point x="385" y="657" type="line"/>
			<point x="89" y="657" type="line"/>
			<point x="81" y="613" type="line"/>
		</contour>
		<contour>
			<point x="362" y="-233" type="curve" smooth="yes"/>
			<point x="405" y="-233"/>
			<point x="438" y="-213"/>
			<point x="464" y="-190" type="curve"/>
			<point x="451" y="-163" type="line"/>
			<point x="438" y="-169"/>
			<point x="424" y="-173"/>
			<point x="411" y="-173" type="curve" smooth="yes"/>
			<point x="381" y="-173"/>
			<point x="362" y="-155"/>
			<point x="362" y="-120" type="curve" smooth="yes"/>
			<point x="362" y="-75"/>
			<point x="398" y="-23"/>
			<point x="459" y="32" type="curve" smooth="yes"/>
			<point x="514" y="79"/>
			<point x="552" y="148"/>
			<point x="574" y="264" type="curve" smooth="yes"/>
			<point x="647" y="657" type="line"/>
			<point x="593" y="657" type="line"/>
			<point x="519" y="264" type="line" smooth="yes"/>
			<point x="491" y="115"/>
			<point x="436" y="64"/>
			<point x="351" y="64" type="curve" smooth="yes"/>
			<point x="274" y="64"/>
			<point x="232" y="105"/>
			<point x="232" y="186" type="curve" smooth="yes"/>
			<point x="232" y="215"/>
			<point x="236" y="245"/>
			<point x="242" y="278" type="curve" smooth="yes"/>
			<point x="313" y="657" type="line"/>
			<point x="157" y="657" type="line"/>
			<point x="142" y="556"/>
			<point x="123" y="454"/>
			<point x="105" y="352" type="curve" smooth="yes"/>
			<point x="90" y="270" type="line" smooth="yes"/>
			<point x="84" y="237"/>
			<point x="80" y="205"/>
			<point x="80" y="177" type="curve" smooth="yes"/>
			<point x="80" y="40"/>
			<point x="168" y="-18"/>
			<point x="298" y="-18" type="curve" smooth="yes"/>
			<point x="328" y="-18"/>
			<point x="355" y="-14"/>
			<point x="378" y="-7" type="curve"/>
			<point x="378" y="-8" type="line"/>
			<point x="318" y="-55"/>
			<point x="274" y="-102"/>
			<point x="274" y="-157" type="curve" smooth="yes"/>
			<point x="274" y="-202"/>
			<point x="306" y="-233"/>
		</contour>
		<contour>
			<point x="597" y="603" type="line"/>
			<point x="621" y="603" type="line"/>
			<point x="713" y="613" type="line"/>
			<point x="722" y="657" type="line"/>
			<point x="509" y="657" type="line"/>
			<point x="501" y="613" type="line"/>
		</contour>
	</outline>
	<anchor name="aboveUC" x="441" y="677"/>
</glyph>
<glyph name="uogonek" format="2">
	<unicode hex="0173"/>
	<advance width="577"/>
	<outline>
		<contour>
			<point x="131" y="-15" type="curve" smooth="yes"/>
			<point x="202" y="-15"/>
			<point x="278" y="37"/>
			<point x="352" y="125" type="curve"/>
			<point x="361" y="125" type="line"/>
			<point x="346" y="153" type="line"/>
			<point x="294" y="102"/>
			<point x="256" y="81"/>
			<point x="224" y="81" type="curve" smooth="yes"/>
			<point x="205" y="81"/>
			<point x="191" y="91"/>
			<point x="191" y="118" type="curve" smooth="yes"/>
			<point x="191" y="136"/>
			<point x="197" y="161"/>
			<point x="203" y="188" type="curve" smooth="yes"/>
			<point x="270" y="478" type="line"/>
			<point x="254" y="492" type="line"/>
			<point x="49" y="437" type="line"/>
			<point x="43" y="405" type="line"/>
			<point x="136" y="387" type="line"/>
			<point x="118" y="412" type="line"/>
			<point x="62" y="161" type="line" smooth="yes"/>
			<point x="54" y="129"/>
			<point x="48" y="96"/>
			<point x="48" y="67" type="curve" smooth="yes"/>
			<point x="48" y="14"/>
			<point x="84" y="-15"/>
		</contour>
		<contour>
			<point x="406" y="-233" type="curve" smooth="yes"/>
			<point x="450" y="-233"/>
			<point x="482" y="-213"/>
			<point x="509" y="-190" type="curve"/>
			<point x="496" y="-163" type="line"/>
			<point x="484" y="-169"/>
			<point x="470" y="-172"/>
			<point x="457" y="-172" type="curve" smooth="yes"/>
			<point x="426" y="-172"/>
			<point x="407" y="-155"/>
			<point x="407" y="-123" type="curve" smooth="yes"/>
			<point x="407" y="-78"/>
			<point x="437" y="-33"/>
			<point x="490" y="17" type="curve" smooth="yes"/>
			<point x="519" y="45"/>
			<point x="549" y="79"/>
			<point x="569" y="114" type="curve"/>
			<point x="542" y="131" type="line"/>
			<point x="511" y="91"/>
			<point x="489" y="72"/>
			<point x="472" y="72" type="curve" smooth="yes"/>
			<point x="463" y="72"/>
			<point x="456" y="78"/>
			<point x="456" y="91" type="curve" smooth="yes"/>
			<point x="456" y="101"/>
			<point x="459" y="115"/>
			<point x="463" y="135" type="curve" smooth="yes"/>
			<point x="538" y="478" type="line"/>
			<point x="520" y="492" type="line"/>
			<point x="389" y="452" type="line"/>
			<point x="381" y="397"/>
			<point x="371" y="347"/>
			<point x="360" y="293" type="curve" smooth="yes"/>
			<point x="329" y="146" type="line"/>
			<point x="326" y="131" type="line"/>
			<point x="320" y="104"/>
			<point x="317" y="84"/>
			<point x="317" y="67" type="curve" smooth="yes"/>
			<point x="317" y="15"/>
			<point x="348" y="-15"/>
			<point x="392" y="-15" type="curve" smooth="yes"/>
			<point x="408" y="-15"/>
			<point x="418" y="-12"/>
			<point x="445" y="-2" type="curve"/>
			<point x="418" y="18" type="line"/>
			<point x="418" y="-12" type="line"/>
			<point x="361" y="-59"/>
			<point x="319" y="-103"/>
			<point x="319" y="-157" type="curve" smooth="yes"/>
			<point x="319" y="-202"/>
			<point x="350" y="-233"/>
		</contour>
	</outline>
	<anchor name="aboveLC" x="332" y="496"/>
</glyph>
<glyph name="longs" format="2">
	<unicode hex="017F"/>
	<advance width="330"/>
	<outline>
		<contour>
			<point x="-55" y="-240" type="curve" smooth="yes"/>
			<point x="-2" y="-240"/>
			<point x="54" y="-212"/>
			<point x="96" y="-166" type="curve" smooth="yes"/>
			<point x="143" y="-114"/>
			<point x="172" y="-41"/>
			<point x="188" y="49" type="curve" smooth="yes"/>
			<point x="216" y="207"/>
			<point x="236" y="359"/>
			<point x="258" y="506" type="curve" smooth="yes"/>
			<point x="278" y="632"/>
			<point x="302" y="684"/>
			<point x="344" y="711" type="curve"/>
			<point x="344" y="720" type="line"/>
			<point x="316" y="720" type="line"/>
			<point x="316" y="710" type="line"/>
			<point x="350" y="656" type="line" smooth="yes"/>
			<point x="371" y="624"/>
			<point x="394" y="603"/>
			<point x="426" y="603" type="curve" smooth="yes"/>
			<point x="456" y="603"/>
			<point x="486" y="626"/>
			<point x="489" y="661" type="curve"/>
			<point x="478" y="708"/>
			<point x="420" y="738"/>
			<point x="360" y="738" type="curve" smooth="yes"/>
			<point x="243" y="738"/>
			<point x="143" y="649"/>
			<point x="115" y="452" type="curve" smooth="yes"/>
			<point x="96" y="315"/>
			<point x="77" y="181"/>
			<point x="57" y="45" type="curve" smooth="yes"/>
			<point x="47" y="-21"/>
			<point x="35" y="-81"/>
			<point x="16" y="-130" type="curve" smooth="yes"/>
			<point x="4" y="-163"/>
			<point x="-10" y="-187"/>
			<point x="-26" y="-205" type="curve"/>
			<point x="-26" y="-209" type="line"/>
			<point x="-8" y="-209" type="line"/>
			<point x="-7" y="-205" type="line"/>
			<point x="-29" y="-171" type="line" smooth="yes"/>
			<point x="-52" y="-138"/>
			<point x="-74" y="-117"/>
			<point x="-109" y="-117" type="curve" smooth="yes"/>
			<point x="-142" y="-117"/>
			<point x="-165" y="-139"/>
			<point x="-169" y="-172" type="curve"/>
			<point x="-155" y="-219"/>
			<point x="-120" y="-240"/>
		</contour>
	</outline>
</glyph>
<glyph name="Schwa" format="2">
	<unicode hex="018F"/>
	<advance width="612"/>
	<outline>
		<contour>
			<point x="258" y="-18" type="curve" smooth="yes"/>
			<point x="458" y="-18"/>
			<point x="600" y="192"/>
			<point x="600" y="403" type="curve" smooth="yes"/>
			<point x="600" y="579"/>
			<point x="507" y="675"/>
			<point x="359" y="675" type="curve" smooth="yes"/>
			<point x="275" y="675"/>
			<point x="199" y="644"/>
			<point x="134" y="579" type="curve"/>
			<point x="161" y="542" type="line"/>
			<point x="219" y="586"/>
			<point x="270" y="605"/>
			<point x="324" y="605" type="curve" smooth="yes"/>
			<point x="398" y="605"/>
			<point x="452" y="558"/>
			<point x="452" y="438" type="curve" smooth="yes"/>
			<point x="452" y="197"/>
			<point x="355" y="30"/>
			<point x="264" y="30" type="curve" smooth="yes"/>
			<point x="206" y="30"/>
			<point x="174" y="72"/>
			<point x="174" y="166" type="curve" smooth="yes"/>
			<point x="174" y="219"/>
			<point x="180" y="269"/>
			<point x="193" y="311" type="curve"/>
			<point x="496" y="311" type="line"/>
			<point x="506" y="361" type="line"/>
			<point x="53" y="361" type="line"/>
			<point x="40" y="315"/>
			<point x="31" y="271"/>
			<point x="31" y="214" type="curve" smooth="yes"/>
			<point x="31" y="78"/>
			<point x="102" y="-18"/>
		</contour>
	</outline>
	<anchor name="aboveUC" x="360" y="677"/>
	<anchor name="belowLC" x="265" y="-20"/>
</glyph>
<glyph name="florin" format="2">
	<unicode hex="0192"/>
	<advance width="535"/>
	<outline>
		<contour>
			<point x="134" y="351" type="line"/>
			<point x="449" y="351" type="line"/>
			<point x="458" y="399" type="line"/>
			<point x="143" y="399" type="line"/>
		</contour>
		<contour>
			<point x="75" y="-105" type="curve" smooth="yes"/>
			<point x="125" y="-105"/>
			<point x="173" y="-90"/>
			<point x="211" y="-50" type="curve" smooth="yes"/>
			<point x="263" y="1"/>
			<point x="292" y="82"/>
			<point x="319" y="215" type="curve" smooth="yes"/>
			<point x="349" y="361" type="line" smooth="yes"/>
			<point x="371" y="469"/>
			<point x="383" y="530"/>
			<point x="407" y="571" type="curve" smooth="yes"/>
			<point x="423" y="599"/>
			<point x="444" y="615"/>
			<point x="474" y="624" type="curve"/>
			<point x="468" y="628" type="line"/>
			<point x="424" y="622" type="line"/>
			<point x="453" y="572" type="line" smooth="yes"/>
			<point x="474" y="536"/>
			<point x="490" y="525"/>
			<point x="517" y="525" type="curve" smooth="yes"/>
			<point x="547" y="525"/>
			<point x="572" y="545"/>
			<point x="574" y="584" type="curve"/>
			<point x="561" y="624"/>
			<point x="521" y="646"/>
			<point x="463" y="646" type="curve" smooth="yes"/>
			<point x="412" y="646"/>
			<point x="364" y="631"/>
			<point x="325" y="591" type="curve" smooth="yes"/>
			<point x="277" y="543"/>
			<point x="247" y="470"/>
			<point x="223" y="358" type="curve" smooth="yes"/>
			<point x="192" y="202" type="line" smooth="yes"/>
			<point x="167" y="80"/>
			<point x="155" y="14"/>
			<point x="130" y="-30" type="curve" smooth="yes"/>
			<point x="114" y="-58"/>
			<point x="92" y="-74"/>
			<point x="63" y="-83" type="curve"/>
			<point x="71" y="-88" type="line"/>
			<point x="109" y="-77" type="line"/>
			<point x="82" y="-28" type="line" smooth="yes"/>
			<point x="63" y="7"/>
			<point x="45" y="18"/>
			<point x="20" y="18" type="curve" smooth="yes"/>
			<point x="-9" y="18"/>
			<point x="-32" y="1"/>
			<point x="-39" y="-32" type="curve"/>
			<point x="-33" y="-77"/>
			<point x="14" y="-105"/>
		</contour>
	</outline>
</glyph>
<glyph name="Uhorn" format="2">
	<unicode hex="01AF"/>
	<advance width="665"/>
	<outline>
		<contour>
			<point x="80" y="178" type="curve" smooth="yes"/>
			<point x="80" y="41"/>
			<point x="167" y="-18"/>
			<point x="299" y="-18" type="curve" smooth="yes"/>
			<point x="444" y="-18"/>
			<point x="538" y="63"/>
			<point x="575" y="264" type="curve" smooth="yes"/>
			<point x="648" y="657" type="line"/>
			<point x="593" y="657" type="line"/>
			<point x="519" y="264" type="line" smooth="yes"/>
			<point x="491" y="115"/>
			<point x="437" y="64"/>
			<point x="351" y="64" type="curve" smooth="yes"/>
			<point x="274" y="64"/>
			<point x="232" y="106"/>
			<point x="232" y="186" type="curve" smooth="yes"/>
			<point x="232" y="216"/>
			<point x="236" y="246"/>
			<point x="243" y="278" type="curve" smooth="yes"/>
			<point x="314" y="657" type="line"/>
			<point x="157" y="657" type="line"/>
			<point x="142" y="556"/>
			<point x="123" y="455"/>
			<point x="105" y="352" type="curve" smooth="yes"/>
			<point x="90" y="270" type="line" smooth="yes"/>
			<point x="84" y="237"/>
			<point x="80" y="205"/>
		</contour>
		<contour>
			<point x="609" y="603" type="line"/>
			<point x="718" y="605"/>
			<point x="794" y="651"/>
			<point x="794" y="760" type="curve" smooth="yes"/>
			<point x="794" y="774"/>
			<point x="793" y="787"/>
			<point x="789" y="798" type="curve"/>
			<point x="777" y="809"/>
			<point x="764" y="813"/>
			<point x="747" y="813" type="curve" smooth="yes"/>
			<point x="711" y="813"/>
			<point x="688" y="789"/>
			<point x="688" y="760" type="curve" smooth="yes"/>
			<point x="688" y="724"/>
			<point x="712" y="708"/>
			<point x="712" y="687" type="curve" smooth="yes"/>
			<point x="712" y="665"/>
			<point x="678" y="657"/>
			<point x="617" y="657" type="curve"/>
		</contour>
		<contour>
			<point x="80" y="612" type="line"/>
			<point x="208" y="597" type="line"/>
			<point x="244" y="597" type="line"/>
			<point x="377" y="612" type="line"/>
			<point x="386" y="657" type="line"/>
			<point x="89" y="657" type="line"/>
		</contour>
		<contour>
			<point x="501" y="612" type="line"/>
			<point x="597" y="603" type="line"/>
			<point x="613" y="603" type="line"/>
			<point x="622" y="657" type="line"/>
			<point x="509" y="657" type="line"/>
		</contour>
	</outline>
	<anchor name="aboveUC" x="438" y="677"/>
	<anchor name="belowLC" x="295" y="-20"/>
</glyph>
